<svg xmlns="http://www.w3.org/2000/svg" width="339" height="242" fill="none"><path stroke="#000" stroke-miterlimit="10" stroke-width=".75" d="M58.488 61.231h16.684V32.717H58.488l-.367 2.56.55 2.558-.55 3.473.55 2.742-.55 2.741.367 3.108-.367 2.924.367 2.56-.367 3.29zM187.193 81.702h10.634v.914h5.684v-.914h13.567v16.816h-29.884999999999998zM158.225 81.885h12.466999999999999v.731h6.784v-.914h9.717v16.816h-28.968000000000004V81.886ZM110.188 98.518h29.701V81.702h-14.117v.549h-6.051v-.549h-9.533zM99.555 144.396h17.051000000000002v-29.245H99.555v15.352999999999998h.366v5.484h-.366zM58.486 81.702h9.718v.549h5.8660000000000005v-.549h14.668v16.816H58.486V81.702ZM44.736 115.151h13.568v.366h5.5v-.366h11v16.633H44.737v-16.633Z"/><path stroke="#000" stroke-miterlimit="10" stroke-width=".75" d="M58.486 61.231H75.17V32.718H58.486l-.367 2.558.55 2.56-.55 3.472.55 2.742-.55 2.742.367 3.107-.367 2.924.367 2.56-.367 3.29zM57.752 27.6v5.118h17.417V8.773H57.753V27.6ZM90.754 44.598h11v.914h6.417v-.914h10.634v16.633000000000003H90.754V44.598ZM178.758 144.396h17.601v-29.245h-17.601v15.719000000000001h.366v5.118h-.366zM257.963 137.45h-31.352v16.816h31.352zM257.962 106.56h-10.45v14.074h10.45z"/><path fill="#D2F9FF" d="M255.396 1.28s32.818 28.148 48.036 79.509c15.217 51.361 24.751 92.12 24.751 92.12s9.35 22.482 9.9 67.994l-19.617-.731c-1.284-45.329-11.001-67.811-11.001-67.811s-10.45-40.76-26.401-91.755C265.113 29.61 227.895.914 227.895.914z"/><path fill="#007AA0" d="M295.73 78.23c.183.548.55 1.28.917 2.193.366 1.28.366 2.193 0 2.924a4.3 4.3 0 0 1-1.65 1.463c-.917.182-1.651.182-2.201-.183-.916-.366-1.466-1.462-1.833-2.559-.183-.366-.183-.731-.183-.914l-3.667 1.097-.367-1.28zm-4.034 2.558c0 .366 0 .549.184 1.097.366 1.462 1.283 2.194 2.75 1.828 1.283-.366 1.65-1.462 1.283-2.742-.183-.548-.366-.914-.366-1.096zM294.812 93.218l-1.1-3.656-3.3.914 1.1 4.021-1.1.366-1.467-5.301 9.351-2.559 1.467 5.118-1.101.365-1.1-3.838-2.933.914 1.1 3.656zM301.047 96.325l-4.217 1.096.184.366 5.133 2.01.367 1.463-5.317-2.376c.183 1.645-.55 2.376-1.65 3.29-.917.548-1.65 1.096-2.383 1.828l-.367-1.28a8.1 8.1 0 0 1 2.017-1.462c1.1-.731 1.833-1.645 1.283-3.107l-.183-.366-4.217 1.28-.367-1.097 9.351-2.56zM297.38 107.474l-3.3-.182-.367-1.28 10.267.548.367 1.463-8.434 5.849-.367-1.28 2.567-1.828zm1.833 2.742 2.384-1.645c.55-.366 1.1-.731 1.65-.914h-1.834l-2.933-.183zM300.131 129.225c.367 0 .55.183.917.183 1.1.183 2.566 0 3.483.548.367.183.55.366.733.731-.183-1.279.367-2.376 1.65-2.741.734-.183 1.651 0 2.201.365.733.366 1.1 1.28 1.466 2.559.184.731.367 1.645.367 2.376l-9.167 2.559-.367-1.279 4.034-1.097-.184-.914c-.183-.548-.366-.914-.916-1.279-.917-.366-2.2-.366-3.3-.366-.184 0-.551 0-.734-.183zm9.717 2.742c0-.183 0-.549-.183-1.097-.367-1.279-1.1-2.01-2.384-1.645-1.1.366-1.467 1.462-1.1 2.742.183.365.183.731.367 1.096zM312.782 137.633l-3.484 2.924c-.55.366-.917.731-1.467 1.097.55 0 1.1 0 1.834.183l4.4.365.367 1.28-5.317-.549c-1.467-.182-2.934-.365-4.034-.731-.916-.365-1.467-.914-1.833-1.827 0-.366-.184-.549-.184-.732l1.101-.182v.365c.366.914 1.466 1.28 2.2 1.462.183 0 .366 0 .55-.182l5.5-4.935zM314.798 146.589c.55.548 1.1 1.28 1.467 2.193.55 1.645 0 2.925-1.467 3.473-1.1.366-2.2-.183-2.75-1.279.184 1.279-.367 2.559-1.65 2.924-2.017.549-3.117-.914-3.667-2.559-.183-.914-.366-1.827 0-2.559h1.1c-.183.549-.183 1.463 0 2.194.367 1.462 1.284 2.01 2.384 1.645 1.467-.366 1.467-1.828 1.1-3.107l-.184-.549.917-.183.184.549c.366 1.279 1.466 2.01 2.383 1.645.917-.183 1.283-1.097.917-2.011-.184-.731-.734-1.279-1.1-1.828zM311.866 158.287l-3.3-.183-.367-1.279 10.267.548.367 1.462-8.434 5.849-.366-1.279 2.75-1.828zm1.833 2.925 2.384-1.645c.55-.366 1.1-.732 1.65-.914H315.9l-2.934-.183z"/><path stroke="#000" stroke-miterlimit="10" stroke-width=".75" d="M136.039 144.761h8.067v-.365h6.6v.365h8.068V130.87h-22.735zM158.225 46.426v14.805h-24.018V44.415h11.001v1.28h6.783v.731zM182.792 44.598v16.633h-24.567V46.426h6.783v-.731h6.784v-1.097zM90.937 44.598H75.17v16.816h15.767zM110.189 81.702h-21.45v16.816h21.45z"/><path stroke="#000" stroke-miterlimit="10" stroke-width=".75" d="M136.04 130.87h-19.435v13.526h19.435zM158.775 144.396h19.985v-8.408h.55v-5.118h-20.535zM63.803 115.151h11v12.429h8.434V98.518H63.803zM44.736 115.151H32.818v12.429h11.918zM217.812 178.576h-17.785v37.104h17.785z"/><path fill="#560300" d="M259.827 208.021h-33.552v17.729h33.552z"/><path stroke="#000" stroke-miterlimit="10" stroke-width=".75" d="m91.488 20.654 25.852 6.032h26.768V8.042h-52.62z"/><path stroke="#000" stroke-linecap="round" stroke-miterlimit="10" stroke-width=".438" d="M31.719 1.28h-.184v.182"/><path stroke="#000" stroke-dasharray="0.15 1.46" stroke-linecap="round" stroke-miterlimit="10" stroke-width=".438" d="M31.535 4.204v86.455"/><path stroke="#000" stroke-linecap="round" stroke-miterlimit="10" stroke-width=".438" d="M31.535 91.938v.183h-.183"/><path stroke="#000" stroke-dasharray="0.14 1.4" stroke-linecap="round" stroke-miterlimit="10" stroke-width=".438" d="M28.783 92.12H1.832"/><path stroke="#000" stroke-linecap="round" stroke-miterlimit="10" stroke-width=".438" d="M.55 92.12H.368v.184"/><path stroke="#000" stroke-dasharray="0.14 1.43" stroke-linecap="round" stroke-miterlimit="10" stroke-width=".438" d="M.367 94.863v53.188"/><path stroke="#000" stroke-linecap="round" stroke-miterlimit="10" stroke-width=".438" d="M.367 149.331v.183h.184"/><path stroke="#000" stroke-dasharray="0.15 1.47" stroke-linecap="round" stroke-miterlimit="10" stroke-width=".438" d="m3.117 149.696 275.014 27.235"/><path stroke="#000" stroke-linecap="round" stroke-miterlimit="10" stroke-width=".438" d="M279.414 177.113q.274 0 0 0Z"/><path stroke="#000" stroke-dasharray="0.15 1.46" stroke-linecap="round" stroke-miterlimit="10" stroke-width=".438" d="M279.231 174.372c-2.2-19.009-.917-141.654-86.355-173.093H33.002"/><ellipse cx="180.409" cy="169.802" fill="#000" rx=".402" ry=".4"/><path stroke="#000" stroke-dasharray="0.15 1.46" stroke-linecap="round" stroke-miterlimit="10" stroke-width=".438" d="M180.41 172.544v66.166"/><path stroke="#000" stroke-dasharray="0.14 1.45" stroke-linecap="round" stroke-miterlimit="10" stroke-width=".438" d="M183.158 240.172h95.155"/><path stroke="#000" stroke-linecap="round" stroke-miterlimit="10" stroke-width=".438" d="M279.598 240.172h.183"/><path stroke="#000" stroke-dasharray="0.14 1.44" stroke-linecap="round" stroke-miterlimit="10" stroke-width=".438" d="M279.781 237.431v-56.479"/><path stroke="#000" stroke-linecap="round" stroke-miterlimit="10" stroke-width=".438" d="M279.781 179.672v-.183M151.99 64.521h-.183"/><path stroke="#000" stroke-dasharray="0.15 1.47" stroke-linecap="round" stroke-miterlimit="10" stroke-width=".438" d="M149.241 64.521H34.652"/><path stroke="#000" stroke-linecap="round" stroke-miterlimit="10" stroke-width=".438" d="M33.367 64.521h-.183"/><ellipse cx="149.058" cy="3.838" fill="#000" rx=".402" ry=".4"/><path stroke="#000" stroke-dasharray="0.15 1.49" stroke-linecap="round" stroke-miterlimit="10" stroke-width=".438" d="M149.059 6.58v31.438"/><path stroke="#000" stroke-linecap="round" stroke-miterlimit="10" stroke-width=".438" d="M149.059 39.48v.183"/><path stroke="#000" stroke-dasharray="0.14 1.42" stroke-linecap="round" stroke-miterlimit="10" stroke-width=".438" d="M151.807 39.663h33.001"/><path stroke="#000" stroke-linecap="round" stroke-miterlimit="10" stroke-width=".438" d="M186.094 39.663h.183"/><path stroke="#000" stroke-dasharray="0.16 1.55" stroke-linecap="round" stroke-miterlimit="10" stroke-width=".438" d="M186.275 42.588v20.288"/><path stroke="#000" stroke-linecap="round" stroke-miterlimit="10" stroke-width=".438" d="M186.277 64.338v.183h-.183"/><path stroke="#000" stroke-dasharray="0.14 1.41" stroke-linecap="round" stroke-miterlimit="10" stroke-width=".438" d="M183.525 64.521h-30.068"/><path stroke="#000" stroke-dasharray="0.15 1.47" stroke-linecap="round" stroke-miterlimit="10" stroke-width=".438" d="m152.541 65.252-.184 1.463v37.104l.184 2.924h-.184v-.183c.917.549 2.201 1.28 3.301 2.559 2.016 2.194 2.933 4.387 3.3 5.667l.183 49.716"/><path fill="#1C1C1C" d="M238.162 77.864v10.784h-1.467V77.864zM14.117 114.054v10.784H12.65v-10.784zM17.967 114.054v10.784H16.5v-10.784zM41.068 26.138V36.92h-1.466V26.138zM44.92 26.138V36.92h-1.467V26.138zM48.77 26.138V36.92h-1.467V26.138z"/><path stroke="#000" stroke-miterlimit="10" stroke-width=".75" d="M237.978 38.2 206.81 9.506v-.183h-8.068v3.655h-42.535v9.688h3.117v9.321h32.451v5.85h9.901v9.321h21.268v6.215h6.05v-6.215h8.984zM241.279 129.773h-14.668v7.677h14.668z"/><path fill="#000" d="M66.736 18.095h.55v6.397h-.733v-5.3l-.917.73-.367-.547zM102.672 55.382c1.1-1.096 2.933-2.741 2.933-4.204 0-.548-.366-1.096-1.1-1.096-.55 0-1.1.365-1.1 1.096l-.733-.183c.183-.913.917-1.462 1.833-1.462 1.284 0 1.834.914 1.834 1.645 0 1.828-2.2 3.656-2.75 4.204h2.933v.731h-3.85zM121.557 18.278c0-.731.55-1.462 1.283-1.645-.55-.183-1.1-.731-1.1-1.462 0-1.097.917-1.645 2.017-1.645s2.017.73 2.017 1.645c0 .548-.367 1.28-1.101 1.462.734.183 1.284.731 1.284 1.645 0 1.097-.917 1.828-2.2 1.828-1.1-.183-2.2-.731-2.2-1.828m2.016-1.28c-.733 0-1.283.549-1.283 1.097 0 .549.55 1.097 1.283 1.097.917 0 1.284-.549 1.284-1.097 0-.731-.55-1.097-1.284-1.097m.367-.73c.55 0 1.1-.549 1.1-1.097 0-.731-.55-1.097-1.1-1.097s-1.1.366-1.1 1.097c0 .548.55 1.096 1.1 1.096M169.225 56.662l-.183-.549c1.467-.365 2.383-1.28 2.567-2.741-.184.548-.734.73-1.467.73-1.1 0-1.833-.913-1.833-2.01 0-1.28 1.1-2.01 2.016-2.01 1.467 0 2.2 1.096 2.2 2.376-.183 2.376-1.466 3.838-3.3 4.204m1.1-5.85c-.733 0-1.283.549-1.283 1.28s.55 1.28 1.283 1.28c.734 0 1.284-.549 1.284-.914 0-.914-.367-1.645-1.284-1.645M203.51 23.03h.55v6.397h-.734v-5.3l-.916.73-.367-.547zM205.344 28.514l.366-.549c.367.549.917.914 1.467.914.734 0 1.284-.548 1.284-1.097 0-.73-.55-1.096-1.284-1.096h-.55v-.731h.55c.55 0 1.1-.366 1.1-1.097 0-.548-.366-1.097-1.1-1.097-.55 0-1.1.366-1.283.731l-.367-.548c.367-.731.917-1.097 1.834-1.097 1.1 0 1.833.549 1.833 1.645 0 .732-.367 1.28-.917 1.463.734.182 1.284.73 1.284 1.462 0 1.097-.917 1.828-2.017 1.828-1.1.365-1.834 0-2.2-.731M71.137 92.852l.366-.548c.367.548.917.913 1.467.913.734 0 1.284-.548 1.284-1.096 0-.731-.55-1.097-1.284-1.097h-.55v-.731h.55c.55 0 1.1-.366 1.1-1.097 0-.548-.366-1.096-1.1-1.096-.55 0-1.1.365-1.283.73l-.367-.547c.367-.732.917-1.097 1.834-1.097 1.1 0 1.833.548 1.833 1.645 0 .73-.367 1.28-.917 1.462.734.183 1.284.731 1.284 1.462 0 1.097-.917 1.828-2.017 1.828-1.1.366-1.834 0-2.2-.731M125.773 92.304h-2.933v-.549l2.75-4.204h.917l-2.567 4.021h2.017v-1.827h.55v1.827h.916v.731h-.916v1.646h-.734zM198.928 87.551h.55v6.398h-.734v-5.301l-.916.731-.367-.548zM203.144 87.369c1.466 0 2.016 1.279 2.016 3.29 0 2.01-.55 3.29-2.016 3.29-1.467 0-2.017-1.28-2.017-3.29 0-1.828.55-3.29 2.017-3.29m0 5.849c.916 0 1.283-.914 1.283-2.56s-.367-2.558-1.283-2.558c-.917 0-1.284.913-1.284 2.559 0 1.645.367 2.558 1.284 2.558M250.996 110.947h.367v5.118h-.55v-4.387l-.733.548-.367-.548zM255.03 110.764l.183.366c-.917.183-1.833 1.097-2.017 2.193.184-.365.55-.731 1.284-.731.916 0 1.466.731 1.466 1.645 0 1.097-.733 1.645-1.65 1.645-1.1 0-1.833-.914-1.833-1.828.183-1.645 1.467-2.924 2.567-3.29m-.734 4.753c.55 0 .917-.549.917-1.097s-.367-1.097-1.1-1.097c-.55 0-.917.366-1.1.731.183.914.55 1.463 1.283 1.463M59.036 120.086h2.934v.731h-2.2l-.184 1.645h.55c1.1 0 2.017.731 2.017 2.011 0 1.279-.917 2.193-2.017 2.193-.733 0-1.467-.365-1.833-.914l.366-.548c.367.548.917.731 1.467.731.733 0 1.284-.548 1.284-1.279 0-.732-.55-1.28-1.65-1.28-.367 0-.734 0-1.1.183zM109.821 126.483l.367.549c-1.1.365-2.2 1.279-2.567 2.924.183-.548.733-.914 1.467-.914 1.1 0 1.833.731 1.833 2.011 0 1.279-.917 2.01-2.017 2.01-1.466 0-2.2-1.096-2.2-2.376-.183-2.193 1.65-3.838 3.117-4.204m-.917 5.849c.734 0 1.284-.548 1.284-1.279s-.367-1.28-1.284-1.28c-.733 0-1.283.549-1.283.914-.183.914.183 1.645 1.283 1.645M145.574 134.343h3.85v.548l-2.383 5.849h-.733l2.2-5.666h-2.934zM186.826 125.569h.55v6.398h-.733v-5.301l-.917.731-.367-.548zM190.31 125.569h.551v6.398h-.734v-5.301l-.917.731-.366-.548zM241.461 143.299h.55v6.397h-.733v-5.3l-.917.731-.367-.548zM243.479 149.148c1.1-1.097 2.933-2.742 2.933-4.204 0-.548-.367-1.097-1.1-1.097-.55 0-1.1.366-1.1 1.097l-.55-.183c.183-.914.917-1.462 1.833-1.462 1.284 0 1.834.914 1.834 1.645 0 1.828-2.2 3.656-2.75 4.204h2.933v.731h-3.85zM9.167 131.601h1.65c-.184-.731-.734-.914-1.467-.914-.367 0-.55.183-.917.366l-.183-.549c.183-.182.733-.365 1.283-.365 1.1 0 2.017.731 2.017 2.01 0 1.28-.733 2.011-2.017 2.011-.55 0-1.1-.183-1.283-.365l.367-.549c.183.183.55.366.916.366.734 0 1.284-.366 1.284-1.097h-1.65zM11.734 129.956h3.117v.549h-1.283v3.29h-.55v-3.29h-1.284zM16.316 129.956h.55l1.65 3.839h-.733l-.367-.914h-1.65l-.367.914h-.733zm-.367 2.376h1.1l-.55-1.462zM21.45 130.687H19.8v3.29h-.734v-3.838h3.117v3.838h-.733zM230.829 95.228h1.65c-.183-.731-.733-.914-1.467-.914-.367 0-.55.183-.917.366l-.183-.549c.183-.182.733-.365 1.284-.365 1.1 0 2.016.731 2.016 2.01 0 1.28-.733 2.011-2.016 2.011-.551 0-1.101-.183-1.284-.366l.367-.548c.183.183.55.366.917.366.733 0 1.283-.366 1.283-1.097h-1.65zM233.394 93.583h3.117v.549h-1.283v3.29h-.734v-3.29h-1.283zM237.795 93.583h.55l1.65 3.838h-.734l-.366-.913h-1.65l-.367.913h-.733zm-.184 2.194h1.1l-.55-1.28zM243.112 94.132h-1.65v3.29h-.733v-3.839h3.116v3.838h-.733zM37.768 43.319h1.65c-.183-.731-.733-.914-1.466-.914-.367 0-.55.183-.917.365l-.183-.73c.183-.184.733-.366 1.283-.366 1.1 0 2.017.73 2.017 2.01s-.734 2.01-2.017 2.01c-.55 0-1.1-.182-1.283-.365l.366-.548c.184.183.55.366.917.366.733 0 1.283-.366 1.283-1.097h-1.65zM40.336 41.674h3.117v.548h-1.284v3.29h-.733v-3.29h-1.1zM44.918 41.674h.55l1.65 3.838h-.734l-.366-.914h-1.65l-.367.914h-.733zm-.367 2.193h1.1l-.55-1.28zM50.051 42.405h-1.65v3.29h-.733v-3.839h3.117v3.839h-.734z"/><path stroke="#000" stroke-miterlimit="10" stroke-width=".75" d="M226.611 196.624h-8.8v15.283h8.8z"/><path fill="#fff" d="M241.244 214.309h.55v6.397h-.733v-5.3l-.917.731-.367-.549z"/><path fill="#000" d="M210.935 197.447h-2.933v-.549l2.75-4.204h.917l-2.567 4.021h2.017v-1.827h.55v1.827h.917v.732h-.917v1.645h-.734z"/><path fill="#fff" d="M243.954 214.218h2.934v.731h-2.201l-.183 1.645h.55c1.1 0 2.017.731 2.017 2.01 0 1.28-.917 2.194-2.017 2.194-.733 0-1.467-.366-1.833-.914l.366-.549c.367.549.917.731 1.467.731.733 0 1.284-.548 1.284-1.279s-.551-1.279-1.651-1.279c-.366 0-.733 0-1.1.182z"/><path fill="#000" d="M206.504 192.694h.55v6.398h-.733v-5.301l-.917.731-.367-.548z"/></svg>