<svg width="340" height="215" viewBox="0 0 340 215" fill="none" xmlns="http://www.w3.org/2000/svg">
<g clip-path="url(#clip0_284_9140)">
<mask id="mask0_284_9140" style="mask-type:luminance" maskUnits="userSpaceOnUse" x="0" y="0" width="340" height="215">
<path d="M20.7428 108.081V0H340V215H5.15576V169.564L0 165.254V108.081H20.7428Z" fill="white"/>
</mask>
<g mask="url(#mask0_284_9140)">
<path d="M332.677 36.1387V87.5144M332.677 36.1387H330.2H318.521V87.5144H330.2H332.677M332.677 36.1387H339.753V87.5144H332.677M332.677 135.78V187.158M332.677 135.78H330.2H318.521V187.158H330.2H332.677M332.677 135.78H339.753V187.158H332.677M38.21 203.25H32.5474H29.007C22.8312 203.248 16.7645 201.62 11.415 198.53L29.007 168.019H32.5474H38.21M72.6249 75.1848V76.9573V80.4996C72.6273 85.485 71.3165 90.3828 68.8249 94.6991L44.2671 80.4996V76.9573V75.1848" stroke="#3A3838" stroke-width="0.184" stroke-linecap="round" stroke-linejoin="round"/>
<path fill-rule="evenodd" clip-rule="evenodd" d="M318.52 205.788H38.2073V203.25H29.0068V217.367H38.2098V215H83.2983V217.125H126.16V215H318.52V233.799H339.753V187.158H318.52V205.788Z" fill="#3A3838" stroke="#3A3838" stroke-width="0.2" stroke-miterlimit="10"/>
<path d="M318.521 87.5144H339.753V135.78H318.521V87.5144Z" fill="#3A3838" stroke="#3A3838" stroke-width="0.2" stroke-miterlimit="10"/>
<path fill-rule="evenodd" clip-rule="evenodd" d="M318.521 7.62939e-06H117.079V-70.4251H74.515V-65.1103H111.771V7.62939e-06H28.1731V-65.1103H46.1571V-70.4251H38.0327V-74.325H0V165.254H29.007V168.017H38.21V156.042H9.20045V115.521H28.1731V80.4997H44.2671V75.1848H28.1731V9.21218H83.2985V11.3371H111.771V75.1848H72.6249V80.4997H117.079V11.3371H126.16V9.21218H318.521V36.1387H339.753V-31.6489H318.521V7.62939e-06ZM20.7428 -65.1103V1.76241H9.20045V-65.1103H20.7428ZM20.7428 9.2047V71.5225H9.20045V9.2047H20.7428ZM9.20045 108.081V78.9622H20.7428V108.081H9.20045Z" fill="#3A3838" stroke="#3A3838" stroke-width="0.2" stroke-miterlimit="10"/>
<path d="M188.706 122.113H190.037V123.111H188.706V125.338H187.483V123.111H183.113V122.393L187.408 115.736H188.706V122.113ZM184.499 122.113H187.48V117.403L187.335 117.668L184.499 122.113ZM197.122 121.246C197.122 122.671 196.88 123.736 196.393 124.428C195.904 125.123 195.145 125.471 194.106 125.471C193.083 125.471 192.326 125.131 191.834 124.453C191.343 123.771 191.088 122.758 191.07 121.408V119.781C191.07 118.368 191.315 117.318 191.802 116.631C192.289 115.943 193.05 115.606 194.094 115.606C195.125 115.606 195.887 115.936 196.371 116.596C196.86 117.261 197.11 118.281 197.122 119.661V121.246ZM195.904 119.576C195.904 118.541 195.759 117.791 195.47 117.316C195.18 116.841 194.721 116.608 194.094 116.608C193.47 116.608 193.015 116.843 192.731 117.313C192.446 117.783 192.299 118.508 192.289 119.481V121.436C192.289 122.473 192.439 123.238 192.738 123.733C192.876 123.97 193.077 124.165 193.318 124.296C193.56 124.427 193.832 124.489 194.106 124.476C194.708 124.476 195.155 124.243 195.447 123.776C195.739 123.311 195.892 122.576 195.904 121.576V119.576ZM198.77 127.25L198.079 126.775C198.491 126.201 198.708 125.608 198.723 124.998V123.893H199.916V124.851C199.916 125.295 199.806 125.738 199.592 126.183C199.398 126.595 199.117 126.959 198.768 127.25H198.77ZM206.001 121.118C205.746 121.418 205.442 121.666 205.089 121.851C204.737 122.036 204.348 122.126 203.926 122.126C203.413 122.139 202.909 121.997 202.478 121.718C202.059 121.433 201.73 121.034 201.529 120.568C201.3 120.052 201.185 119.493 201.192 118.928C201.192 118.286 201.314 117.708 201.559 117.193C201.804 116.678 202.148 116.286 202.595 116.013C203.07 115.735 203.613 115.594 204.163 115.606C205.112 115.606 205.861 115.958 206.405 116.668C206.955 117.381 207.227 118.348 207.227 119.576V119.931C207.227 121.798 206.857 123.163 206.118 124.023C205.379 124.883 204.271 125.323 202.78 125.348H202.543V124.311H202.8C203.806 124.291 204.578 124.031 205.117 123.523C205.659 123.018 205.951 122.213 206.001 121.118ZM204.123 121.118C204.533 121.118 204.907 120.993 205.254 120.743C205.587 120.508 205.847 120.186 206.006 119.811V119.323C206.006 118.523 205.834 117.873 205.486 117.373C205.139 116.873 204.7 116.621 204.171 116.621C203.922 116.613 203.674 116.665 203.449 116.772C203.224 116.88 203.028 117.04 202.877 117.238C202.553 117.648 202.393 118.188 202.393 118.863C202.393 119.518 202.548 120.058 202.862 120.483C203.004 120.685 203.193 120.848 203.413 120.959C203.633 121.07 203.877 121.125 204.123 121.118ZM64.6708 47.3157H66.0016V48.3132H64.6708V50.5406H63.4474V48.3132H59.0781V47.5957L63.3725 40.9409H64.6708V47.3157ZM60.4613 47.3157H63.4449V42.6059L63.3001 42.8709L60.4613 47.3157ZM67.1875 52.453L66.4959 51.9781C66.8859 51.4648 67.1106 50.8449 67.14 50.2006V49.0957H68.3335V50.0531C68.3335 50.4981 68.2236 50.9406 68.0089 51.3856C67.8152 51.7972 67.534 52.1615 67.185 52.453H67.1875ZM74.8924 47.3157H76.2232V48.3132H74.8924V50.5406H73.669V48.3132H69.2997V47.5957L73.5941 40.9409H74.8924V47.3157ZM70.6854 47.3157H73.6665V42.6059L73.5217 42.8709L70.6854 47.3157Z" fill="#3A3838"/>
</g>
</g>
<defs>
<clipPath id="clip0_284_9140">
<rect width="340" height="215" fill="white"/>
</clipPath>
</defs>
</svg>
