<svg xmlns="http://www.w3.org/2000/svg" width="683" height="447" fill="none"><path stroke="#3A3838" stroke-linecap="round" stroke-linejoin="round" stroke-width=".184" d="M11.369 135.83V51.953m0 83.877h22.389000000000003V51.953h-22.39m0 83.877H.172V51.953h11.197m0 219.399v-83.877m0 83.877h22.389000000000003v-83.877h-22.39m0 83.877H.172v-83.877h11.196M478.818 40.289h14.554c9.775 0 19.368 2.661 27.832 7.706l-27.832 49.817h-14.554m-93.29 59.608c7.872-.001 15.605-2.14 22.425-6.203l-22.425-40.157h-8.397m8.397 46.356h-8.397M585.412 446.688H46.756v-6.947h538.656m-75.37-60.159 66.426-30.39-2.275-5.29m-64.151 35.68-2.259-5.286m2.259 5.286-3.164-7.404m62.56-39.381-66.414 30.39m0 0 3.167 7.408 1.592 3.701m-4.759-11.109 2.263 5.289 1.587 3.702m67.319-28.276-66.41 30.394m66.41-30.394-1.58-3.701-3.179-7.404m-64.151 35.679c-4.467-10.423-11.509-19.449-20.419-26.17l-37.046 52.467m0 0 1.591 3.701 3.168 7.404m-4.759-11.105-2.259-5.286m-131.964-56.066 127.449 56.527-3.088 7.437m-1.556 3.726-127.438-56.527M436.4 401.111l1.556-3.722m-1.556 3.722-2.204 5.314-127.438-56.519 2.204-5.322m0 0 1.544-3.722m.004-.004 3.089-7.437m-79.144 46.557 66.873-29.329-2.184-5.322m-64.689 34.651-2.18-5.322 66.869-29.329m-64.689 34.651-3.053-7.453-1.536-3.738m-2.18-5.319 66.856-29.328 3.069 7.46 1.533 3.727m-71.458 18.141 3.053 7.461 1.532 3.723m-4.585-11.184 2.18 5.319m0 0c-4.311-10.491-11.219-19.624-20.028-26.481l-37.816 51.867m0 0 1.52 3.722 3.069 7.452m-4.589-11.174-2.192-5.335m-8.132 11.697L51.053 354.742m110.645 45.793 1.457-3.763 2.911-7.509-110.633-45.789-2.923 7.522-1.457 3.746m110.645 45.793-2.082 5.38-110.645-45.793 2.082-5.38"/><path fill="#3A3838" stroke="#3A3838" stroke-miterlimit="10" stroke-width=".2" d="M33.756 135.83v51.646H.169V135.83z"/><path fill="#3A3838" fill-rule="evenodd" d="M86.49 35.396v-4.257h130.807v123.2h6.161v25.362h162.071v-22.285h-8.397v13.608H231.851V64.712h108.843V31.14h36.438v79.921h8.397V31.139h93.291v9.15h14.553V13.834H478.82v5.159H33.76V.259H.174v51.695H33.76V35.396zm145.361 20.64v-20.64h100.447v20.64zm450.434 86.541V97.192h-14.554v6.787H493.373v-6.163H478.82v44.76l94.215.001v188.575l-3.595 1.645 7.031 16.391 1.757-.8v91.353h5.6v-93.263l1.959.93 4.594-10.297h.008v-.012l2.661-5.967-2.661-1.274V142.577h91.904zm-188.912-12.151v-17.77h79.662v17.77zm97.012-17.77h77.346v17.77h-77.346zM452.579 405.878l-7.018-16.391-2.733 1.249-1.777-.788-6.853 16.477 8.729 3.877zm-138.978-72.457-8.653-3.84-10.403 4.559 6.785 16.509 3.57-1.563 1.856.82zM48.974 360.122l6.461-16.648-21.675-8.967v-63.155H.174v175.336h46.584v-87.485zm110.645 45.793 8.084 3.342 8.91-3.91-6.785-16.509-2.318 1.02-1.442-.591z" clip-rule="evenodd"/><path stroke="#3A3838" stroke-miterlimit="10" stroke-width=".2" d="m33.76 353.82 3.662 1.514M86.49 35.396v-4.257h130.807v123.2h6.161v25.362h162.071v-22.285h-8.397v13.608H231.851V64.712h108.843V31.14h36.438v79.921h8.397V31.139h93.291v9.15h14.553V13.834H478.82v5.159H33.76V.259H.174v51.695H33.76V35.396zm145.361 20.64v-20.64h100.447v20.64zm450.434 86.541V97.192h-14.554v6.787H493.373v-6.163H478.82v44.761h94.215v188.575l-3.595 1.645 7.031 16.391 1.757-.8v91.353h5.6v-93.263l1.959.93 4.594-10.297h.008v-.012l2.661-5.967-2.661-1.274V142.577h91.904zm-188.912-12.151v-17.77h79.662v17.77zm97.012-17.77h77.346v17.77h-77.346zM452.579 405.878l-7.018-16.391-2.733 1.249-1.777-.788-6.853 16.477 8.729 3.877zm-138.978-72.457-8.653-3.84-10.403 4.559 6.785 16.509 3.57-1.563 1.856.82zM48.974 360.122l6.461-16.648-21.675-8.967v-63.155H.174v175.336h46.584v-87.485zm110.645 45.793 8.084 3.342 8.91-3.91-6.785-16.509-2.318 1.02-1.442-.591z"/><path fill="#3A3838" d="M295.227 396.982c-.41.482-.916.877-1.487 1.163a4.1 4.1 0 0 1-1.893.44q-1.347 0-2.352-.651a4.25 4.25 0 0 1-1.544-1.825 6.1 6.1 0 0 1-.548-2.599q.001-1.529.593-2.754c.398-.817.963-1.444 1.686-1.872.731-.437 1.58-.651 2.551-.651q2.317 0 3.652 1.69 1.331 1.69 1.333 4.611v.563q-.002 4.45-1.8 6.496c-1.202 1.365-3.006 2.063-5.436 2.103h-.381v-1.647h.414q2.46-.043 3.774-1.246c.882-.805 1.357-2.079 1.438-3.821m-3.055 0q.998 0 1.836-.595a3.5 3.5 0 0 0 1.227-1.476v-.774c0-1.27-.28-2.305-.849-3.099q-.842-1.19-2.141-1.19a2.6 2.6 0 0 0-1.169.24 2.5 2.5 0 0 0-.927.736q-.797.978-.796 2.579 0 1.56.768 2.571c.511.675 1.194 1.008 2.051 1.008m7.918 9.737-1.129-.754c.674-.912 1.023-1.857 1.056-2.825v-1.746h1.938v1.512q-.001 1.06-.533 2.115-.529 1.055-1.332 1.698m13.95-9.535c0 2.262-.394 3.953-1.19 5.052q-1.188 1.654-3.717 1.654-2.498 0-3.697-1.615c-.8-1.075-1.215-2.69-1.239-4.833v-2.583q-.001-3.362 1.186-4.991 1.188-1.636 3.729-1.635c1.682 0 2.913.528 3.71 1.575.796 1.048 1.198 2.671 1.218 4.861zm-1.982-2.65q0-2.457-.707-3.587c-.471-.746-1.219-1.123-2.234-1.123q-1.526 0-2.223 1.119-.694 1.12-.719 3.448v3.095q0 2.47.732 3.647c.225.376.551.685.944.893s.836.307 1.282.285c.983 0 1.706-.369 2.181-1.111.476-.738.724-1.905.744-3.492zM183.391 237.311l1.129.754c.537-.429.979-.992 1.333-1.698.353-.707.532-1.409.532-2.115v-1.516h-1.938v1.746a5 5 0 0 1-1.056 2.829"/><path fill="#3A3838" fill-rule="evenodd" d="M180.426 229.907h2.161v1.583h-2.161v3.536h-1.995v-3.536h-7.109v-1.143l6.987-10.562h2.117zm-1.995 0h-4.859l4.623-7.051.236-.421zM198.471 228.53c0 2.262-.394 3.952-1.19 5.051q-1.19 1.655-3.718 1.655-2.497-.001-3.696-1.615c-.801-1.075-1.215-2.69-1.239-4.833v-2.583q0-3.362 1.182-4.992 1.192-1.636 3.737-1.635c1.678 0 2.909.524 3.705 1.576.796 1.051 1.199 2.67 1.219 4.86zm-2.689-6.237c.471.753.706 1.944.706 3.586v3.175c-.02 1.587-.268 2.754-.743 3.492-.475.742-1.198 1.111-2.182 1.111a2.5 2.5 0 0 1-1.282-.285 2.4 2.4 0 0 1-.944-.894q-.73-1.177-.731-3.65v-3.095q.024-2.323.719-3.444c.463-.746 1.207-1.119 2.222-1.119q1.525.002 2.235 1.123M168.145 229.907h2.165v1.583h-2.165v3.536h-1.991v-3.536h-7.109v-1.143l6.987-10.562h2.113zm-1.995 0h-4.854l4.623-7.051.231-.421z" clip-rule="evenodd"/><path fill="#3A3838" d="m286.62 107.112-.792 7.599v.004l1.589.397.528-.417c.487-.369 1.17-.555 2.031-.555.424-.019.847.055 1.239.214.392.16.743.403 1.028.71q.853.928.853 2.452c0 1.08-.26 1.933-.788 2.548a2.7 2.7 0 0 1-.977.706 2.7 2.7 0 0 1-1.197.21q-1.256-.001-2.031-.662-.773-.66-.955-1.968h-1.877c.126 1.313.622 2.349 1.487 3.094q1.31 1.119 3.38 1.119c1.556 0 2.771-.448 3.636-1.357q1.304-1.352 1.304-3.706 0-2.352-1.251-3.722c-.837-.916-1.97-1.38-3.392-1.38q-1.452.001-2.6.662l.467-4.158h6.313v-1.79zM296.252 124.639l1.13.754c.536-.429.979-.992 1.332-1.699.354-.706.532-1.408.532-2.115v-1.515h-1.937v1.746a5 5 0 0 1-1.057 2.829M306.075 122.353h1.991v-15.312h-.313l-5.679 2.083v1.762l4.001-1.436z"/></svg>