<svg width="220" height="162" viewBox="0 0 220 162" fill="none" xmlns="http://www.w3.org/2000/svg">
<mask id="mask0_461_718" style="mask-type:luminance" maskUnits="userSpaceOnUse" x="0" y="0" width="220" height="162">
<path d="M185.876 42.3921L219.957 42.3921L219.957 161.533L0.0390707 161.533L0.0390778 0.466665L198.837 0.466674L198.837 30.1215L185.877 30.1215L185.876 42.3921Z" fill="white"/>
</mask>
<g mask="url(#mask0_461_718)">
<path d="M4.26026 44.4251L4.26026 12.8678M4.26026 44.4251L5.73651 44.4251L12.6966 44.4251L12.6966 12.8678L5.73651 12.8678L4.26026 12.8678M4.26026 44.4251L0.0413871 44.4251L0.0413884 12.8678L4.26026 12.8678M4.26026 95.4135L4.26026 63.8561M4.26026 95.4135L5.73651 95.4135L12.6966 95.4135L12.6966 63.8561L5.73651 63.8561L4.26026 63.8561M4.26026 95.4135L0.0413848 95.4135L0.0413862 63.8561L4.26026 63.8561M180.393 8.47913L183.768 8.47913L185.876 8.47913C189.559 8.47913 193.174 9.48031 196.363 11.3783L185.876 30.1214L183.768 30.1214L180.393 30.1214M145.241 52.5482C148.207 52.5477 151.121 51.7429 153.691 50.2142L145.241 35.1058L143.132 35.1058L142.077 35.1058M145.241 52.5467L143.132 52.5467L142.077 52.5467" stroke="#3A3838" stroke-width="0.184" stroke-linecap="round" stroke-linejoin="round"/>
<path fill-rule="evenodd" clip-rule="evenodd" d="M17.5931 161.381L17.5931 158.768L419.891 158.768L419.891 161.38L17.5931 161.381Z" fill="white"/>
<path d="M419.891 161.381L17.5931 161.381L17.5931 158.768L419.891 158.768M192.157 136.134L217.186 124.7L216.329 122.71M192.157 136.134L191.306 134.145M192.157 136.134L190.965 133.348M214.537 118.531L189.513 129.965M189.513 129.965L190.706 132.752L191.306 134.145M189.513 129.965L190.365 131.955L190.963 133.348M216.329 122.71L191.306 134.145M216.329 122.71L215.734 121.317L214.536 118.531M190.364 131.955C188.681 128.034 186.027 124.638 182.67 122.109L168.711 141.849M168.711 141.849L169.311 143.242L170.504 146.027M168.711 141.849L167.86 139.86M118.137 118.766L166.159 140.034L164.995 142.832M164.409 144.234L116.391 122.966M164.409 144.234L164.995 142.833M164.409 144.234L163.579 146.233L115.561 124.968L116.391 122.966M116.391 122.966L116.973 121.566M116.974 121.564L118.138 118.766M88.3172 136.283L113.514 125.248L112.692 123.246M88.3172 136.283L87.4957 134.28L112.692 123.246M88.3172 136.283L87.1669 133.479L86.588 132.072M85.7665 130.071L110.958 119.037L112.114 121.844L112.692 123.246M85.7665 130.071L86.9169 132.878L87.4943 134.279M85.7665 130.071L86.588 132.072M86.588 132.072C84.9636 128.125 82.3609 124.689 79.0416 122.109L64.7926 141.623M64.7926 141.623L65.3655 143.024L66.5218 145.828M64.7926 141.623L63.9667 139.616M60.9026 144.017L19.2122 126.788M60.9026 144.017L61.4517 142.601L62.5485 139.776L20.8626 122.548L19.7613 125.379L19.2122 126.788M60.9026 144.017L60.1183 146.041L18.428 128.812L19.2122 126.788" stroke="#3A3838" stroke-width="0.184" stroke-linecap="round" stroke-linejoin="round"/>
<path d="M12.6953 44.4252L12.6953 63.8562L0.0401364 63.8562L0.0401373 44.4252L12.6953 44.4252Z" fill="#3A3838" stroke="#3A3838" stroke-width="0.2" stroke-miterlimit="10"/>
<path fill-rule="evenodd" clip-rule="evenodd" d="M32.5631 6.638L32.5631 5.03641L81.8504 5.03641L81.8504 51.3889L84.1719 51.3889L84.1719 60.9309L145.239 60.9309L145.239 52.5467L142.076 52.5467L142.076 57.6663L87.3342 57.6663L87.3342 17.6679L128.346 17.6679L128.346 5.03641L142.076 5.03641L142.076 35.1058L145.239 35.1058L145.239 5.03641L180.391 5.03641L180.391 8.4791L185.875 8.4791L185.875 -1.4744L180.391 -1.4744L180.391 0.466558L12.6949 0.466551L12.6949 -6.58168L0.0397034 -6.58168L0.0397025 12.8677L12.6949 12.8677L12.6949 6.638L32.5631 6.638ZM87.3342 14.4033L87.3342 6.638L125.182 6.638L125.182 14.4033L87.3342 14.4033ZM257.056 46.9634L257.056 29.8879L251.572 29.8879L251.572 32.4416L185.875 32.4416L185.875 30.1229L180.391 30.1229L180.391 46.9634L215.891 46.9634L215.891 117.913L214.536 118.531L217.185 124.698L217.847 124.397L217.847 158.768L219.958 158.768L219.958 123.679L220.696 124.029L222.427 120.154L222.429 120.154L222.429 120.15L223.432 117.905L222.429 117.426L222.429 46.9634L257.059 46.9634L257.056 46.9634ZM185.875 42.392L185.875 35.7062L215.891 35.7062L215.891 42.392L185.875 42.392ZM222.428 35.7062L251.572 35.7062L251.572 42.392L222.428 42.392L222.428 35.7062ZM170.504 146.027L167.859 139.86L166.829 140.33L166.16 140.034L163.578 146.233L166.867 147.692L170.504 146.027ZM118.137 118.766L114.877 117.321L110.957 119.037L113.514 125.248L114.859 124.66L115.558 124.968L118.137 118.766ZM18.4272 128.812L20.8618 122.548L12.6949 119.175L12.6949 95.4135L0.0396989 95.4135L0.039696 161.381L17.5923 161.381L17.5923 128.466L18.4272 128.812ZM60.1176 146.041L63.1638 147.299L66.5211 145.828L63.9644 139.616L63.0909 140L62.5477 139.777L60.1176 146.041Z" fill="#3A3838"/>
<path d="M12.6949 126.441L14.0744 127.011M32.5631 6.638L32.5631 5.03641L81.8504 5.03641L81.8504 51.3889L84.1719 51.3889L84.1719 60.9309L145.239 60.9309L145.239 52.5467L142.076 52.5467L142.076 57.6663L87.3342 57.6663L87.3342 17.6679L128.346 17.6679L128.346 5.03641L142.076 5.03641L142.076 35.1058L145.239 35.1058L145.239 5.03641L180.391 5.03641L180.391 8.4791L185.875 8.4791L185.875 -1.4744L180.391 -1.4744L180.391 0.466558L12.6949 0.466551L12.6949 -6.58168L0.0397094 -6.58168L0.0397086 12.8677L12.6949 12.8677L12.6949 6.638L32.5631 6.638ZM87.3342 14.4033L87.3342 6.638L125.182 6.638L125.182 14.4033L87.3342 14.4033ZM257.056 46.9634L257.056 29.8879L251.572 29.8879L251.572 32.4416L185.875 32.4416L185.875 30.1229L180.391 30.1229L180.391 46.9634L215.891 46.9634L215.891 117.913L214.536 118.531L217.185 124.698L217.847 124.397L217.847 158.768L219.958 158.768L219.958 123.679L220.696 124.029L222.427 120.154L222.429 120.154L222.429 120.15L223.432 117.905L222.429 117.426L222.429 46.9634L257.059 46.9634L257.056 46.9634ZM185.875 42.392L185.875 35.7062L215.891 35.7062L215.891 42.392L185.875 42.392ZM222.428 35.7062L251.572 35.7062L251.572 42.392L222.428 42.392L222.428 35.7062ZM170.504 146.027L167.859 139.86L166.829 140.33L166.16 140.034L163.578 146.233L166.867 147.692L170.504 146.027ZM118.137 118.766L114.877 117.321L110.957 119.037L113.514 125.248L114.859 124.66L115.558 124.968L118.137 118.766ZM18.4272 128.812L20.8618 122.548L12.6949 119.175L12.6949 95.4135L0.039705 95.4135L0.0397021 161.381L17.5923 161.381L17.5923 128.466L18.4272 128.812ZM60.1176 146.041L63.1638 147.299L66.5211 145.828L63.9644 139.616L63.0909 140L62.5477 139.777L60.1176 146.041Z" stroke="#3A3838" stroke-width="0.2" stroke-miterlimit="10"/>
<path d="M111.214 142.68C111.059 142.861 110.869 143.01 110.654 143.118C110.433 143.229 110.188 143.286 109.94 143.283C109.602 143.283 109.307 143.201 109.054 143.039C108.797 142.868 108.595 142.63 108.472 142.352C108.332 142.044 108.262 141.711 108.266 141.374C108.266 140.99 108.341 140.645 108.489 140.338C108.639 140.03 108.852 139.794 109.125 139.633C109.4 139.469 109.72 139.388 110.086 139.388C110.667 139.388 111.127 139.6 111.462 140.024C111.796 140.448 111.964 141.026 111.964 141.759L111.964 141.971C111.964 143.088 111.737 143.901 111.286 144.415C110.833 144.928 110.153 145.191 109.238 145.206L109.094 145.206L109.094 144.587L109.25 144.587C109.868 144.576 110.341 144.419 110.672 144.118C111.004 143.815 111.183 143.336 111.214 142.68ZM110.063 142.68C110.314 142.68 110.543 142.606 110.755 142.456C110.958 142.316 111.118 142.124 111.217 141.901L111.217 141.61C111.217 141.132 111.111 140.742 110.897 140.444C110.686 140.145 110.416 139.996 110.09 139.996C109.938 139.991 109.787 140.022 109.65 140.086C109.512 140.15 109.393 140.245 109.301 140.363C109.1 140.608 109 140.932 109 141.334C109 141.725 109.097 142.047 109.29 142.301C109.483 142.555 109.74 142.68 110.063 142.68ZM113.046 146.344L112.621 146.06C112.875 145.717 113.006 145.361 113.019 144.997L113.019 144.34L113.749 144.34L113.749 144.909C113.749 145.175 113.681 145.441 113.548 145.705C113.415 145.969 113.248 146.182 113.046 146.344ZM118.303 142.756C118.303 143.607 118.154 144.243 117.854 144.657C117.556 145.072 117.089 145.279 116.454 145.279C115.826 145.279 115.362 145.076 115.061 144.672C114.759 144.267 114.603 143.66 114.594 142.853L114.594 141.882C114.594 141.038 114.742 140.413 115.041 140.003C115.339 139.593 115.808 139.388 116.446 139.388C117.08 139.388 117.543 139.587 117.843 139.981C118.143 140.375 118.295 140.986 118.303 141.81L118.303 142.756ZM117.556 141.759C117.556 141.143 117.467 140.693 117.289 140.41C117.112 140.129 116.83 139.987 116.447 139.987C116.065 139.987 115.785 140.127 115.61 140.408C115.436 140.689 115.345 141.122 115.339 141.705L115.339 142.87C115.339 143.489 115.431 143.946 115.615 144.242C115.699 144.384 115.822 144.5 115.97 144.578C116.118 144.656 116.285 144.693 116.454 144.685C116.824 144.685 117.096 144.546 117.275 144.267C117.455 143.989 117.548 143.551 117.556 142.953L117.556 141.759Z" fill="#3A3838"/>
<path d="M69.0759 82.6061L69.5014 82.8897C69.7034 82.7285 69.8703 82.5165 70.0035 82.2508C70.1366 81.985 70.204 81.7208 70.204 81.4551L70.204 80.8848L69.4739 80.8848L69.4739 81.5417C69.4546 81.9276 69.3158 82.2987 69.0759 82.6061Z" fill="#3A3838"/>
<path fill-rule="evenodd" clip-rule="evenodd" d="M67.9584 79.8204L68.7728 79.8204L68.7728 80.416L67.9584 80.416L67.9584 81.7462L67.2069 81.7462L67.2069 80.416L64.5281 80.416L64.5281 79.9861L67.161 76.0121L67.9584 76.0121L67.9584 79.8204ZM67.2069 79.8204L65.3762 79.8204L67.1181 77.1676L67.2069 77.0093L67.2069 79.8204Z" fill="#3A3838"/>
<path fill-rule="evenodd" clip-rule="evenodd" d="M74.7579 79.3024C74.7579 80.1533 74.6094 80.7893 74.3094 81.2028C74.0109 81.6178 73.544 81.8253 72.9088 81.8253C72.2812 81.8253 71.8174 81.6223 71.5158 81.2177C71.2143 80.8131 71.0581 80.2055 71.049 79.3994L71.049 78.4275C71.049 77.5841 71.1974 76.9586 71.4944 76.5495C71.7944 76.139 72.2628 75.9344 72.9026 75.9344C73.5348 75.9344 73.9986 76.1315 74.2986 76.5271C74.5986 76.9227 74.7502 77.5318 74.7579 78.3559L74.7579 79.3024ZM73.7445 76.9556C73.9221 77.2392 74.0109 77.6871 74.0109 78.3051L74.0109 79.4994C74.0032 80.0966 73.9098 80.5355 73.7307 80.8131C73.5516 81.0923 73.2792 81.2311 72.9088 81.2311C72.7407 81.2393 72.5736 81.2022 72.4257 81.124C72.2778 81.0458 72.1547 80.9295 72.0699 80.7878C71.8862 80.4922 71.7944 80.0354 71.7944 79.4143L71.7944 78.2499C71.8005 77.6677 71.8908 77.2347 72.0653 76.9541C72.2398 76.6734 72.52 76.5331 72.9026 76.5331C73.2853 76.5331 73.5669 76.6749 73.7445 76.9556Z" fill="#3A3838"/>
<path fill-rule="evenodd" clip-rule="evenodd" d="M63.3312 79.8204L64.147 79.8204L64.147 80.416L63.3312 80.416L63.3312 81.7462L62.5811 81.7462L62.5811 80.416L59.9023 80.416L59.9023 79.9861L62.5352 76.0121L63.3312 76.0121L63.3312 79.8204ZM62.5796 79.8204L60.7504 79.8204L62.4923 77.1676L62.5796 77.0093L62.5796 79.8204Z" fill="#3A3838"/>
<path d="M107.973 33.6206L107.675 36.4795L107.675 36.481L108.273 36.6302L108.472 36.4735C108.656 36.3347 108.913 36.2645 109.237 36.2645C109.397 36.2576 109.557 36.2852 109.704 36.3453C109.852 36.4054 109.984 36.4966 110.092 36.6123C110.306 36.8452 110.413 37.1527 110.413 37.5349C110.413 37.941 110.315 38.2619 110.116 38.4933C110.016 38.6083 109.89 38.6992 109.748 38.759C109.606 38.8188 109.452 38.8459 109.297 38.8382C108.982 38.8382 108.726 38.7546 108.532 38.5889C108.337 38.4232 108.218 38.1769 108.172 37.8484L107.465 37.8484C107.512 38.3426 107.699 38.7322 108.025 39.0129C108.354 39.2935 108.778 39.4339 109.299 39.4339C109.885 39.4339 110.343 39.2652 110.669 38.9233C110.996 38.5844 111.16 38.1186 111.16 37.529C111.16 36.9393 111.002 36.472 110.689 36.1286C110.373 35.7838 109.946 35.6091 109.41 35.6091C109.046 35.6091 108.719 35.6927 108.431 35.8584L108.607 34.2939L110.985 34.2939L110.985 33.6206L107.973 33.6206Z" fill="#3A3838"/>
<path d="M111.602 40.2146L112.028 40.4983C112.23 40.337 112.397 40.1251 112.53 39.8593C112.663 39.5936 112.73 39.3293 112.73 39.0636L112.73 38.4933L112 38.4933L112 39.1502C111.981 39.5361 111.842 39.9072 111.602 40.2146Z" fill="#3A3838"/>
<path d="M115.304 39.3547L116.054 39.3547L116.054 33.5937L115.936 33.5937L113.796 34.3775L113.796 35.0404L115.304 34.4999L115.304 39.3547Z" fill="#3A3838"/>
</g>
</svg>
