<svg xmlns="http://www.w3.org/2000/svg" width="661" height="354" fill="none"><g clip-path="url(#a)"><path fill="#fff" fill-rule="evenodd" d="M299.719 44.98h-56.233V22.384h56.233z" clip-rule="evenodd"/><path stroke="#000" stroke-linecap="round" stroke-linejoin="round" stroke-width=".184" d="M294.607 44.98V22.384m-5.111 22.598V22.383m-5.112 22.598V22.383M279.27 44.98V22.383m-5.111 22.598V22.383m-5.112 22.598V22.383m-5.112 22.598V22.383m-5.112 22.598V22.383M253.71 44.98V22.383m-5.111 22.598V22.383m-.342 9.59-4.771 1.707m0 0 4.771 1.707m-4.771-1.707h56.233m-56.233 11.3h56.233V22.384h-56.233z"/><path fill="#fff" fill-rule="evenodd" d="M248.6 47.001h15.336l10.225 22.597H248.6z" clip-rule="evenodd"/><path stroke="#000" stroke-linecap="round" stroke-linejoin="round" stroke-width=".184" d="M263.936 47.001H248.6v22.597h25.561zm0 0v22.597M253.711 47v22.597M258.824 47v22.597m10.224-11.3v11.3m0-11.3-4.772 1.706m4.772-1.706-4.772-1.707m4.772 1.707H248.6m20.448-11.297v3.764M274.161 47v15.065M279.272 47v22.597M284.385 47v22.597M289.497 47v22.597M294.608 47v22.597m.342-9.594 4.77-1.707m0 0-4.77-1.706m4.77 1.706-27.264.001m-5.111-11.297 10.223 22.597h22.152V47z"/><path fill="#fff" fill-rule="evenodd" d="M348.619 32.889v56.313h-22.564V32.889z" clip-rule="evenodd"/><path stroke="#000" stroke-linecap="round" stroke-linejoin="round" stroke-width=".184" d="M348.619 38.008h-22.564m22.564 5.12h-22.564m22.564 5.118h-22.564m22.564 5.12h-22.564m22.564 5.119h-22.564m22.564 5.12h-22.564m22.564 5.12h-22.564m22.564 5.118h-22.564m22.564 5.12h-22.564m22.564 5.12h-22.564m9.576.341 1.704 4.778m0 0 1.705-4.778m-1.705 4.778V32.889m11.284 56.313V32.889h-22.564v56.313z"/><path fill="#fff" fill-rule="evenodd" d="M350.33 84.082V68.725l22.565-10.239v25.597z" clip-rule="evenodd"/><path stroke="#000" stroke-linecap="round" stroke-linejoin="round" stroke-width=".184" d="m350.331 68.724 22.565-10.24v25.598h-22.565zh22.565m-22.565 10.238h22.565m-22.565-5.12h22.565m-11.281-10.239h11.281m-11.281 0 1.704 4.779m-1.704-4.779-1.704 4.779m1.704-4.779v20.478m-11.284-20.478h3.763m-3.763-5.12h15.043m-15.043-5.119h22.565m-22.565-5.12h22.565m-22.565-5.117h22.565m-22.565-5.12h22.565m-9.577-.342-1.704-4.777m0 0-1.704 4.777m1.704-4.777v27.303M13.705 3.534h24.706m-24.705 0v6.825H38.41V3.534m-24.705 0V.12H38.41v3.414m12.678 0h24.709m-24.709 0v6.825h24.709V3.534m-24.709 0V.12h24.709v3.414m12.512 0h24.705m-24.705 0v6.825h24.705V3.534m-24.705 0V.12h24.705v3.414m12.795 0h24.703m-24.703 0v6.825h24.703V3.534m-24.703 0V.12h24.703v3.414m12.454 0h24.706m-24.706 0v6.825h24.706V3.534m-24.706 0V.12h24.706v3.414M48.475 350.466H23.77m24.705 0v-6.825H23.77v6.825m24.705 0v3.414H23.77v-3.414m64.628 0H63.693m24.705 0v-6.825H63.693v6.825m24.705 0v3.414H63.693v-3.414m64.583 0h-24.705m24.705 0v-6.825h-24.705v6.825m24.705 0v3.414h-24.705v-3.414m64.627 0h-24.705m24.705 0v-6.825h-24.705v6.825m24.705 0v3.414h-24.705v-3.414m92.183 0h-40.314m40.314 0v-6.825h-40.314v6.825m40.314 0v3.414h-40.314v-3.414m67.14 3.414h40.313v-3.414m-40.313-6.825h40.313v6.825m0 0h-40.313m-.002 3.414v-10.239m107.516 6.825h-40.314m40.314 0v-6.825h-40.314v6.825m40.314 0v3.414h-40.314v-3.414m67.764 3.414h40.313v-3.414m-40.313-6.825h40.313v6.825m0 0h-40.313m-.001 3.414v-10.239m67.277 10.239h24.707v-3.414m-24.707-6.825h24.707v6.825m0 0h-24.707m-.001 3.414v-10.239m64.631 6.825h-24.708m24.708 0v-6.825h-24.708l-.001 5.631.001 1.194m24.708 0v3.414h-24.708v-3.414m64.645 0H544.6m24.709 0v-6.825H544.6v6.825m24.709 0v3.414H544.6v-3.414m64.631 0h-24.709m24.709 0v-6.825h-24.709v6.825m24.709 0v3.414h-24.709v-3.414M3.53 316.962v-24.741m0 24.741h6.815v-24.741H3.53m0 24.741H.12v-24.741H3.53m0-37.355v-24.74m0 24.74h6.815v-24.74H3.53m0 24.74H.12v-24.74H3.53m0-168.183v-24.74m0 24.74h6.815v-24.74H3.53m0 24.74H.12v-24.74H3.53m110.984 109.609v3.584c0 2.979-.784 5.904-2.27 8.484l-14.675-8.484v-3.584m-39.961-19.676h2.556c2.397 0 4.751.633 6.832 1.834l-6.832 11.843h-2.556m155.816 5.542v3.584c0 2.979-.784 5.905-2.27 8.485l-14.675-8.485v-3.584M225.911 18.97h89.92m-89.92 0v3.413h89.92V18.97m-89.92 0v-3.413h89.92v3.413m22.797-15.436h27.686m-27.686 0v6.825h27.686V3.534m-27.686 0V.12h27.686v3.414m26.199 0h24.706m-24.706 0v6.825h24.706V3.534m-24.706 0V.12h24.706v3.414m12.851 0h24.706m-24.706 0v6.825h24.706V3.534m-24.706 0V.12h24.706v3.414m27.991 0h39.666m-39.666 0v6.825h39.666V3.534m-39.666 0V.12h39.666v3.414m22.167 0h39.67m-39.67 0v6.825h39.67V3.534m-39.67 0V.12h39.67v3.414M320.282 159.806v4.437c0 2.979-.784 5.904-2.27 8.485l-14.675-8.485v-4.437m-57.67 0v4.437l-6.396 3.7a7.4 7.4 0 0 1-.988-3.7c0 2.48-.651 4.917-1.892 7.064l-12.217-7.064v-4.437m125.591 0v4.437l6.397 3.699a7.4 7.4 0 0 0 .988-3.699c.001 2.48.654 4.916 1.892 7.064l12.217-7.064v-4.437M236.388 85.222c0 2.48-.654 4.919-1.892 7.066m115.835-26.976 22.565-10.24V32.89l-22.565-.001z"/><path stroke="#000" stroke-linecap="round" stroke-linejoin="round" stroke-width=".184" d="M236.386 85.222c0 1.3.341 2.575.988 3.7l6.398-3.7v-3.584m-9.277 10.65-12.218-7.066v-3.584m35.492 50.379v18.488m0-18.488h2.726m-2.726 0h-.852m.852 18.488h2.726m-2.726 0h-.852m.852-57.105v23.741m0-23.741h2.726m-2.726 0h-.852m.852 23.741h2.726m-2.726 0h-.852m93.044 6.354v4.437l6.397 3.7a7.4 7.4 0 0 0 .993-3.7c-.001 2.48.65 4.917 1.887 7.065l12.222-7.065v-4.437m74.04 22.502v2.73l.001 1.707a17 17 0 0 0 2.269 8.484l14.675-8.484v-4.437m45.012-.061v4.437c0 2.979.783 5.905 2.272 8.484l14.676-8.484v-4.437m16.57 0v4.437c0 2.978.783 5.904 2.27 8.484l14.679-8.484v-4.437m-16.762 62.027v-4.437c0-2.98.784-5.904 2.27-8.485l14.676 8.485v4.437m-41.684 0v-4.437c0-2.98.78-5.904 2.268-8.485l14.677 8.485v4.437M156.03 127.095h2.556c2.399 0 4.754.633 6.829 1.834l-6.829 11.843h-2.556m-97.202 68.163a13.7 13.7 0 0 1-6.83 1.833H49.44m9.386-1.832-6.83-11.848h-2.556m21.566 2.444h3.579c2.975 0 5.897-.784 8.473-2.273l-8.473-14.699h-3.579m44.048 25.403v-4.437a16.97 16.97 0 0 0-2.27-8.485l-14.676 8.485v4.437m119.043 16.211c2.397 0 4.753-.632 6.829-1.833l-6.831-11.844h-2.556m2.556 13.678h-2.556m-71.569-1.216h-2.556c-2.396 0-4.752-.631-6.827-1.833l6.827-11.842h2.556m93.347-1.321v-4.437c0-2.979-.784-5.905-2.273-8.485l-14.675 8.485v4.437m40.563 0v-4.437c0-2.98.784-5.904 2.27-8.485l14.675 8.485v4.437m79.437 14.289a13.64 13.64 0 0 1-6.83 1.833m6.828-1.833-6.829-11.842h-2.556m2.556 13.675h-2.556m-64.085-.01h-2.557c-2.395 0-4.749-.631-6.826-1.83l6.826-11.845h2.557m110.401-2.437v-4.437c0-2.98.784-5.904 2.27-8.485l14.676 8.485v4.437m-57.444 0v-4.437c0-2.98.784-5.904 2.27-8.485l14.675 8.485v4.437m119.864 15.675h2.556c2.396 0 4.75-.632 6.825-1.833l-6.825-11.842h-2.556m-74.075 14.303h-2.556c-2.4 0-4.755-.632-6.831-1.833l6.831-11.843h2.556m86.241-79.825h2.556c2.396 0 4.751.631 6.829 1.833l-6.829 11.842h-2.556m-85.008-21.696h2.556c2.395 0 4.751.632 6.826 1.833l-6.826 11.844h-2.556m158.698-24.014v2.559c0 2.403-.63 4.761-1.83 6.839l-11.826-6.839v-2.559m13.858 123.996c0-2.4-.631-4.757-1.827-6.836l-11.83 6.836v2.56m13.656-2.56v2.56m70.218-224.511L631.58 49.11m14.304-34.658-1.101-.458-2.205-.911-14.304 34.659 2.205.91 1.101.458m14.304-34.658 1.574.651-14.303 34.659-1.575-.652m9.835 22.153-8.5-19.883-1.567.672m10.067 19.211-1.564.673m1.564-.673-2.191.94-1.097.471m-1.565.67-8.503-19.882 2.191-.943 1.098-.467m5.214 21.293 2.191-.942 1.098-.467m-3.289 1.409 1.565-.67m-6.779-20.623 8.503 19.884m-1.724.738a19.14 19.14 0 0 0-7.785 6.129l15.317 11.485m0 0 1.097-.472 2.191-.942m-3.288 1.414-1.568.668m3.384 2.628-16.526 39.314m16.526-39.314-1.097-.465-2.203-.924-16.525 39.314 2.201.925 1.098.464m16.526-39.314 1.571.662-16.526 39.314-1.571-.662m9.338 20.412 8.422 18.441-1.551.71m-6.871-19.151-1.551.711m1.551-.711-2.17.994-1.084.498m-1.551.711 8.422 18.439 2.17-.993 1.084-.498m-11.676-16.948 2.171-.997m-2.171.997 1.551-.711m1.703-.781 8.422 18.44m-8.422-18.44-1.083.493m-.62.288a19.1 19.1 0 0 1-9.768 1.65m1.81-19.077-1.81 19.075m1.81-19.075 1.086-.493m-1.086.493-1.547.711m2.633-1.206 2.168-.993m14.532 44.847-16.389 37.016m16.389-37.016-1.086-.485-2.181-.966-16.394 37.014 2.181.969 1.091.484m16.389-37.016 1.561.693-16.392 37.013-1.558-.69m10.374 23.495-8.459-20.866-1.578.641m10.037 20.225-1.581.642m1.581-.642-2.212.899-1.104.45-1.581.64-8.457-20.865m3.317-1.349 8.456 20.867m-8.456-20.867-1.107.451-2.208.898m11.771 19.518-1.105.45-2.212.899m1.581-.643a19.1 19.1 0 0 0-7.899 5.984l15.095 11.771m0 0 1.104-.451m-1.104.451-1.579.642m2.683-1.092 2.212-.898m-15.095 43.208 15.201-37.54-1.579-.64m-18.515 36.192 15.199-37.541 2.209.897m1.107.452-15.2 37.538m15.2-37.538-1.106-.452m-14.094 37.99-1.104-.447-2.213-.897m3.317 1.344 1.578.641m7.583 19.946 7.317 17.017m-7.317-17.017-1.564.676m1.564-.676-2.192.945-1.094.472m-1.563.675 7.317 17.017 2.188-.946 1.097-.474m-10.602-15.597 2.191-.945m-2.191.945 1.563-.675m1.722-.741 7.317 17.013m-7.317-17.013-1.094.47m8.411 16.543 1.565-.672m-10.604-15.6a19.1 19.1 0 0 1-9.801 1.433l2.236-19.031 1.094-.471 2.192-.945m-4.854 2.091 1.568-.674"/><path fill="#fff" fill-rule="evenodd" d="M660.88 339.678h-2.046V14.192h2.045z" clip-rule="evenodd"/><path stroke="#000" stroke-linecap="round" stroke-linejoin="round" stroke-width=".184" d="M289.762 118.533V82.008m0 36.525h-26.278m26.278 0-26.278-36.525m26.278 0h-26.278m26.278 0-26.278 36.525m0-36.525v36.525m26.278 32.74v-19.505m0 19.505h-26.278m26.278 0-26.278-19.505m26.278 0h-26.278m26.278 0-26.278 19.505m0-19.505v19.505m397.397 188.405V14.192h-2.046v325.486z"/><path fill="#000" d="M62.177 64.708h.64v.48h-.64v1.074h-.59v-1.074h-2.104v-.347l2.068-3.204h.625zm-2.026 0h1.436V62.44l-.07.126zm6.165-2.741-1.913 4.295h-.615l1.906-4.142h-2.5v-.483h3.12v.33zm.701 5.214-.333-.228q.297-.416.31-.858v-.53h.575v.46q0 .323-.157.643c-.093.198-.229.373-.396.513zm2.067-3.518h.441q.414-.006.653-.219a.73.73 0 0 0 .238-.575q0-.813-.81-.813-.38 0-.606.217a.76.76 0 0 0-.227.578h-.587a1.18 1.18 0 0 1 .401-.916q.401-.36 1.02-.36.654 0 1.024.344.372.345.372.963c-.003.21-.071.414-.195.584-.132.19-.317.337-.532.422.234.067.44.207.588.4.143.199.216.439.208.683q.001.623-.406.987t-1.056.366q-.65 0-1.058-.353-.407-.353-.407-.93h.59a.76.76 0 0 0 .238.585q.238.218.637.219.425 0 .65-.223.226-.222.226-.638 0-.402-.248-.619t-.713-.222h-.441zm95.438 3.39h.64v.48h-.64v1.074h-.59v-1.074h-2.104v-.347l2.068-3.202h.625v3.07zm-2.028 0h1.438v-2.268l-.07.128zm6.08-.42q0 1.034-.352 1.536-.352.503-1.1.502-.739 0-1.094-.491-.356-.492-.368-1.466v-.785q0-1.019.351-1.514.351-.497 1.106-.496.743 0 1.095.478.353.479.362 1.474zm-.587-.802q0-.747-.209-1.088t-.661-.342q-.452.001-.659.34-.206.341-.213 1.045v.94q.001.749.218 1.108a.72.72 0 0 0 .659.356q.435 0 .645-.335.21-.338.22-1.062zm1.373 3.697-.333-.229q.3-.415.312-.858v-.53h.573v.461q0 .32-.156.642a1.5 1.5 0 0 1-.396.514m4.11-2.894c0 .69-.117 1.199-.352 1.535q-.353.503-1.1.502-.74 0-1.095-.491-.355-.492-.367-1.466v-.785q0-1.019.351-1.514.352-.497 1.106-.496.743 0 1.095.478.352.479.362 1.474zm-.587-.803q0-.747-.209-1.088-.21-.342-.661-.342-.452.001-.659.34-.205.341-.212 1.045v.94q0 .749.217 1.108a.72.72 0 0 0 .659.356q.434 0 .645-.335.211-.338.22-1.062zM50.822 298.722h.441q.415-.006.653-.221a.73.73 0 0 0 .238-.574q0-.813-.809-.813c-.252 0-.457.072-.607.217a.76.76 0 0 0-.226.578h-.588q.001-.55.401-.915.402-.362 1.02-.363.654 0 1.024.347.372.346.372.962c-.003.21-.071.414-.195.584a1.2 1.2 0 0 1-.531.422c.234.067.44.208.588.402.142.198.215.438.208.682q0 .623-.407.988-.407.364-1.055.364-.65 0-1.058-.352a1.17 1.17 0 0 1-.408-.93h.59q0 .365.238.584c.16.146.37.219.638.219q.424 0 .649-.223.226-.222.226-.638 0-.403-.248-.619-.247-.217-.713-.222h-.441zm5.03.564a1.4 1.4 0 0 1-.44.353c-.172.09-.364.136-.559.134q-.4 0-.697-.198a1.27 1.27 0 0 1-.457-.554 1.9 1.9 0 0 1-.162-.788q0-.465.175-.837.177-.371.5-.567a1.4 1.4 0 0 1 .755-.198q.686 0 1.08.512.396.514.395 1.4v.171q0 1.35-.533 1.971-.532.62-1.608.638h-.114v-.499h.123q.726-.014 1.118-.378.388-.367.424-1.16m-.904 0q.294 0 .544-.18a1.06 1.06 0 0 0 .363-.448v-.235q0-.579-.25-.94-.252-.362-.635-.363a.76.76 0 0 0-.622.298q-.234.295-.234.782 0 .474.227.78.226.307.607.306m2.336 2.955-.333-.229q.298-.416.31-.858v-.53h.575v.46q0 .32-.156.642a1.5 1.5 0 0 1-.396.515m3.463-2.955a1.4 1.4 0 0 1-.439.353c-.173.09-.365.136-.56.134q-.399 0-.696-.198a1.27 1.27 0 0 1-.457-.554 1.9 1.9 0 0 1-.163-.788q0-.465.176-.837c.106-.235.28-.433.5-.567q.323-.199.755-.198.686 0 1.08.512.394.514.394 1.4v.171q0 1.35-.532 1.971-.532.62-1.609.638h-.113v-.499h.123q.727-.014 1.117-.378.39-.367.424-1.16m-.904 0a.9.9 0 0 0 .544-.18 1.06 1.06 0 0 0 .364-.448v-.235q-.001-.579-.25-.94-.253-.362-.635-.363a.76.76 0 0 0-.622.298q-.234.295-.234.782 0 .474.227.78.226.307.606.306m72.556-.564h.442q.415-.006.652-.221a.72.72 0 0 0 .24-.574q-.001-.813-.809-.813-.381 0-.608.217a.77.77 0 0 0-.227.578h-.587q0-.55.402-.915.401-.362 1.02-.363.652 0 1.024.347.37.346.371.962c-.003.21-.071.414-.194.584-.133.19-.318.336-.533.422.234.067.441.208.589.402.142.198.215.438.207.682q0 .623-.405.988-.406.364-1.056.364t-1.058-.352a1.17 1.17 0 0 1-.409-.93h.591q0 .365.238.584t.637.219q.426 0 .652-.223.223-.222.223-.638 0-.403-.246-.619-.248-.217-.714-.222h-.442zm5.259 1.043h.64v.481h-.64v1.073h-.59v-1.073h-2.104v-.347l2.068-3.205h.626zm-2.027 0h1.437v-2.267l-.07.128zm3.232 2.476-.333-.229c.189-.248.297-.547.311-.858v-.53h.574v.46q0 .32-.157.642a1.5 1.5 0 0 1-.395.515m3.691-2.476h.641v.481h-.641v1.073h-.589v-1.073h-2.104v-.347l2.068-3.205h.625zm-2.027 0h1.437v-2.267l-.069.128zm72.893 1.554h-3.026v-.422l1.599-1.779q.28-.302.489-.657a1.1 1.1 0 0 0 .135-.521.83.83 0 0 0-.219-.595.77.77 0 0 0-.583-.231q-.438 0-.681.249-.242.25-.242.694h-.587q0-.639.411-1.032.41-.393 1.099-.394.644 0 1.018.338.375.339.374.901 0 .683-.869 1.626l-1.237 1.343h2.319zm.876-2.319.236-2.306h2.365v.544h-1.867l-.14 1.261q.34-.2.771-.201.631.001 1.003.419.37.415.371 1.129 0 .714-.387 1.125-.384.412-1.076.411-.612 0-.999-.339-.386-.34-.44-.939h.554q.054.397.283.598.228.202.601.201a.8.8 0 0 0 .643-.279q.233-.282.233-.773 0-.462-.252-.744a.85.85 0 0 0-.67-.281q-.384 0-.602.169l-.156.126-.469-.12zm3.414 3.241-.333-.229c.188-.248.297-.547.311-.858v-.53h.574v.46q0 .32-.157.642a1.5 1.5 0 0 1-.395.515m1.482-3.241.236-2.306h2.366v.544h-1.868l-.139 1.261q.339-.2.77-.201.631.001 1.003.419.37.415.371 1.129-.001.714-.386 1.125-.384.412-1.077.411-.612 0-.999-.339-.387-.34-.44-.939h.555q.053.397.282.598.228.202.602.201a.79.79 0 0 0 .642-.279q.234-.282.234-.773 0-.462-.252-.744a.86.86 0 0 0-.671-.281q-.384 0-.602.169l-.157.126-.469-.12zm61.17 2.319h-3.026v-.422l1.597-1.779q.281-.302.491-.657c.087-.159.134-.339.135-.521a.84.84 0 0 0-.219-.595.77.77 0 0 0-.583-.231q-.44 0-.681.249-.243.25-.243.694h-.586q0-.639.411-1.032.41-.393 1.099-.394.644 0 1.017.338.375.339.375.901 0 .683-.869 1.626l-1.239 1.343h2.321zm.876-2.319.235-2.306h2.366v.544h-1.869l-.138 1.261q.34-.2.77-.201.631.001 1.004.419.37.415.37 1.129t-.385 1.125q-.386.412-1.077.411-.613 0-1-.339-.385-.34-.44-.939h.555q.054.397.282.598.23.202.602.201a.8.8 0 0 0 .643-.279q.233-.282.233-.773 0-.462-.252-.744a.9.9 0 0 0-.304-.216.9.9 0 0 0-.367-.065q-.384 0-.601.169l-.157.126zm3.414 3.241-.333-.229c.188-.248.296-.547.31-.858v-.53h.574v.46q0 .32-.157.642a1.5 1.5 0 0 1-.394.515m3.516-5.549v.498h-.108q-.686.013-1.09.406-.407.396-.471 1.109.365-.419.996-.418.604 0 .962.425.36.426.361 1.098 0 .714-.389 1.144-.388.428-1.042.428-.662.001-1.074-.509-.412-.511-.412-1.312v-.227q0-1.276.543-1.951.544-.676 1.62-.691zm-.769 2.083a.93.93 0 0 0-.557.181.94.94 0 0 0-.352.454v.216q0 .571.257.922.258.35.64.349a.75.75 0 0 0 .624-.294q.226-.29.226-.764 0-.476-.229-.771a.73.73 0 0 0-.61-.292zm58.537 2.544h-3.026v-.422l1.598-1.779q.281-.302.491-.657a1.1 1.1 0 0 0 .134-.521.83.83 0 0 0-.219-.595q-.218-.231-.583-.231-.439 0-.68.249-.243.25-.243.694h-.587q0-.639.411-1.032t1.099-.394q.645 0 1.018.338.375.339.375.901 0 .683-.87 1.626l-1.238 1.343h2.32zm.877-2.319.234-2.306h2.366v.544h-1.868l-.138 1.261a1.5 1.5 0 0 1 .769-.201q.632.001 1.004.419.37.415.371 1.129 0 .714-.385 1.125-.386.412-1.077.411-.613 0-1-.339-.385-.34-.441-.939h.556q.054.397.282.598.23.202.601.201a.8.8 0 0 0 .644-.279q.234-.282.233-.773 0-.462-.253-.744a.84.84 0 0 0-.669-.281q-.384 0-.603.169l-.156.126zm3.413 3.241-.333-.229a1.5 1.5 0 0 0 .31-.858v-.53h.575v.46q0 .32-.157.642a1.5 1.5 0 0 1-.395.515m3.693-2.476h.639v.481h-.639v1.073h-.591v-1.073h-2.103v-.347l2.068-3.205h.626zm-2.028 0h1.437v-2.267l-.07.128zm59.856 1.554h-3.026v-.422l1.599-1.779q.281-.302.49-.657a1.1 1.1 0 0 0 .132-.521.84.84 0 0 0-.216-.595q-.218-.231-.584-.231-.439 0-.681.249-.242.25-.243.694h-.586q0-.639.411-1.032.41-.393 1.099-.394.644 0 1.018.338.374.339.374.901 0 .683-.869 1.626l-1.237 1.343h2.319zm.876-2.319.236-2.306h2.365v.544h-1.867l-.14 1.261q.34-.2.771-.201.631.001 1.003.419.37.415.371 1.129 0 .714-.387 1.125-.383.412-1.076.411-.612 0-.999-.339-.386-.34-.44-.939h.555q.053.397.282.598.228.202.601.201a.8.8 0 0 0 .643-.279q.233-.282.233-.773 0-.462-.252-.744a.85.85 0 0 0-.67-.281q-.384 0-.602.169l-.157.126-.468-.12zm3.414 3.241-.333-.229c.188-.248.297-.547.311-.858v-.53h.573v.46q0 .32-.156.642a1.5 1.5 0 0 1-.395.515m1.483-3.241.235-2.306h2.366v.544h-1.869l-.138 1.261q.338-.2.77-.201.63.001 1.002.419.371.415.372 1.129 0 .714-.386 1.125-.385.412-1.077.411-.612 0-.998-.339-.388-.34-.441-.939h.555q.053.397.281.598.23.202.603.201a.79.79 0 0 0 .642-.279q.234-.282.234-.773 0-.462-.252-.744a.9.9 0 0 0-.304-.216.9.9 0 0 0-.367-.065q-.384 0-.601.169l-.157.126zm68.518-.278h.441q.416-.006.653-.221a.72.72 0 0 0 .238-.574q0-.813-.809-.813-.379 0-.606.217a.77.77 0 0 0-.227.578h-.587q0-.55.402-.915.401-.362 1.018-.363.655 0 1.026.347.37.346.371.962c-.003.21-.072.414-.196.584-.132.19-.317.336-.531.422.234.067.44.208.589.402.142.198.215.438.207.682q0 .623-.407.988-.404.364-1.055.364t-1.058-.352a1.17 1.17 0 0 1-.407-.93h.59q0 .365.238.584.237.219.637.219.425 0 .65-.223.224-.222.225-.638 0-.403-.246-.619-.248-.217-.715-.222h-.441zm5.259 1.043h.64v.481h-.64v1.073h-.59v-1.073h-2.104v-.347l2.068-3.205h.625v3.071zm-2.028 0h1.438v-2.267l-.07.128zm3.233 2.476-.334-.229q.3-.416.312-.858v-.53h.574v.46q0 .32-.158.642a1.5 1.5 0 0 1-.394.515m4.015-4.339c.004.219-.06.434-.182.616a1.2 1.2 0 0 1-.493.421q.36.157.572.456c.14.197.215.434.212.676q0 .6-.406.956-.404.355-1.064.355-.665 0-1.067-.357-.401-.356-.401-.954 0-.375.205-.676a1.3 1.3 0 0 1 .565-.458 1.2 1.2 0 0 1-.485-.421 1.1 1.1 0 0 1-.178-.614q.001-.585.374-.927.377-.344.986-.344.611 0 .986.344.375.342.376.927m-.479 2.156a.848.848 0 0 0-.246-.632q-.245-.245-.642-.245-.396 0-.637.242a.87.87 0 0 0-.239.635q0 .393.234.62.233.224.648.224.413 0 .647-.226.235-.227.235-.618m-.882-2.944a.76.76 0 0 0-.56.215.796.796 0 0 0-.214.582q0 .352.212.571.21.216.562.217a.76.76 0 0 0 .564-.217.8.8 0 0 0 .21-.571.79.79 0 0 0-.218-.574.75.75 0 0 0-.556-.223m98.405 2.651h.641v.481h-.641v1.073h-.589v-1.073h-2.104v-.347l2.068-3.205h.625zm-2.027 0h1.437v-2.267l-.069.128zm5.662 0h.639v.481h-.639v1.073h-.591v-1.073h-2.104v-.347l2.068-3.205h.627zm-2.029 0h1.438v-2.267l-.069.128zm3.231 2.476-.332-.229q.3-.416.31-.858v-.53h.575v.46q0 .32-.156.642a1.5 1.5 0 0 1-.397.515m4.106-2.893q0 1.03-.352 1.532-.353.502-1.1.502-.74 0-1.095-.49t-.367-1.466v-.784q0-1.02.351-1.515.351-.496 1.106-.496.743 0 1.095.478.352.479.362 1.475zm-.587-.805q0-.746-.209-1.088-.21-.34-.661-.341-.453 0-.659.34-.205.34-.213 1.045v.939q0 .75.218 1.108a.72.72 0 0 0 .659.357q.434 0 .645-.337.21-.337.22-1.059zm42.886-76.417a1.5 1.5 0 0 1-.44.353 1.2 1.2 0 0 1-.559.132 1.24 1.24 0 0 1-.697-.196 1.3 1.3 0 0 1-.457-.554 1.9 1.9 0 0 1-.162-.79q0-.463.175-.835c.107-.235.28-.433.499-.569a1.43 1.43 0 0 1 .755-.196q.686 0 1.081.512t.394 1.4v.171q0 1.35-.532 1.971t-1.608.636h-.114v-.499h.123q.727-.011 1.118-.378.389-.366.424-1.158m-.904 0q.295 0 .544-.181c.16-.113.286-.269.364-.449v-.235q0-.577-.253-.939-.249-.362-.633-.362a.754.754 0 0 0-.621.296q-.235.299-.235.783 0 .473.227.78a.72.72 0 0 0 .607.307m2.328 2.953-.333-.228q.299-.415.311-.858v-.529h.574v.46q0 .32-.157.641a1.5 1.5 0 0 1-.395.514m2.074-3.518h.441q.415-.007.653-.22a.73.73 0 0 0 .238-.574q0-.814-.809-.814-.38 0-.607.216a.77.77 0 0 0-.226.578h-.587q0-.548.401-.914.403-.363 1.019-.362.654-.001 1.025.346.37.345.371.963a1.03 1.03 0 0 1-.195.584 1.2 1.2 0 0 1-.532.421q.38.122.59.401c.141.199.214.439.206.683q.001.623-.406.987-.404.365-1.056.366-.65 0-1.058-.353-.406-.352-.406-.93h.589a.77.77 0 0 0 .238.585q.239.218.637.219.426 0 .651-.223.224-.222.225-.638 0-.405-.247-.62-.248-.216-.714-.223h-.441v-.479zm-41.394-119.74h.639v.479h-.639v1.074h-.591v-1.074h-2.104v-.345l2.068-3.205h.627zm-2.027 0h1.436v-2.267l-.069.127zm5.661 0h.64v.479h-.64v1.074h-.591v-1.074h-2.103v-.345l2.068-3.205h.625v3.07zm-2.028 0h1.437v-2.267l-.069.127zm3.233 2.476-.334-.229q.299-.418.311-.859v-.529h.575v.459q0 .321-.158.642a1.5 1.5 0 0 1-.394.516m2.073-3.52h.441q.415-.007.653-.22a.73.73 0 0 0 .239-.575q0-.812-.809-.812-.381 0-.607.216a.77.77 0 0 0-.227.577h-.587a1.18 1.18 0 0 1 .401-.914q.403-.363 1.02-.363.653 0 1.024.347.371.345.372.963a1.03 1.03 0 0 1-.195.584 1.2 1.2 0 0 1-.533.421c.234.068.441.208.59.401.142.199.215.439.206.684q0 .622-.405.987-.406.365-1.055.365-.651 0-1.058-.353a1.17 1.17 0 0 1-.409-.93h.59q.001.365.238.585.238.22.637.218.427 0 .652-.222.224-.222.224-.638 0-.404-.247-.619-.248-.217-.714-.223h-.441zm32.15 28.942a1.4 1.4 0 0 1-.438.354 1.2 1.2 0 0 1-.561.133 1.24 1.24 0 0 1-.696-.197 1.3 1.3 0 0 1-.457-.555 1.9 1.9 0 0 1-.162-.788q0-.465.176-.836c.106-.235.28-.432.499-.568q.323-.196.755-.196.686-.001 1.079.511.394.512.396 1.401v.171q0 1.349-.533 1.97-.533.623-1.608.636h-.113v-.498h.122q.727-.013 1.117-.378.391-.367.424-1.16m-.904 0a.9.9 0 0 0 .545-.18c.16-.113.286-.268.363-.448v-.235q0-.577-.251-.939-.25-.363-.634-.363a.748.748 0 0 0-.621.297q-.235.298-.235.782 0 .475.227.78a.71.71 0 0 0 .606.306m2.339 2.955-.333-.229q.298-.415.312-.857v-.53h.574v.46q0 .32-.158.642a1.5 1.5 0 0 1-.394.514zm3.139-.92h-.589v-3.918l-1.184.436v-.535l1.682-.63h.091zM489.655 69.838h-3.026v-.423l1.599-1.779q.353-.402.489-.656c.087-.16.134-.339.135-.521a.84.84 0 0 0-.219-.595.77.77 0 0 0-.583-.232q-.44 0-.681.25-.242.248-.243.694h-.586q0-.638.411-1.032.41-.395 1.099-.394.644 0 1.017.337.375.34.375.901 0 .683-.869 1.625l-1.239 1.345h2.321zm2.91-4.629v.5h-.108q-.686.012-1.091.407-.406.391-.469 1.108.364-.42.995-.42.604 0 .962.426c.238.282.361.65.361 1.1q0 .713-.389 1.143-.388.428-1.042.428-.662 0-1.074-.51-.411-.51-.412-1.313v-.226q0-1.276.543-1.95.544-.676 1.62-.692zm-.77 2.084a.94.94 0 0 0-.556.181.94.94 0 0 0-.352.455v.217q0 .57.257.92.258.35.64.349a.75.75 0 0 0 .624-.291q.226-.293.226-.766 0-.477-.228-.77a.74.74 0 0 0-.611-.295m2.15 3.467-.334-.229a1.5 1.5 0 0 0 .311-.859v-.53h.574v.46q0 .323-.156.642a1.5 1.5 0 0 1-.395.516m4.196-5.216-1.912 4.294h-.616l1.907-4.142h-2.501v-.482h3.122zm-90.755 1.695h.441q.415-.005.653-.218a.73.73 0 0 0 .238-.575q0-.813-.809-.814a.84.84 0 0 0-.606.217.76.76 0 0 0-.227.578h-.587q0-.55.402-.913.402-.364 1.018-.364.655 0 1.026.346.37.345.371.963c-.004.21-.072.414-.196.584a1.2 1.2 0 0 1-.531.421c.234.068.44.208.589.401.142.199.214.439.207.683q0 .623-.407.987-.404.367-1.055.366-.651 0-1.058-.352-.408-.355-.407-.931h.589a.77.77 0 0 0 .238.585q.239.22.638.22.425-.001.65-.224.224-.221.225-.638 0-.404-.247-.62t-.714-.221h-.441zm5.761-1.695-1.911 4.294h-.616l1.907-4.142h-2.499v-.482h3.121v.33zm.701 5.216-.333-.229q.299-.416.311-.859v-.53h.574v.46a1.45 1.45 0 0 1-.157.642 1.5 1.5 0 0 1-.395.516m3.518-5.55v.499h-.108q-.686.012-1.09.407-.407.391-.47 1.108.363-.42.995-.42.604 0 .962.426.359.424.361 1.1 0 .713-.389 1.143-.387.428-1.042.428-.662 0-1.074-.51-.411-.51-.412-1.313v-.226q0-1.276.543-1.95.544-.676 1.62-.692zm-.77 2.083a.94.94 0 0 0-.556.181.94.94 0 0 0-.352.455v.217q0 .57.257.92.258.35.64.349a.75.75 0 0 0 .624-.291q.226-.293.226-.766 0-.477-.229-.77a.73.73 0 0 0-.61-.295m-280.213 66.291h.639v.479h-.639v1.074h-.592v-1.074h-2.103v-.345l2.068-3.206h.625v3.071zm-2.029 0h1.437v-2.267l-.069.126zm3.23 2.474-.335-.229q.299-.416.313-.857v-.53h.573v.459q0 .322-.157.643a1.5 1.5 0 0 1-.394.514m3.516-5.548v.498h-.108q-.685.014-1.09.406-.406.395-.469 1.108.364-.418.995-.418.603 0 .962.426.361.424.361 1.098 0 .714-.389 1.144t-1.042.429q-.661 0-1.075-.509-.412-.51-.411-1.314v-.226q0-1.278.543-1.951.545-.674 1.619-.691zm-.769 2.083a.93.93 0 0 0-.556.181.94.94 0 0 0-.352.455v.215q0 .573.257.921.258.35.64.349a.73.73 0 0 0 .624-.292q.227-.29.226-.766 0-.475-.228-.77a.745.745 0 0 0-.611-.293m-108.342 9.175v.498h-.108q-.685.012-1.09.407-.407.393-.47 1.108.364-.42.996-.419.603 0 .962.425.36.425.36 1.099.001.714-.388 1.144-.39.428-1.041.428-.663 0-1.076-.51-.412-.51-.412-1.312v-.227q0-1.276.544-1.95.543-.677 1.62-.691zm-.77 2.082a.94.94 0 0 0-.555.181.95.95 0 0 0-.352.454v.217q0 .57.257.921.256.349.641.349a.74.74 0 0 0 .623-.291q.227-.293.227-.766 0-.476-.23-.771a.74.74 0 0 0-.61-.294m2.146 3.466-.332-.229a1.53 1.53 0 0 0 .31-.857v-.53h.573v.46q0 .321-.156.642a1.5 1.5 0 0 1-.395.514m4.24-.92H34.58v-.424l1.599-1.778q.355-.403.49-.657.135-.252.134-.521a.83.83 0 0 0-.219-.595.77.77 0 0 0-.583-.232q-.437 0-.68.249-.243.25-.243.695h-.587q0-.639.411-1.032.41-.395 1.099-.394.645.001 1.018.337.374.34.374.901 0 .683-.869 1.625l-1.237 1.345h2.32zm-11.01 48.924.235-2.306h2.366v.543h-1.868l-.14 1.262q.34-.201.77-.201.633 0 1.003.419.37.415.371 1.128 0 .715-.385 1.126-.386.411-1.077.411-.614 0-.998-.34-.389-.34-.442-.94h.555q.054.398.283.599a.88.88 0 0 0 .602.201.8.8 0 0 0 .642-.278q.233-.282.233-.773 0-.465-.252-.744a.85.85 0 0 0-.67-.281q-.384 0-.603.169l-.157.126-.469-.12zm3.41 3.241-.334-.229a1.54 1.54 0 0 0 .31-.858v-.53h.575v.46q0 .32-.156.641a1.5 1.5 0 0 1-.396.516m2.067-3.52h.441q.416-.007.653-.22a.73.73 0 0 0 .238-.574q0-.813-.809-.813-.382 0-.607.217a.77.77 0 0 0-.226.577h-.588q0-.55.402-.914.4-.364 1.02-.364.652 0 1.023.347.372.346.372.963c-.003.21-.072.414-.196.584a1.18 1.18 0 0 1-.53.421c.234.067.44.208.588.401.142.199.216.44.208.684q0 .621-.407.988-.406.364-1.055.364-.651 0-1.058-.352a1.18 1.18 0 0 1-.408-.931h.59q0 .364.239.585.237.22.637.218.424 0 .649-.222t.226-.638q0-.403-.248-.619-.246-.217-.713-.222h-.44zm128.307 27.523h.64v.48h-.64v1.073h-.591v-1.073h-2.103v-.346l2.068-3.205h.625v3.071zm-2.028 0h1.437v-2.267l-.069.127zm3.229 2.475-.334-.228a1.54 1.54 0 0 0 .312-.859v-.53h.574v.46q0 .322-.157.642a1.5 1.5 0 0 1-.395.515m3.517-5.548v.498h-.108q-.685.013-1.091.405-.405.397-.468 1.109.363-.418.995-.418.603 0 .962.425.36.426.361 1.099 0 .714-.389 1.143t-1.042.429q-.662 0-1.075-.509-.412-.511-.411-1.313v-.226q0-1.276.543-1.952.544-.675 1.618-.691h.105zm-.769 2.083a.93.93 0 0 0-.556.181.94.94 0 0 0-.352.454v.215q0 .573.257.921.258.35.64.35a.75.75 0 0 0 .624-.293q.225-.29.226-.765 0-.476-.229-.77a.73.73 0 0 0-.61-.293m31.631.14h.442q.414-.006.652-.219a.7.7 0 0 0 .183-.261.7.7 0 0 0 .056-.313q0-.813-.809-.814-.38 0-.607.216a.77.77 0 0 0-.226.578h-.588q0-.548.402-.914.4-.363 1.019-.362.653-.001 1.025.346.37.345.371.963c-.003.21-.071.414-.195.584a1.2 1.2 0 0 1-.531.421q.38.121.588.401c.142.199.215.438.208.683q0 .622-.407.987-.405.365-1.055.366-.651 0-1.058-.353t-.408-.93h.589a.77.77 0 0 0 .24.585q.236.218.637.219.424 0 .649-.223.225-.222.225-.638 0-.404-.247-.62-.246-.216-.714-.223h-.441zm2.827 3.519-.333-.228q.299-.416.31-.858v-.53h.574v.46q0 .322-.157.642a1.5 1.5 0 0 1-.394.514m4.014-4.339c.004.219-.06.435-.183.616a1.24 1.24 0 0 1-.493.424q.361.156.573.454.21.298.211.676 0 .602-.405.956-.404.356-1.064.356-.666 0-1.068-.358-.4-.357-.4-.954 0-.375.204-.676t.566-.457a1.2 1.2 0 0 1-.484-.422 1.1 1.1 0 0 1-.179-.614q0-.584.375-.928.375-.343.986-.342.61 0 .986.342.374.344.375.927m-.48 2.156a.84.84 0 0 0-.887-.875q-.396 0-.637.241-.24.242-.238.634 0 .396.233.62.232.227.648.227.412 0 .647-.228.234-.226.234-.619m-.881-2.943a.74.74 0 0 0-.56.215q-.213.214-.214.582a.78.78 0 0 0 .211.57q.211.217.563.217t.564-.217a.8.8 0 0 0 .209-.57.79.79 0 0 0-.217-.575.75.75 0 0 0-.556-.222m91.911.697h.44q.416-.008.653-.221a.732.732 0 0 0 .239-.575q0-.813-.809-.813-.38 0-.607.217a.77.77 0 0 0-.227.578h-.587q0-.549.402-.915.401-.362 1.019-.363.653 0 1.025.347.37.346.371.962c-.003.21-.071.414-.195.584-.132.19-.317.336-.532.421.234.068.44.209.589.403.142.198.215.438.208.682q0 .623-.407.988-.405.365-1.055.364-.651 0-1.058-.352a1.17 1.17 0 0 1-.408-.93H293q.001.365.238.584.238.219.638.219.425 0 .651-.223.224-.222.224-.638 0-.403-.247-.619t-.714-.221h-.441v-.48zm2.824 3.518-.333-.229q.299-.416.311-.857v-.53h.574v.459q0 .321-.157.642a1.5 1.5 0 0 1-.395.515m4.016-4.338q0 .345-.183.615a1.2 1.2 0 0 1-.493.421q.361.157.573.456c.14.197.214.434.211.676q0 .6-.405.956-.404.355-1.064.355-.666 0-1.068-.357-.4-.356-.4-.954 0-.375.204-.676t.566-.458a1.2 1.2 0 0 1-.485-.421 1.1 1.1 0 0 1-.178-.614q0-.585.375-.928.375-.342.986-.343.61 0 .986.343.374.343.375.928zm-.48 2.155a.84.84 0 0 0-.245-.632.87.87 0 0 0-.642-.245q-.396 0-.637.242-.239.242-.239.636 0 .395.234.619.232.224.648.225.412 0 .647-.227.234-.228.234-.617zm-.881-2.944a.76.76 0 0 0-.56.214.79.79 0 0 0-.214.583.8.8 0 0 0 .211.571q.211.217.563.217a.76.76 0 0 0 .564-.217.8.8 0 0 0 .209-.571.78.78 0 0 0-.217-.574.75.75 0 0 0-.556-.223m30.446 1.878h.441q.415-.006.653-.22a.73.73 0 0 0 .239-.574q0-.813-.809-.813-.381 0-.607.217a.76.76 0 0 0-.227.576h-.587a1.17 1.17 0 0 1 .402-.913q.401-.363 1.019-.364.653 0 1.025.348.37.345.371.961 0 .302-.195.585c-.132.19-.317.336-.532.421.233.068.44.209.589.401.142.199.215.44.207.684q0 .622-.406.987-.405.365-1.055.365-.651 0-1.058-.352a1.18 1.18 0 0 1-.409-.931h.59q0 .365.238.585.239.218.638.218.425 0 .651-.222.224-.222.224-.638 0-.402-.247-.619-.248-.217-.714-.222h-.441zm2.825 3.52-.334-.229q.299-.418.313-.858v-.53h.573v.46q0 .32-.157.641a1.5 1.5 0 0 1-.395.516m4.016-4.34c.004.219-.059.434-.18.617a1.25 1.25 0 0 1-.494.421q.36.156.572.454c.14.198.214.436.21.678q0 .6-.405.956-.402.355-1.063.355-.666 0-1.067-.357-.402-.358-.401-.954 0-.376.205-.678.203-.301.565-.457a1.2 1.2 0 0 1-.485-.422 1.1 1.1 0 0 1-.178-.613q0-.584.374-.927.376-.343.986-.344.611 0 .986.344t.376.927zm-.478 2.157a.87.87 0 0 0-.246-.632q-.245-.245-.642-.245-.396 0-.637.241-.239.242-.239.636 0 .393.234.62.232.224.648.224.412 0 .647-.226.235-.227.235-.618m-.882-2.944a.76.76 0 0 0-.56.214.8.8 0 0 0-.167.27.8.8 0 0 0-.047.313q0 .352.212.571.209.216.562.217a.75.75 0 0 0 .563-.217.8.8 0 0 0 .21-.571.79.79 0 0 0-.217-.575.75.75 0 0 0-.556-.222m93.34.98h.442q.414-.006.653-.218a.74.74 0 0 0 .238-.575q0-.814-.809-.814-.38 0-.607.218a.76.76 0 0 0-.226.578h-.588q0-.551.401-.915t1.02-.363q.654 0 1.025.346.37.345.371.963a1.03 1.03 0 0 1-.195.584 1.2 1.2 0 0 1-.531.421q.379.123.588.401c.142.199.215.439.208.683q0 .623-.407.987-.406.367-1.055.366-.65 0-1.059-.353-.407-.353-.407-.93h.589a.77.77 0 0 0 .239.585q.238.219.638.219.424 0 .65-.223.224-.222.224-.638 0-.404-.247-.62-.248-.215-.713-.221h-.442zm2.828 3.519-.334-.228q.3-.415.311-.858v-.529h.574v.46q0 .321-.156.641a1.5 1.5 0 0 1-.395.514m4.194-5.214-1.911 4.293h-.616l1.907-4.141h-2.501v-.482h3.121zm34.345 3.237h.64v.48h-.64v1.074h-.59v-1.074h-2.104v-.347l2.068-3.204h.625v3.07zm-2.028 0h1.438v-2.268l-.07.127zm3.229 2.473-.334-.228q.299-.416.313-.858v-.529h.573v.46a1.44 1.44 0 0 1-.157.641 1.5 1.5 0 0 1-.395.514m4.196-5.214-1.911 4.295h-.617l1.907-4.142h-2.5v-.483h3.121zm85.462 43.787.235-2.305h2.366v.543h-1.868l-.139 1.262q.34-.202.77-.202.632.001 1.004.419.37.416.37 1.13t-.386 1.124q-.385.413-1.076.412-.613 0-1-.339-.384-.341-.44-.939h.555q.054.396.283.597t.601.201a.8.8 0 0 0 .643-.278q.233-.282.233-.773 0-.464-.252-.744a.85.85 0 0 0-.671-.281q-.384 0-.601.169l-.157.126-.47-.12zm3.409 3.242-.333-.229q.299-.417.31-.859v-.529h.575v.46q0 .32-.157.641a1.5 1.5 0 0 1-.395.516m3.143-.923h-.589v-3.915l-1.183.436v-.535l1.68-.632h.092v4.648zm-83.183-131.322h.442q.415-.006.652-.22a.72.72 0 0 0 .238-.574q0-.813-.809-.813-.378 0-.607.217-.226.217-.226.577h-.587q0-.55.402-.914.4-.363 1.018-.364.655 0 1.026.348.37.346.37.961 0 .302-.195.585c-.132.19-.317.336-.531.422.234.068.44.208.589.401.142.199.215.439.207.684q0 .622-.406.987t-1.056.365-1.058-.353a1.17 1.17 0 0 1-.408-.931h.589q0 .368.24.585.237.218.637.218.425 0 .65-.221.224-.222.225-.638 0-.404-.246-.619-.248-.217-.714-.223h-.442zm2.826 3.52-.333-.229q.299-.417.311-.858v-.53h.574v.46q0 .32-.157.642a1.5 1.5 0 0 1-.395.515m4.015-4.339q0 .346-.181.616a1.25 1.25 0 0 1-.493.422q.36.155.571.454c.141.197.215.435.212.677q0 .6-.406.956-.402.355-1.064.356-.665 0-1.066-.358-.401-.356-.4-.954 0-.375.204-.677a1.3 1.3 0 0 1 .565-.458 1.2 1.2 0 0 1-.484-.421 1.1 1.1 0 0 1-.18-.613q.001-.584.376-.927t.985-.345q.61 0 .986.345.375.343.375.927m-.478 2.156a.86.86 0 0 0-.245-.632.873.873 0 0 0-.644-.244.85.85 0 0 0-.636.241q-.24.242-.24.635 0 .395.234.62t.65.224q.412.001.645-.226.236-.227.236-.618m-.883-2.944a.76.76 0 0 0-.56.215q-.213.214-.213.582a.787.787 0 0 0 .212.571q.21.217.561.217.353 0 .564-.217a.8.8 0 0 0 .211-.571.78.78 0 0 0-.219-.575.75.75 0 0 0-.556-.222m73.058-41.345h.64v.479h-.64v1.074h-.59v-1.074h-2.104v-.347l2.068-3.203h.626zm-2.028 0h1.438V88.81l-.07.128zm3.229 2.473-.333-.228c.189-.247.298-.547.31-.858v-.53h.575v.461q0 .32-.156.642a1.5 1.5 0 0 1-.396.513m4.015-4.338q0 .347-.183.616a1.23 1.23 0 0 1-.493.423q.362.155.572.454.212.298.212.676 0 .602-.405.956-.404.356-1.064.357-.667 0-1.068-.358-.4-.357-.4-.955 0-.374.204-.676t.565-.458a1.2 1.2 0 0 1-.483-.421 1.1 1.1 0 0 1-.179-.614q0-.585.375-.927.375-.345.986-.344.609 0 .986.344.374.343.375.927m-.48 2.156a.86.86 0 0 0-.245-.63q-.246-.246-.642-.245-.397 0-.637.24c-.162.162-.238.374-.238.635q-.001.395.233.62.232.225.648.225.412.001.647-.226.235-.228.234-.619m-.881-2.944a.76.76 0 0 0-.56.216q-.214.213-.214.581a.786.786 0 0 0 .211.57q.21.218.563.218.352 0 .564-.217a.8.8 0 0 0 .21-.57.79.79 0 0 0-.219-.576.74.74 0 0 0-.555-.222m-168.865 47.867h.64v.479h-.64v1.074h-.59v-1.074h-2.104v-.345l2.068-3.206h.625v3.071zm-2.028 0h1.438v-2.267l-.07.126zm3.228 2.474-.333-.229q.299-.416.31-.857v-.53h.575v.459q0 .322-.157.643a1.5 1.5 0 0 1-.395.514m3.693-2.474h.639v.479h-.639v1.074h-.591v-1.074h-2.104v-.345l2.068-3.206h.627zm-2.027 0h1.436v-2.267l-.069.126z"/><path fill="#000" stroke="#000" stroke-miterlimit="10" stroke-width=".2" d="M38.41.12h12.678v10.24H38.41zm37.387 0h12.512v10.24H75.797zm74.716 0h12.453v10.24h-12.453z"/><path fill="#000" fill-rule="evenodd" stroke="#000" stroke-miterlimit="10" stroke-width=".2" d="M187.672 10.36h28.013v135.995h-2.262v3.584h2.262v14.304h8.488v-4.437h-3.205V85.222h1.31V81.64h-1.31V22.383h4.942V.12h-38.238z" clip-rule="evenodd"/><path fill="#000" stroke="#000" stroke-miterlimit="10" stroke-width=".2" d="M48.475 343.641h15.217v10.239H48.475zm79.8 0h15.217v10.239h-15.217zm361.174 0h15.214v10.239h-15.214zm79.859 0h15.214v10.239h-15.214z"/><path fill="#000" fill-rule="evenodd" stroke="#000" stroke-miterlimit="10" stroke-width=".2" d="M10.346 316.962H.12v36.918h23.65v-10.239H10.344zm0-306.603h3.36V.12H.12v37.083h10.224zm0 206.791h41.653v-6.382h-2.556v3.822H10.346v-38.532h39.098v21.03H52v-33.36H71.01v18.831h3.578v-18.831h21.171v-13.331h1.81v-3.585H92.18v13.331H60.164v-19.33h-2.555v19.33H10.346v-37.211h47.262v4.204h2.557v-6.764h-49.82v-58.43H.122v168.184h10.224zm39.098-53.422v9.77H34.616v-9.77h14.828Zm-39.098 0H32.06v9.77H10.346z" clip-rule="evenodd"/><path fill="#000" stroke="#000" stroke-miterlimit="10" stroke-width=".2" d="M.121 254.866h10.225v37.355H.12z"/><path fill="#000" fill-rule="evenodd" stroke="#000" stroke-miterlimit="10" stroke-width=".2" d="M114.514 146.812v3.584h1.851v13.525h77.934v-13.982h2.179v-3.584h-37.89v-5.583h-2.556v10.198h-34.937v-7.942h-.572v-29.141h35.509v13.208h2.556v-15.767h-38.065v-17.11h1.258V72.756h-1.258V26.127h1.258V10.359h4.027V.12h-12.793v10.24h3.929v136.452zm77.227 3.127v11.423H159.61v-11.423zm-70.647 3.591h34.938v6.808h-34.937zM97.931 327.566h-1.258v-39.877h1.257v-20.993h-1.257v-58.733h1.438v-4.437H74.588v-3.994H71.01v14.291h22.084v129.818h-4.697v10.239h15.173v-10.239h-5.64zM74.587 210.239v-4.154h18.507v4.154zm176.809 117.327h-1.258v-39.877h1.258v-20.993h-1.258v-58.733h9.85v-4.437h-23.615v4.437h10.187v135.678h-10.885v10.239H262.5v-10.239h-11.103zm133.039 0h-1.255v-39.877h1.254v-20.993h-1.254v-58.733H393.3v-4.437h-23.553v4.437h9.856v135.678h-9.587v10.239h27.449v-10.239h-13.029zm155.286 0h-1.254v-39.877h36.293v-1.878h7.471v-49.408h-6.565v2.56h4.009v44.289h-31.318v-33.181h-9.89v-11.108h23.544v-2.56h-23.544v-28.44h2.696v-4.437h-7.794v4.437h1.52v135.678h-5.518v10.239H544.6v-10.239h-4.878zm6.08-44.314h-6.08v-30.621h6.08zm-79.17-137.255h-4.184v4.437h3.905v13.651h39.003v-13.714h2.102v-4.435h-3.126v-1.496h-2.556v6.4h-30.993v-7.813h-.572v-27.023h31.565v14.761h2.556v-17.321h-34.121V86.781h1.258V66.158h-1.258v-40.03h1.258V10.359h11.298V.12h-27.991v10.24h11.856zm35.144 7.403v7.102h-30.993V153.4z" clip-rule="evenodd"/><path fill="#000" stroke="#000" stroke-miterlimit="10" stroke-width=".2" d="M417.219.12h12.852v10.24h-12.852z"/><path fill="#000" fill-rule="evenodd" stroke="#000" stroke-miterlimit="10" stroke-width=".2" d="M584.268.12v10.24h59.435l-1.125 2.723 4.881 2.02 1.96-4.744-1.583 3.833h13.043V.12zM372.894 123.495h-1.434v4.437h1.434v31.874h-1.635v4.437h70.455v-13.81h3.787v-4.436h-8.218v5.365h-17.96v-14.941h-2.556v14.941H393.83v-1.457h-15.654v-31.608h38.591v4.446h2.556v-7.007h-41.146V10.361h14.334V.12h-26.198v10.238h6.581zm64.389 30.426v5.885H393.83v-5.884h43.453zm-46.009-1.457v7.342h-13.097v-7.342zM256.917 93.4h3.578V73.18h35.792v50.231h-35.792v-6.269h-3.578v14.877h3.578v-5.025h35.792v32.813h-35.792v-9.301h-3.578v9.301h-11.25v4.437h57.668v-4.437h-3.47v-31.874h29.13v10.909h14.883v12.098h-17.692v-7.553h-3.578v16.42h-2.328v4.437h29.483v-22.498h-3.329v-13.813h3.528v-4.436h-23.908V10.359h12.572V.12h-22.797v22.263h5.794v47.215h-75.739v12.04h-2.112v3.584h13.145zm69.269 66.406v-6.308h17.692v6.308zm22.555-17.038v17.037h-2.307v-17.037zm-4.863-14.836v8.348h-12.327v-8.348zM322.475 73.18v50.314h-22.61V73.18zm-74.035 8.458v-9.482h8.477v9.482zm275.965 64.298v4.437h16.57v-4.437H538.3v-30.97h23.509v-2.559H538.3v-10.584h10.252V70.314h31.217v42.093h-4.304v2.559h6.86V67.755h-7.715V66.73h-36.309V26.127h1.256V10.359h5.041V.12h-22.166v10.24h12.29v135.576h-10.317Zm21.591-75.622v28.95h-7.695v-28.95zm25.298 75.622h-13.369v4.437h1.999v53.153h-1.815v4.437h13.185v-28.722h72.318l-.018.041 4.828 2.143 1.669-3.768h8.743v-1.706h-8.209l-1.916-4.201-4.805 2.201h-72.61v-28.018zm-3.579 57.59h-5.235v-24.285h5.235zm-5.235-29.574v-23.579h5.235v23.579zm-344.306 16.495H116.366v13.079h-1.311v4.437h2.289v3.699h4.43v-6.707h18.694v4.329h2.556v-5.916h37.171v35.727h-37.17v-16.136h-2.556v18.696h39.728v101.986h-11.999v10.239h27.162v-10.239h-10.328v-16.075h-1.256v-39.877h1.257v-20.993h-1.257v-25.041h33.376v-17.48h-2.558v14.921h-30.818V203.37h30.818v7.13h2.557v-2.536h2.273v-4.437h-1.25zm-96.398 10.072v-5.635h16.819v5.635zm21.249.29v-5.924h37.172v5.924zm40.751 0v-5.924h30.818v5.924zm167.637-10.328h-72.946v13.045h-1.534v4.437h3.408v2.437h2.556v-7.335h30.434v36.181h-30.434v-15.171h-2.556v17.73h32.991v101.836h-10.519v10.239H329.7v-10.239h-11.533v-16.075h-1.258v-39.877h1.258v-20.993h-1.258v-24.891h32.631v-17.72h-2.558v15.161h-30.073v-36.181h30.074v7.344h2.557v-2.446h3.261v-4.437h-1.387v-13.045zm-68.516 10.024v-5.586h30.434v5.586zm34.013 0v-5.586h30.072v5.586h-30.073zm198.684-10.024H411.956v13.045h-1.712v4.437h2.734v2.627h2.556v-6.423h30.771v35.088h-30.771v-14.99h-2.556v17.55h33.327v101.826h-8.527v10.239h26.961v-10.239h-13.6v-16.075h-1.254v-39.877h1.254v-20.993h-1.254v-25.3h42.281v-17.758h-2.556v15.198h-39.725v-34.669h30.458v3.796h9.267v1.999h2.556v-1.999h24.259v-4.437h-.83v-13.045zm-100.06 11.126v-6.688h30.771v6.688zm34.35 0v-6.688h30.457v6.688zm34.037 1.919V193.04h29.118v10.486zM628.274 47.741l-1.308 3.167 1.094 2.553 4.856-2.081-.219-.51.457-1.107zm20.772 46.505 1.09-2.593-1.189-2.779-4.857 2.083.308.716-.223.522zm-21.518 43.84 4.801-2.199-.409-.897.6-1.43-4.867-2.051-1.502 3.57zm-.328 78.211-1.13 2.556 1.424 3.516 4.893-1.99-.578-1.433.221-.506zm20.947 48.371 1.097-2.706-1.203-2.962-4.893 1.99.394.975-.289.714zm-15.184 39.887-.497-1.156.481-1.192-4.894-1.987-1.313 3.239 1.37 3.188 4.854-2.091zm14.884 34.615-4.85 2.092 1.022 2.379h-34.79v10.239h51.651v-14.201h-12.816l-.219-.509z" clip-rule="evenodd"/><path fill="#560300" fill-opacity=".2" d="M660.064 344.949H539.232V207.09h30.659v-30.1h90.173z"/><path stroke="#000" stroke-linecap="round" stroke-linejoin="round" stroke-width="1.5" d="m625.573 321.2-3.938-3.938-1.203 1.202c-1.23 1.232-1.846 1.847-2.508 1.702s-.963-.963-1.565-2.596l-2.007-5.45c-1.201-3.259-1.803-4.888-.963-5.728s2.47-.24 5.73.962l5.45 2.006c1.633.602 2.45.903 2.596 1.565s-.47 1.277-1.702 2.508l-1.202 1.203 3.938 3.938c.408.408.612.612.706.84.125.303.125.643 0 .947-.094.227-.298.431-.706.839s-.612.612-.84.706a1.24 1.24 0 0 1-.947 0c-.227-.094-.43-.298-.839-.706"/></g><defs><clipPath id="a"><path fill="#fff" d="M0 0h661v354H0z"/></clipPath></defs></svg>