<svg xmlns="http://www.w3.org/2000/svg" width="20" height="39" fill="none"><path fill="#560300" d="m13.955 9.452.36.324q-.156.18-.456.42t-.756.456a5.886 5.886 0 0 1-2.424.492q-1.212 0-2.088-.372-.876-.384-1.44-.996a4.1 4.1 0 0 1-.84-1.416 5.2 5.2 0 0 1-.264-1.644q0-.972.336-1.752.336-.792.948-1.344a4.2 4.2 0 0 1 1.464-.864q.864-.3 1.908-.3.72 0 1.284.144t.984.396.696.6q.288.348.468.756h-.888a1.4 1.4 0 0 0-.3-.492 1.9 1.9 0 0 0-.54-.444 3.1 3.1 0 0 0-.756-.312q-.42-.12-.936-.12-.756 0-1.404.276-.636.276-1.104.768t-.732 1.176a4.2 4.2 0 0 0-.252 1.488q0 .768.24 1.476.252.708.732 1.248t1.2.864 1.656.324q1.68 0 2.904-1.152M10 14l1.732 3.75H8.268z"/><circle cx="10" cy="29" r="8.5" stroke="#560300" stroke-width="3"/></svg>