<svg width="24" height="20" viewBox="0 0 24 20" fill="none" xmlns="http://www.w3.org/2000/svg">
<path d="M21.4279 11.5227L13.8853 19.0667C13.3852 19.5666 12.7071 19.8474 11.9999 19.8474C11.2928 19.8474 10.6147 19.5666 10.1146 19.0667L2.57194 11.524C1.94844 10.9059 1.45315 10.1708 1.11452 9.36079C0.775882 8.55079 0.600571 7.68188 0.598649 6.80395C0.596726 5.92601 0.76823 5.05634 1.10331 4.24487C1.4384 3.43339 1.93046 2.6961 2.55125 2.0753C3.17205 1.45451 3.90935 0.962444 4.72082 0.627361C5.5323 0.292277 6.40196 0.120774 7.2799 0.122697C8.15783 0.124619 9.02674 0.299929 9.83674 0.638563C10.6467 0.977197 11.3819 1.47249 11.9999 2.09599C13.2554 0.871821 14.9425 0.191546 16.696 0.202533C18.4494 0.213519 20.1279 0.914882 21.3679 2.15469C22.6079 3.3945 23.3095 5.07291 23.3207 6.82635C23.332 8.57979 22.6519 10.2671 21.4279 11.5227Z" fill="#560300"/>
</svg>
