<svg xmlns="http://www.w3.org/2000/svg" width="22" height="18" fill="none"><path fill="#000" fill-rule="evenodd" d="M17.25 4a3.75 3.75 0 1 1-7.5 0 3.75 3.75 0 0 1 7.5 0M13.5 6.25a2.25 2.25 0 1 0 0-4.5 2.25 2.25 0 0 0 0 4.5M4.75 14a3.75 3.75 0 1 0 7.5 0 3.75 3.75 0 0 0-7.5 0m3.75 2.25a2.25 2.25 0 1 1 0-4.5 2.25 2.25 0 0 1 0 4.5" clip-rule="evenodd"/><path fill="#000" d="M13.25 13.959a.75.75 0 0 1 .75-.75h7a.75.75 0 0 1 0 1.5h-7a.75.75 0 0 1-.75-.75M8 3.209a.75.75 0 0 1 0 1.5H1a.75.75 0 0 1 0-1.5zM.25 13.959a.75.75 0 0 1 .75-.75h2a.75.75 0 0 1 0 1.5H1a.75.75 0 0 1-.75-.75M21 3.209a.75.75 0 0 1 0 1.5h-2a.75.75 0 0 1 0-1.5z"/></svg>