<svg xmlns="http://www.w3.org/2000/svg" width="226" height="477" fill="none"><g clip-path="url(#a)"><path fill="#560300" fill-opacity=".2" d="M124 231h95v61h-95z"/><path fill="#fff" fill-rule="evenodd" d="M21.242 191.606h32.636v14.449H21.242z" clip-rule="evenodd"/><path stroke="#000" stroke-linecap="round" stroke-linejoin="round" stroke-width=".184" d="M24.507 191.606v14.449m3.262-14.449v14.449m3.264-14.449v14.449m3.263-14.449v14.449m3.264-14.449v14.449m3.263-14.449v14.449m3.264-14.449v14.449m3.263-14.449v14.449m3.264-14.449v14.449m.217-6.135 3.047-1.091m0 0-3.047-1.091m3.047 1.091H21.242m32.636-7.223H21.242v14.449h32.636z"/><path fill="#fff" fill-rule="evenodd" d="M57.142 190.347H40.824l-6.527-14.448h22.845z" clip-rule="evenodd"/><path stroke="#000" stroke-linecap="round" stroke-linejoin="round" stroke-width=".184" d="M40.823 190.347h16.318v-14.448H34.296zm0 0v-14.448m13.055 14.448v-14.448m-3.264 14.448v-14.448m-3.264 14.448v-14.448m-3.263 14.448v-14.448m-6.527 7.223v-7.223m0 7.223 3.046-1.091m-3.046 1.091 3.046 1.091m-3.046-1.091H57.14m-19.581 7.225v-2.409m-3.264 2.409v-9.632m-3.263 9.632v-14.448m-3.264 14.448v-14.448m-3.262 14.448v-14.448m-.219 6.132-3.046 1.091m0 0 3.046 1.091m-3.046-1.091h14.142m3.264 7.225-6.528-14.448H21.242v14.448z"/><path fill="#fff" fill-rule="evenodd" d="M197.643 413.175v-36.007h14.405v36.007z" clip-rule="evenodd"/><path stroke="#000" stroke-linecap="round" stroke-linejoin="round" stroke-width=".184" d="M197.643 409.901h14.405m-14.405-3.273h14.405m-14.405-3.274h14.405m-14.405-3.273h14.405m-14.405-3.273h14.405m-14.405-3.273h14.405m-14.405-3.274h14.405m-14.405-3.274h14.405m-14.405-3.272h14.405m-14.405-3.274h14.405m-6.114-.217-1.088-3.057m-1.088 3.057 1.089-3.056v36.007m-7.204-36.007v36.007h14.405v-36.007z"/><path fill="#fff" fill-rule="evenodd" d="M196.621 380.441v9.82l-14.406 6.547v-16.367z" clip-rule="evenodd"/><path stroke="#000" stroke-linecap="round" stroke-linejoin="round" stroke-width=".184" d="M196.621 390.261v-9.82h-14.406v16.367zm0 0h-14.406m14.406-6.546h-14.406m14.406 3.272h-14.406m7.202 6.548h-7.202m7.202 0-1.088-3.056m1.088 3.056 1.088-3.056m-1.088 3.056v-13.094m7.204 13.094h-2.402m2.402 3.273h-9.604m9.604 3.273h-14.406m14.406 3.273h-14.406m14.406 3.274h-14.406m14.406 3.273h-14.406m6.114.218 1.088 3.056m0 0 1.088-3.056m-1.088 3.056v-17.458M21.561 2.182h15.772m-15.772 0v4.364h15.772V2.183m-15.772 0V0h15.772v2.182m7.415 0H60.52m-15.772 0v4.364H60.52V2.183m-15.772 0V0H60.52v2.182m25.759 0h15.772m-15.772 0v4.364h15.772V2.183m-15.772 0V0h15.772v2.182m7.588 0h15.771m-15.771 0v4.364h15.771V2.183m-15.771 0V0h15.771v2.182m40.088 0h15.771m-15.771 0v4.364h15.771V2.183m-15.771 0V0h15.771v2.182m7.484 0h15.774m-15.774 0v4.364h15.774V2.183m-15.774 0V0h15.774v2.182m-189.353 0H2.254v33.829m12.92-33.829v4.364H6.605v29.465h-4.35M15.173 2.182V0H.078v36.01h2.176M210.828 2.182h12.921m-12.921 0v4.364h8.57v29.267h4.351m-12.921-33.63V0h15.097v35.813h-2.176m0 10.651v15.82m0-15.82h-4.351v15.82h4.351m0-15.82h2.176v15.82h-2.176m0 11.295v25.594m0-25.594h-4.351v25.594h4.351m0-25.594h2.176v25.594h-2.176m0 8.413v25.594m0-25.594h-4.351v25.594h4.351m0-25.594h2.176v25.594h-2.176m0 17.19v25.595m0-25.595h-4.351v25.595h4.351m0-25.595h2.176v25.595h-2.176m0 17.118v25.596m0-25.596h-4.351v25.596h4.351m0-25.596h2.176v25.596h-2.176m0 20.875v15.82m0-15.82h-4.351v15.82h4.351m0-15.82h2.176v15.82h-2.176m0 14.864v15.821m0-15.821h-4.351v15.821h4.351m0-15.821h2.176v15.821h-2.176m0 14.363v15.819m0-15.819h-4.351v15.819h4.351m0-15.819h2.176v15.819h-2.176m0 14.692v15.82m0-15.82h-4.351v15.82h4.351m0-15.82h2.176v15.82h-2.176m0-310.94V2.183m-54.368 472.558h-15.772m15.772 0v-4.365h-15.772v4.365m15.772 0v2.182h-15.772v-2.182m-13.068 0h-15.772m15.772 0v-4.365h-15.772v4.365m15.772 0v2.182h-15.772v-2.182m-21.709 0H87.287l.001-.763v-3.602h15.772v4.365m0 0v2.182H87.287l.001-2.182m-12.78 0H58.735v-4.365h15.773v4.365m0 0v2.182H58.735v-2.182m-19.034 0H14.004m25.697 0v-4.365H14.004v4.365m25.697 0v2.182H14.004v-2.182m198.028 0h-25.697m25.697 0v-4.365h-25.697v4.365m25.697 0v2.182h-25.697v-2.182M2.255 460.033v-15.819m0 15.819h4.35v-15.819h-4.35m0 15.819H.077v-15.819h2.176m0-9.148v-15.82m0 15.82h4.351v-15.82h-4.35m0 15.82H.077v-15.82h2.176m0-56.954v-15.819m0 15.819h4.351v-15.819h-4.35m0 15.819H.077v-15.819h2.176m0-12.039v-15.821m0 15.821h4.351v-15.821h-4.35m0 15.821H.077v-15.821h2.176M.078 289.839v15.82h2.176m4.351-15.82v15.82h-4.35m0 0v-15.82m-2.177-.001h6.527m-4.35-11.797v-15.818m0 15.818h4.35v-15.818h-4.35m0 15.818H.077v-15.818h2.176m0-13.048v-25.477m0 25.477h4.351v-25.477h-4.35m0 25.477H.077v-25.477h2.176M.078 179.266V202.4h2.176m4.351-23.134V202.4h-4.35m0 0v-23.134m-2.177 0h6.527m-4.35-15.355v-15.82m0 15.82h4.35v-15.82h-4.35m0 15.82H.077v-15.82h2.176m0-9.684v-15.819m0 15.819h4.351v-15.819l-3.59-.001-.76.001m0 15.819H.077v-15.819h2.176m0-20.941V73.579m0 28.068h4.351V73.579h-4.35m0 28.068H.077V73.579h2.176m0-11.448V46.31m0 15.82h4.351V46.31h-4.35m0 15.82H.077V46.31h2.176m0 354.449v-25.477m0 25.477h4.351v-25.477h-4.35m0 25.477H.077v-25.477h2.176m90.623-305h3.481c1.899 0 3.765-.502 5.409-1.454l-5.41-9.397h-3.48m0 31.852h3.481c1.899 0 3.765-.5 5.409-1.453l-5.41-9.397h-3.48m8.659 90.176a10.8 10.8 0 0 1-5.41 1.454H93.3m8.237-1.454-5.41-9.397H93.3m11.377 32.555c1.581 0 3.134.42 4.503 1.212m87.442 197.464-14.406 6.546v14.185h14.406z"/><path stroke="#000" stroke-linecap="round" stroke-linejoin="round" stroke-width=".184" d="M104.673 193.769c.828 0 1.641-.219 2.358-.633l-2.358-4.096h-2.8280000000000003m7.332 5.94-4.504 7.823h-2.8280000000000003M79.162 35.44v1.6360000000000001c0 1.536.403 3.044 1.168 4.373l7.55-4.372V35.44m44.949 0v1.6360000000000001a8.75 8.75 0 0 1-1.168 4.373l-7.55-4.372V35.44m9.1 35.302h-3.482c-1.897 0-3.764-.502-5.408-1.454l5.408-9.396h3.482m0 25.402h-3.482c-1.897 0-3.764-.5-5.408-1.454l5.408-9.397h3.482m-9.936 32.26h-1.6320000000000001l-4.079-7.087a8.14 8.14 0 0 1 4.079-1.096 8.15 8.15 0 0 1-4.079-1.096l4.079-7.087h1.6320000000000001m-39.898 4.32v-1.6360000000000001c0-1.536.403-3.044 1.168-4.373l7.55 4.373v1.6360000000000001m-9.725 47.918v1.637c0 1.535.403 3.043 1.169 4.373l7.55-4.372v-1.6380000000000001m-8.544 51.194c1.58 0 3.134.419 4.504 1.211M82.545 193.768a4.7 4.7 0 0 0 2.358-.632l-2.358-4.096h-2.8280000000000003m7.332 5.94-4.504 7.823h-2.8280000000000003m13.158 13.29h3.481c1.9 0 3.765.5 5.41 1.453l-5.41 9.397h-3.481m-9.497 3.714v-1.637c0-1.534.402-3.042 1.167-4.37l7.55 4.37v1.637m-8.556 52.657a8.77 8.77 0 0 1-1.168-4.374v-1.637m1.168 6.01 7.55-4.373v-1.637m2.22 33.052h2.83c1.898 0 3.763-.501 5.408-1.453l-5.409-9.399H93.31m0 15.09h2.8280000000000003c1.899 0 3.764.502 5.409 1.453l-5.409 9.397H93.31m0 68.032h2.8280000000000003c1.899 0 3.764.502 5.409 1.454l-5.409 9.396H93.31m0 10.272h2.8280000000000003c1.899 0 3.764.5 5.409 1.454l-5.409 9.396H93.31m-11.033-81.944v-1.6360000000000001c0-1.535.403-3.043 1.168-4.373l7.55 4.373v1.6360000000000001m-7.559 47.41v1.638c0 1.535.403 3.043 1.168 4.373l7.55-4.374v-1.637m-5.986 57.013h-1.6320000000000001c-1.53 0-3.034.404-4.36 1.171l4.36 7.576h1.6320000000000001m54.103-11.626a8.77 8.77 0 0 0-1.168-4.372l-7.55 4.373v1.637m8.718-1.637v1.637m-15.338-271.687a10.8 10.8 0 0 0 5.409 1.455h2.8280000000000003m-8.237-1.454 5.409-9.397h2.8280000000000003m0 29.083h-2.8280000000000003c-1.899 0-3.765.501-5.409 1.453l5.409 9.4h2.8280000000000003m.054 89.824h-2.8289999999999997a10.8 10.8 0 0 0-5.408 1.453l5.408 9.397h2.8289999999999997m0-15.197h-2.8289999999999997a10.8 10.8 0 0 1-5.408-1.454l5.408-9.396h2.8289999999999997m-11.793 93.356a9 9 0 0 1-4.504-1.208M119.075 374.156a4.7 4.7 0 0 1 2.357-.635m-4.504-1.208 4.504-7.826h2.829m-5.187 9.67 2.358 4.096h2.829m0 35.474h-2.829c-1.899 0-3.764.501-5.409 1.453l5.409 9.397h2.829m5.579 7.517h-1.741l-1.088.001c-1.899 0-3.765.501-5.409 1.455l5.409 9.396h2.829m14.481-107.545v-1.637a8.76 8.76 0 0 0-1.168-4.371l-7.55 4.371v1.637m-18.25-12.452a8.14 8.14 0 0 1 4.079-1.098"/><path stroke="#000" stroke-linecap="round" stroke-linejoin="round" stroke-width=".184" d="M121.431 321.852a8.13 8.13 0 0 1-4.079-1.097l4.079-7.087h1.633m-5.712 9.281 4.079 7.086h1.633m19.922-219.218a8.8 8.8 0 0 1 1.166 4.372v1.637m-1.166-6.009-7.552 4.372v1.637m8.825 45.939v1.637a8.8 8.8 0 0 1-1.168 4.372l-7.552-4.372v-1.637m8.265 88.813v1.636a8.77 8.77 0 0 1-1.168 4.373l-7.55-4.373v-1.636m8.131-49.214a8.77 8.77 0 0 1 1.168 4.373v1.637m-1.168-6.009-7.55 4.373v1.636m43.174 166.538a8.97 8.97 0 0 1-4.503-1.211"/><path stroke="#000" stroke-linecap="round" stroke-linejoin="round" stroke-width=".184" d="M178.843 374.912a4.7 4.7 0 0 0-2.359.633l2.359 4.096h3.372m-7.876-5.94 4.504-7.824h3.372m-29.516 20.738H137.62m15.079 0v1.746m0-1.746v-.545m-15.079.545v1.746m0-1.746v-.545m36.43.545h-11.786m11.786 0v1.746m0-1.746v-.545m-11.786.545v1.746m0-1.746v-.545m51.96-19.911v58.468m0-58.468h-2.176v58.468h2.176m0-58.468h2.175v58.468h-2.175m-84.079-34.261h23.283l-23.283 16.822m0-16.822v16.822m0-16.822 23.283 16.822m-23.283 0h23.283m0 0v-16.821m8.437-.001h12.434l-12.434 16.822m0-16.822v16.822m0-16.822 12.434 16.822m-12.434 0h12.434m0 0v-16.821"/><path fill="#000" stroke="#000" stroke-miterlimit="10" stroke-width=".2" d="M15.172 0h6.386v6.547h-6.385zM37.33 0h7.415v6.547H37.33zm143.936 0h7.484v6.547h-7.483zm23.258 0h6.301v6.547h-6.301z"/><path fill="#000" fill-rule="evenodd" stroke="#000" stroke-miterlimit="10" stroke-width=".2" d="M219.396 359.612h-61.991v-25.848H144.32v1.637h11.453v24.211h-25.621v-24.211h5.45v-1.637h-2.377v-27.552h-2.829v.829h-8.964v6.627h1.631v-4.99h7.333v24.431h-7.333v-3.075h-1.631v34.453h2.828v-1.493h54.582v2.884h3.372v-2.883h29.834v3.164h13.875v-19.406h-6.527zm-95.135 0v-24.211h4.26v24.211z" clip-rule="evenodd"/><path fill="#000" stroke="#000" stroke-miterlimit="10" stroke-width=".2" d="M219.396 316.241h6.528v14.692h-6.528z"/><path fill="#000" fill-rule="evenodd" stroke="#000" stroke-miterlimit="10" stroke-width=".2" d="M219.397 291.796h-86.172v-.781h-2.829v4.347h2.83v-.729h13.86v.654h13.177v-.654h59.134v5.789h6.527v-14.363h-6.527z" clip-rule="evenodd"/><path fill="#000" stroke="#000" stroke-miterlimit="10" stroke-width=".2" d="M219.396 255.374h6.528v14.864h-6.528z"/><path fill="#000" fill-rule="evenodd" stroke="#000" stroke-miterlimit="10" stroke-width=".2" d="M219.396 228.425H157.47v-21.687h-13.085v1.636h11.454v20.051h-25.7v-20.051h5.529v-1.636h-2.498v-1.201h-11.691v73.777h8.917v.85h2.829v-3.687h-8.918v-12.478h5.832v-10.785h4.948v-1.637h-4.948v-20.315h16.947v.654h8.753v19.661h-12.035v1.637h13.666v-21.298h2.792v-.654h59.134v8.291h6.527v-20.874h-6.527zm-91.541-20.051v20.593h-3.548v-20.593zm0 22.885v19.191h-3.548v-19.191zm-3.548 30.449v-8.967h3.548v8.967zm95.089-78.168h-59.92v-.654H146.3v.654h-13.13v-7.087h-2.828v.532h-3.303v17.158h3.303v.542h2.828v-8.308h86.226v6.705h6.527v-17.118h-6.527v7.576Zm-89.054 8.967h-1.671v-3.122h1.671zm0-4.759h-1.671v-4.272h1.671zm0-5.91h-1.671v-3.216h1.671zm89.054-42.424h-61.645v-24.225h-13.598v1.637h11.966v22.588h-25.736v-18.762h2.829v-3.826h2.223v-1.637h-2.223V85.294h-3.482v.76h-8.086v4.283h1.632V87.69h7.107v21.592h-7.107v-2.579h-1.632v58.899h11.526v-1.2h2.37v-1.637h-5.157v-20.514h16.703v.655h9.033v19.859H144.26v1.637h13.491v-21.496h2.51v-.655h59.135v8.119h6.527v-17.19h-6.527zm-96.12-28.495h7.107v7.487h-7.107zm4.822 9.669v19.232h-3.625v-19.232zm-3.625 42.177v-20.762h3.625v20.762z" clip-rule="evenodd"/><path fill="#000" stroke="#000" stroke-miterlimit="10" stroke-width=".2" d="M219.396 99.173h6.528v8.413h-6.528z"/><path fill="#000" fill-rule="evenodd" stroke="#000" stroke-miterlimit="10" stroke-width=".2" d="M219.396 70.742H129.73v3.7h3.482v-.864h13.48v.655h13.176v-.655h66.055V62.283h-6.527z" clip-rule="evenodd"/><path fill="#000" stroke="#000" stroke-miterlimit="10" stroke-width=".2" d="M219.396 35.813h6.527v10.651h-6.527zM39.699 470.376h19.035v6.547H39.699zm129.681 0h16.952v6.547H169.38z"/><path fill="#000" fill-rule="evenodd" stroke="#000" stroke-miterlimit="10" stroke-width=".2" d="M6.605 460.033H.078v16.89h13.926v-6.547H6.605z" clip-rule="evenodd"/><path fill="#000" stroke="#000" stroke-miterlimit="10" stroke-width=".2" d="M.078 36.01h6.527v10.3H.078z"/><path fill="#000" fill-rule="evenodd" stroke="#000" stroke-miterlimit="10" stroke-width=".2" d="M6.605 117.355h63.352v26.857h12.416v-1.637H71.589V118.01h11.937v-.655h12.399v25.22h-4.834v1.637h11.285v14.164h-9.077v2.837h2.828v-.546h8.534V91.82h-8.302v-.536h-3.482v1.736h-.78v1.637h3.828v19.861h-24.4v-19.86H83.38V93.02H69.894v21.498H6.604v-12.871H.078v20.94h6.527zm91.496 25.22v-25.547h4.275v25.547zm4.275-47.918v20.189h-4.275V94.657z" clip-rule="evenodd"/><path fill="#000" stroke="#000" stroke-miterlimit="10" stroke-width=".2" d="M.078 138.407h6.527v9.684H.078z"/><path fill="#000" fill-rule="evenodd" stroke="#000" stroke-miterlimit="10" stroke-width=".2" d="M6.605 175.899H79.72v13.141h2.828v-1.96h19.3v1.96h2.829v-16.525h-8.55v-.451h-2.828v.997H6.606v-9.15H.078v15.355h6.527zm86.694 0h8.548v9.544H91.408v-9.544zm-3.524 0v9.544h-7.228v-9.544h7.23zm-83.17 32.993h86.272v7.201h3.482v-4.142h8.317v-9.148h-2.829v3.252h-19.3v-3.252h-2.828v3.252H6.605V202.4H.078v21.298h6.527zm96.439 0v1.422h-6.685v-1.422zM6.605 254.82h63.352v24.12h12.416v-1.636H71.589v-21.829h11.937v-.654h12.399v22.483h-4.834v1.636h7.01v16.43h-4.79v4.133h2.829v-1.296h8.521V227.82h-8.302v-.878h-3.482v2.079h-.78v1.636h3.828v21.326h-24.4v-21.326H83.38v-1.636H69.894v22.964H6.604v-2.809H.078v13.048h6.527v-7.404Zm91.496 22.484v-22.809h4.275v22.809zm4.275 1.636v4.663h-1.991v-4.663zm0 6.301v4.996h-1.991v-4.996zm-1.991 11.329v-4.696h1.991v4.696zm1.991-65.913v21.656h-4.275v-21.656z" clip-rule="evenodd"/><path fill="#000" stroke="#000" stroke-miterlimit="10" stroke-width=".2" d="M.078 278.041h6.527v11.797H.078z"/><path fill="#000" fill-rule="evenodd" stroke="#000" stroke-miterlimit="10" stroke-width=".2" d="M6.605 313.865h86.707v.728h2.828v-4.238H93.31v.673H83.203v-.654H70.027v.654H6.605v-5.369H.078v12.954h6.527z" clip-rule="evenodd"/><path fill="#000" stroke="#000" stroke-miterlimit="10" stroke-width=".2" d="M.078 334.434h6.527v12.039H.078z"/><path fill="#000" fill-rule="evenodd" stroke="#000" stroke-miterlimit="10" stroke-width=".2" d="M6.605 371.461h63.422v21.089h13.411v-1.637h-11.78v-19.452h24.266v19.11h-2.613v.342h-1.156v1.637h1.156v.925h2.828v-.722h8.645V325.89h-8.645v-.446h-2.828v3.283h8.644v13.14H90.997v1.636h4.927v25.121H83.202v-.654H71.66v-24.467h10.62v-1.636H70.026v26.757H6.605v-6.332H.078v12.991h6.527zm91.496 19.11v-19.708h4.399v19.708zm4.399-47.068v25.178h-4.4v-25.178z" clip-rule="evenodd"/><path fill="#000" stroke="#000" stroke-miterlimit="10" stroke-width=".2" d="M.078 435.066h6.527v9.148H.078z"/><path fill="#000" fill-rule="evenodd" stroke="#000" stroke-miterlimit="10" stroke-width=".2" d="M69.957 73.58v.654h13.57v-.655h9.35v6.856h3.482V70.283h-3.482v.46H6.605V62.13H.078v11.447zm5.767-36.503h3.44V35.44h-1.81V6.547h8.925V0H60.52v6.547h15.204zm58.744-1.637h-1.636v1.637h3.268V6.547h29.398V0H125.41v6.547h9.058zM95.69 54.673h-2.813v4.758h3.482v-.613h33.373v1.073h3.48v-5.22h-17.06V37.078h7.961V35.44h-16.051V6.547h1.577V0h-7.588v6.547h1.66V35.44H87.884v1.637h7.807v17.597zm1.632 0V45.77h6.661v8.902zm10.469 0V45.77h6.73v8.902h-6.731zm6.73-17.596v7.058h-6.731v-7.058zm-10.81 0h.272v7.058h-6.661v-7.058zm-10.4 376.778v.742h2.829v-10.271H93.31v6.692H83.203v-.654H70.027v.654H6.605V400.76H.078v18.486h6.527v-5.391zm36.53 29.992v-.901h-2.829v.901h-22.02v-17.278H96.14v-1.122H93.31v3.959h5.143v15.642H84.537v2.878h1.632v-1.241h25.156v23.691h-8.267v6.547h21.71v-6.547h-.618v-23.691h7.404v-1.637h-1.714zm-26.481-6.053h-2.078v-4.135h2.078zm0-9.588v3.817h-2.078v-3.817zm-2.078 15.642v-4.417h2.078v4.417zm12.872 26.528v-15.654h7.169v15.654zm7.169-18.491h-7.169v-5.2h7.169zm-35.153 4.788h-1.632v13.703h-10.03v6.547h12.78v-6.547H86.17zm66.211-5.22h-8.529v-6.405h-3.579v1.637h1.947v6.405h8.529v17.286h-10.208v6.547h13.068v-6.547h-1.228zm59.667-26.826v3.164h-29.833v-48.15h-3.371v6.428h-4.794v2.292h4.794v23.031h-19.793v-23.031h3.214v-2.292H152.7v2.292h4.066v23.031h-32.505v-23.031h13.359v-2.292h-5.062v-6.046h-8.297v-1.771h-2.828v35.474h2.828v-.043h23.822v14.108H130.42v-3.214h-8.988v6.051h5.579v1.466h2.829v-.921h89.557v39.203h-7.367v6.547h13.894v-52.296h-13.876Zm-87.787-42.968h6.665v4.41h-6.665zm0 46.132v-2.123h5.071v2.123zm54.583-14.108v5.416h-28.476v-5.416zm-28.476 14.108v-7.055h28.476v7.055z" clip-rule="evenodd"/><path fill="#000" d="M42.556 39.4h.409v.307h-.41v.687h-.376v-.687h-1.343v-.22l1.32-2.05h.4zm-1.294 0h.917v-1.45l-.044.082zm3.965.994h-1.932v-.27l1.02-1.137a2.5 2.5 0 0 0 .313-.42.7.7 0 0 0 .087-.334.53.53 0 0 0-.14-.38.49.49 0 0 0-.373-.147q-.28 0-.434.159-.155.16-.156.443h-.374q0-.407.262-.66.262-.25.702-.252.411 0 .65.217a.74.74 0 0 1 .239.575q0 .438-.555 1.04l-.79.86h1.48zm.423.589-.213-.146a1 1 0 0 0 .199-.549v-.34h.366v.296a.9.9 0 0 1-.1.41 1 1 0 0 1-.252.329m2.222-1.889a.9.9 0 0 1-.28.226.75.75 0 0 1-.358.085.8.8 0 0 1-.444-.126.8.8 0 0 1-.292-.354 1.2 1.2 0 0 1-.104-.505q0-.297.113-.534a.82.82 0 0 1 .318-.364.9.9 0 0 1 .482-.126.82.82 0 0 1 .69.328q.252.328.252.895v.11q0 .862-.34 1.26-.34.397-1.027.407h-.073v-.319h.08q.463-.008.712-.243.25-.233.271-.74m-.577 0a.58.58 0 0 0 .348-.115.67.67 0 0 0 .232-.287v-.15q0-.37-.16-.6-.161-.233-.405-.233a.48.48 0 0 0-.397.19q-.15.19-.15.501 0 .303.145.499a.46.46 0 0 0 .387.195m42.152-19.103v.319h-.069q-.437.008-.696.26-.26.252-.3.708.232-.267.636-.268.383 0 .614.272.23.273.23.703 0 .457-.248.731-.247.274-.665.274a.84.84 0 0 1-.686-.326q-.264-.325-.264-.84v-.143q0-.817.348-1.248.346-.432 1.033-.442zm-.491 1.332a.6.6 0 0 0-.355.115.6.6 0 0 0-.225.291v.139q0 .364.165.589a.49.49 0 0 0 .408.223.48.48 0 0 0 .398-.187.78.78 0 0 0 .145-.49.78.78 0 0 0-.147-.492.47.47 0 0 0-.39-.188m1.376 2.215-.213-.146a.97.97 0 0 0 .198-.547v-.34h.367v.294a.9.9 0 0 1-.1.41 1 1 0 0 1-.252.33m.96-2.07.15-1.475h1.51v.347H91.76l-.09.806a.95.95 0 0 1 .492-.127q.403 0 .64.266.237.268.237.723 0 .456-.246.719t-.687.263q-.392 0-.638-.217-.248-.217-.282-.601h.355a.6.6 0 0 0 .18.383c.108.09.245.135.385.129a.5.5 0 0 0 .41-.18q.149-.178.148-.492a.7.7 0 0 0-.16-.477.55.55 0 0 0-.428-.18.6.6 0 0 0-.385.109l-.1.08zm29.129-1.477v.319h-.069q-.436.008-.696.26-.258.252-.299.708.233-.267.635-.268.385 0 .614.272.231.273.231.703 0 .457-.248.731t-.666.274a.84.84 0 0 1-.686-.326q-.263-.325-.263-.84v-.143q0-.817.348-1.248.346-.432 1.033-.442zm-.491 1.332a.6.6 0 0 0-.354.115.6.6 0 0 0-.225.291v.139q0 .364.164.589a.49.49 0 0 0 .408.223.47.47 0 0 0 .398-.187.77.77 0 0 0 .146-.49.78.78 0 0 0-.148-.492.47.47 0 0 0-.389-.188m1.376 2.215-.212-.146a1 1 0 0 0 .198-.547v-.34h.367v.294a.9.9 0 0 1-.1.41 1 1 0 0 1-.253.33m2.369-1.582h.409v.308h-.409v.685h-.376v-.686h-1.343v-.22l1.32-2.05h.399zm-1.293 0h.917v-1.45l-.045.082zm56.468 16.186h.41v.306h-.41v.687h-.376v-.686h-1.343v-.221l1.32-2.05h.399zm-1.293 0h.917v-1.45l-.045.08zm3.82-1.192a.7.7 0 0 1-.116.394.8.8 0 0 1-.315.27.85.85 0 0 1 .366.29.74.74 0 0 1 .134.433q0 .384-.258.611-.258.228-.68.227-.425 0-.68-.228a.77.77 0 0 1-.257-.61q0-.24.131-.433a.8.8 0 0 1 .361-.292.77.77 0 0 1-.31-.27.7.7 0 0 1-.113-.392q0-.374.239-.593.239-.22.629-.22t.63.22q.239.22.239.593m-.305 1.38a.545.545 0 0 0-.346-.526.6.6 0 0 0-.221-.036.55.55 0 0 0-.407.154.547.547 0 0 0-.152.407q0 .252.149.396.15.144.414.144.263 0 .413-.145.15-.146.15-.395m-.564-1.883a.48.48 0 0 0-.357.136.5.5 0 0 0-.136.373.504.504 0 0 0 .134.363.48.48 0 0 0 .359.14.48.48 0 0 0 .36-.138.5.5 0 0 0 .135-.364.52.52 0 0 0-.14-.368.48.48 0 0 0-.355-.142m1.436 3.276-.212-.146a1 1 0 0 0 .198-.547v-.34h.367v.294a.94.94 0 0 1-.1.411 1 1 0 0 1-.253.328m.959-2.07.15-1.475h1.511v.347h-1.193l-.089.806c.15-.086.32-.13.492-.127q.403 0 .64.267t.237.722q0 .457-.246.72-.246.261-.688.262-.39.001-.637-.217-.247-.217-.281-.601h.353q.036.255.181.383c.108.09.245.135.384.129a.5.5 0 0 0 .411-.179q.149-.18.149-.493a.69.69 0 0 0-.161-.476.55.55 0 0 0-.429-.18.6.6 0 0 0-.385.108l-.099.081zm.253 67.01h.409v.307h-.409v.686h-.376v-.686h-1.343v-.221l1.32-2.049h.399zm-1.294 0h.917v-1.45l-.044.082zm3.965.993h-1.932v-.269l1.021-1.138q.226-.258.313-.419a.7.7 0 0 0 .086-.334.53.53 0 0 0-.14-.38.48.48 0 0 0-.372-.148q-.28 0-.435.16-.155.159-.155.443h-.374q0-.41.262-.66t.702-.252q.41 0 .649.217.24.215.239.575 0 .438-.554 1.039l-.791.859h1.481zm.422.589-.211-.146a1 1 0 0 0 .198-.548v-.34h.367v.295a.94.94 0 0 1-.1.411 1 1 0 0 1-.254.328m2.576-2.774a.7.7 0 0 1-.116.394.8.8 0 0 1-.315.27.84.84 0 0 1 .365.29c.09.127.137.278.135.433q0 .384-.258.611-.258.228-.68.228-.425 0-.681-.228a.78.78 0 0 1-.256-.611q0-.239.131-.433a.8.8 0 0 1 .361-.292.76.76 0 0 1-.31-.27.7.7 0 0 1-.113-.392q0-.374.238-.593.24-.219.63-.219t.629.22q.24.218.24.592m-.306 1.379a.54.54 0 0 0-.345-.524.6.6 0 0 0-.221-.036.55.55 0 0 0-.407.154.54.54 0 0 0-.152.406q0 .253.149.396t.413.144q.264 0 .414-.145a.52.52 0 0 0 .149-.395m-.563-1.882a.48.48 0 0 0-.356.136.5.5 0 0 0-.138.374.5.5 0 0 0 .135.364.48.48 0 0 0 .359.139.48.48 0 0 0 .36-.139.51.51 0 0 0 .135-.364.51.51 0 0 0-.14-.368.484.484 0 0 0-.355-.142M39.083 94.383h-1.932v-.27l1.021-1.137q.226-.258.313-.42a.7.7 0 0 0 .086-.333.53.53 0 0 0-.14-.38.49.49 0 0 0-.372-.148q-.28 0-.435.16-.155.158-.155.442h-.374q0-.407.262-.66.262-.25.702-.251.41 0 .649.216.24.217.24.575 0 .439-.556 1.04l-.79.86h1.481zm.56-1.482.15-1.474h1.51v.346h-1.191l-.09.807c.15-.086.32-.13.493-.128q.402 0 .64.267.236.266.236.723t-.245.719q-.247.263-.687.263-.392 0-.638-.217-.248-.218-.282-.601h.354q.035.253.18.383c.108.09.246.135.386.128a.5.5 0 0 0 .41-.179q.148-.177.148-.493a.7.7 0 0 0-.16-.476.55.55 0 0 0-.429-.18q-.245 0-.385.108l-.1.081zm2.183 2.07-.212-.145a1 1 0 0 0 .198-.548v-.34h.367v.295a.9.9 0 0 1-.1.41 1 1 0 0 1-.253.329m2.691-3.333-1.222 2.745h-.392l1.217-2.648h-1.596v-.308h1.993zm-5.055 55.77h.28q.266-.003.418-.139a.47.47 0 0 0 .152-.368q0-.52-.517-.52a.54.54 0 0 0-.387.139.48.48 0 0 0-.145.369h-.375a.76.76 0 0 1 .257-.585.93.93 0 0 1 .65-.231q.417 0 .654.221t.237.615a.65.65 0 0 1-.124.374.75.75 0 0 1-.34.269c.15.043.282.133.376.257.091.127.138.28.133.436q0 .399-.26.631-.258.234-.673.234t-.676-.225a.75.75 0 0 1-.26-.594h.376q.001.232.152.373.153.14.407.14.272 0 .415-.142.144-.143.145-.408a.5.5 0 0 0-.158-.397q-.159-.136-.456-.142h-.281zm3.245-1.297v.319h-.07q-.436.008-.696.26-.258.252-.299.708.233-.268.636-.268.383 0 .614.272.23.273.23.704 0 .456-.248.73t-.665.274a.84.84 0 0 1-.687-.326q-.263-.326-.263-.839v-.144q0-.817.348-1.248.345-.432 1.033-.442zm-.491 1.332a.6.6 0 0 0-.355.115.6.6 0 0 0-.225.292v.137q0 .366.164.59a.49.49 0 0 0 .409.223.47.47 0 0 0 .397-.187.77.77 0 0 0 .146-.49.78.78 0 0 0-.147-.492.477.477 0 0 0-.39-.188m1.376 2.216-.213-.147a1 1 0 0 0 .199-.547v-.34h.366v.295a.9.9 0 0 1-.1.41 1 1 0 0 1-.252.329m2.018-.589h-.377v-2.504l-.755.277v-.34l1.073-.404h.059zm-4.14 83.333h-1.93v-.269l1.02-1.138q.227-.258.312-.42a.7.7 0 0 0 .086-.334.53.53 0 0 0-.14-.379.48.48 0 0 0-.372-.148q-.279 0-.434.159-.155.16-.155.444h-.375q0-.409.263-.66.262-.251.701-.252.412 0 .65.217a.74.74 0 0 1 .24.575q0 .437-.556 1.039l-.79.86h1.481zm1.86-2.959v.319h-.07q-.437.008-.696.26-.26.252-.3.709.234-.269.636-.269.384 0 .614.273.23.272.23.703 0 .457-.247.731-.248.274-.666.274a.84.84 0 0 1-.686-.326q-.264-.327-.263-.839v-.144q0-.817.347-1.248.347-.433 1.034-.443zm-.492 1.332a.6.6 0 0 0-.355.116.6.6 0 0 0-.224.291v.138q0 .365.164.589a.49.49 0 0 0 .408.223.47.47 0 0 0 .398-.187.77.77 0 0 0 .145-.489.8.8 0 0 0-.147-.493.48.48 0 0 0-.39-.187zm1.376 2.216-.212-.146a1 1 0 0 0 .198-.548v-.34h.366v.295a.9.9 0 0 1-.1.41 1 1 0 0 1-.252.329m2.69-3.334-1.22 2.745h-.393l1.217-2.648h-1.595v-.308h1.992zm-6.82 53.52h.281a.62.62 0 0 0 .418-.141.47.47 0 0 0 .151-.368q0-.519-.516-.519a.54.54 0 0 0-.388.138.49.49 0 0 0-.145.37h-.374q0-.351.256-.584a.93.93 0 0 1 .651-.233q.417 0 .654.222.237.22.236.616a.65.65 0 0 1-.124.373.76.76 0 0 1-.34.27c.15.042.282.132.377.256a.7.7 0 0 1 .133.436q0 .4-.26.632-.258.233-.674.234-.416 0-.675-.226a.74.74 0 0 1-.26-.595h.376q0 .234.152.373.152.141.407.141.271 0 .415-.142.144-.143.144-.408a.5.5 0 0 0-.158-.396q-.157-.138-.456-.142h-.28zm3.679-1.085-1.221 2.746h-.393l1.217-2.648H41.77v-.309h1.992zm.451 3.335-.212-.146a1 1 0 0 0 .198-.549v-.338h.366v.293a.9.9 0 0 1-.1.411 1 1 0 0 1-.252.329m2.637-1.85q0 .66-.225.981t-.703.321q-.472 0-.699-.314-.226-.315-.235-.937v-.502q0-.651.225-.969.224-.317.705-.317.476 0 .7.306.225.307.23.943zm-.376-.514q0-.477-.133-.696-.134-.219-.423-.218-.288 0-.42.218-.13.217-.135.668v.6q0 .48.138.709a.47.47 0 0 0 .42.228.45.45 0 0 0 .413-.216q.135-.216.14-.677zm-6.39 58.097h.28a.62.62 0 0 0 .418-.14.48.48 0 0 0 .151-.368q0-.52-.516-.52a.54.54 0 0 0-.388.138.49.49 0 0 0-.145.37h-.374a.76.76 0 0 1 .256-.584.94.94 0 0 1 .651-.232q.417 0 .654.221t.236.616a.65.65 0 0 1-.124.373.76.76 0 0 1-.34.27c.15.042.282.132.377.255a.7.7 0 0 1 .133.437q0 .399-.26.632-.258.233-.674.234-.416 0-.675-.226a.75.75 0 0 1-.26-.596h.376a.48.48 0 0 0 .152.375.58.58 0 0 0 .407.14q.271 0 .415-.142.144-.143.144-.408a.5.5 0 0 0-.158-.397q-.157-.137-.456-.142h-.28zm1.946.178.15-1.474h1.51v.347H42.5l-.089.806a.96.96 0 0 1 .492-.128q.403 0 .64.268.237.266.237.722 0 .458-.246.719-.246.264-.687.264-.392 0-.638-.217-.248-.219-.282-.602h.355q.035.254.18.382c.107.09.245.136.385.13a.52.52 0 0 0 .41-.179q.148-.178.148-.493a.7.7 0 0 0-.16-.477.54.54 0 0 0-.429-.179.62.62 0 0 0-.384.107l-.1.081zm2.183 2.072-.212-.146a1 1 0 0 0 .198-.549v-.339h.366v.295a.9.9 0 0 1-.1.41 1 1 0 0 1-.252.329m2.369-1.582h.409v.307h-.41v.686h-.375v-.686h-1.343v-.222l1.32-2.048h.399zm-1.294 0h.917v-1.451l-.045.082zm-6.683 53.103h-1.932v-.27l1.02-1.137q.228-.258.313-.42a.7.7 0 0 0 .087-.333.53.53 0 0 0-.14-.381.498.498 0 0 0-.372-.148q-.28 0-.435.159-.155.16-.155.445h-.375q0-.408.263-.66.262-.253.701-.252.411 0 .65.216a.74.74 0 0 1 .239.575q0 .437-.555 1.04l-.79.86h1.48zm1.97-.993h.408v.307h-.409v.687H40.2v-.687h-1.343v-.222l1.32-2.048h.4zm-1.294 0h.917v-1.45l-.044.081zm2.067 1.582-.213-.146a1 1 0 0 0 .2-.549v-.338h.365v.294a.9.9 0 0 1-.1.41 1 1 0 0 1-.252.329m2.575-2.774a.7.7 0 0 1-.117.394.8.8 0 0 1-.314.271.85.85 0 0 1 .366.29c.089.126.136.277.134.432q0 .384-.258.611-.258.228-.68.228-.425 0-.68-.229a.78.78 0 0 1-.257-.61q0-.24.13-.432a.8.8 0 0 1 .362-.293.8.8 0 0 1-.31-.269.7.7 0 0 1-.113-.393q0-.373.239-.593.24-.219.63-.219.388 0 .629.219.24.22.24.592zm-.305 1.378a.55.55 0 0 0-.157-.403.55.55 0 0 0-.41-.157.55.55 0 0 0-.407.154.55.55 0 0 0-.152.407q0 .252.148.396.15.144.415.144.263 0 .413-.145t.15-.396m-.564-1.882a.47.47 0 0 0-.357.138.5.5 0 0 0-.136.372.5.5 0 0 0 .134.364q.135.14.36.139a.48.48 0 0 0 .36-.139.5.5 0 0 0 .134-.364.482.482 0 0 0-.494-.51m-.454 51.504h.28a.62.62 0 0 0 .418-.14.46.46 0 0 0 .152-.367q0-.52-.516-.521a.54.54 0 0 0-.388.139.5.5 0 0 0-.145.369h-.374a.76.76 0 0 1 .256-.584.93.93 0 0 1 .65-.232q.418 0 .655.221.236.22.236.615a.65.65 0 0 1-.124.375.75.75 0 0 1-.34.269c.15.042.282.132.377.256a.7.7 0 0 1 .132.437q0 .398-.26.631-.258.234-.673.234t-.675-.225a.75.75 0 0 1-.261-.596h.377a.5.5 0 0 0 .151.375.58.58 0 0 0 .407.139q.272 0 .416-.142t.144-.408a.5.5 0 0 0-.158-.396q-.157-.138-.456-.143H42.6zm3.21.362a.9.9 0 0 1-.28.225.75.75 0 0 1-.357.084.8.8 0 0 1-.445-.124.8.8 0 0 1-.291-.355 1.2 1.2 0 0 1-.105-.505q0-.296.113-.534a.84.84 0 0 1 .319-.364.9.9 0 0 1 .481-.125.82.82 0 0 1 .69.328q.253.327.252.894v.11q0 .863-.34 1.26-.34.398-1.027.407h-.073v-.319h.08q.463-.008.712-.242.25-.233.271-.74m-.577 0a.58.58 0 0 0 .348-.116.7.7 0 0 0 .232-.287v-.15q0-.369-.16-.6-.16-.233-.405-.232a.48.48 0 0 0-.397.189q-.15.19-.15.501a.82.82 0 0 0 .145.499.46.46 0 0 0 .387.196m1.488 1.888-.212-.146a1 1 0 0 0 .198-.549v-.339h.367v.295a.95.95 0 0 1-.1.411 1 1 0 0 1-.253.328m2.567-2.773a.7.7 0 0 1-.116.392.8.8 0 0 1-.315.271.85.85 0 0 1 .366.29c.09.127.136.278.134.433q0 .384-.258.611-.259.228-.679.228-.425 0-.681-.228a.78.78 0 0 1-.257-.611.76.76 0 0 1 .13-.433.8.8 0 0 1 .362-.292.8.8 0 0 1-.31-.27.7.7 0 0 1-.113-.392q0-.374.239-.593.24-.219.63-.219.388 0 .629.219.24.22.24.593zm-.305 1.378a.54.54 0 0 0-.346-.524.6.6 0 0 0-.22-.036.55.55 0 0 0-.408.154.55.55 0 0 0-.152.406q0 .252.15.396.147.144.413.144.264 0 .413-.145.15-.145.15-.395m-.563-1.883a.5.5 0 0 0-.193.032.5.5 0 0 0-.165.105.51.51 0 0 0-.136.373q0 .225.134.364a.48.48 0 0 0 .36.139.475.475 0 0 0 .36-.138.5.5 0 0 0 .134-.365.5.5 0 0 0-.14-.368.47.47 0 0 0-.354-.142m135.208 12.347h-1.932v-.271l1.021-1.136q.227-.26.312-.42a.7.7 0 0 0 .086-.334.53.53 0 0 0-.139-.38.48.48 0 0 0-.373-.148q-.279 0-.434.159t-.155.444h-.375q0-.408.263-.66.261-.252.701-.252.411 0 .65.216a.74.74 0 0 1 .239.576q0 .437-.555 1.04l-.789.859h1.48zm.56-1.483.151-1.474h1.51v.347h-1.192l-.09.806c.15-.086.32-.13.493-.128q.402 0 .639.267t.237.722q0 .457-.246.72-.247.263-.687.264-.392 0-.638-.218-.247-.217-.282-.601h.354a.6.6 0 0 0 .18.382c.108.09.246.136.386.13a.51.51 0 0 0 .41-.179q.149-.178.149-.493a.69.69 0 0 0-.162-.477.537.537 0 0 0-.428-.179q-.245 0-.384.107l-.1.081zm2.183 2.071-.212-.145a1 1 0 0 0 .198-.549v-.339h.367v.295a.94.94 0 0 1-.1.41 1 1 0 0 1-.253.328m2.019-.588h-.376v-2.504l-.756.278v-.341l1.073-.405h.058zm-9.359-131.877h.409v.307h-.409v.686h-.376v-.686h-1.343v-.221l1.32-2.05h.399zm-1.294 0h.918v-1.45l-.045.082zm3.264.993h-.376v-2.504l-.755.279v-.342l1.073-.404h.058zm1.124.59-.212-.147a1 1 0 0 0 .198-.548v-.338h.367v.292a.94.94 0 0 1-.1.411 1 1 0 0 1-.253.33m2.223-1.889a.9.9 0 0 1-.28.225.76.76 0 0 1-.358.086.8.8 0 0 1-.445-.127.8.8 0 0 1-.292-.354 1.2 1.2 0 0 1-.103-.504q0-.297.112-.535a.83.83 0 0 1 .319-.363.9.9 0 0 1 .482-.126.82.82 0 0 1 .689.327q.253.33.252.896v.109q0 .863-.34 1.26t-1.026.408h-.073v-.319h.079q.464-.01.712-.242.25-.235.272-.741m-.577 0a.58.58 0 0 0 .347-.116.7.7 0 0 0 .232-.286v-.15q0-.37-.16-.602t-.405-.231a.47.47 0 0 0-.397.19q-.15.188-.15.5 0 .303.145.499a.46.46 0 0 0 .388.196m-4.282-56.854h.409v.307h-.409v.686h-.376v-.686h-1.343v-.221l1.32-2.05h.399zm-1.293 0h.916v-1.451l-.045.082zm3.88-.267q0 .658-.224.98-.225.321-.703.321-.472 0-.698-.314-.228-.315-.235-.937v-.501q0-.653.225-.97.223-.317.704-.316.476 0 .7.305.226.307.231.944zm-.374-.515q0-.476-.134-.696-.133-.218-.423-.217-.287 0-.419.217-.131.217-.136.667v.602q0 .48.138.708a.47.47 0 0 0 .421.228.45.45 0 0 0 .412-.215q.135-.215.141-.678zm.881 2.364-.213-.146a.97.97 0 0 0 .198-.548v-.34h.367v.295a.94.94 0 0 1-.1.41 1 1 0 0 1-.253.329zm2.223-1.889a.9.9 0 0 1-.281.226.76.76 0 0 1-.357.085.8.8 0 0 1-.445-.126.8.8 0 0 1-.292-.354 1.2 1.2 0 0 1-.104-.505q0-.297.113-.534a.82.82 0 0 1 .319-.364.9.9 0 0 1 .482-.125.82.82 0 0 1 .689.327q.253.329.252.895v.11q0 .863-.34 1.26t-1.027.408h-.073v-.32h.08q.463-.008.712-.242t.272-.741m-.578 0a.6.6 0 0 0 .348-.115.7.7 0 0 0 .231-.287v-.15q0-.37-.16-.601t-.404-.232a.49.49 0 0 0-.398.191q-.149.188-.149.5 0 .303.145.499a.45.45 0 0 0 .387.195m-2.698-58.845H179.6v-.269l1.02-1.138a2.5 2.5 0 0 0 .313-.42.7.7 0 0 0 .086-.334.53.53 0 0 0-.14-.379.48.48 0 0 0-.372-.148q-.28 0-.435.159t-.155.444h-.374q0-.41.262-.661.263-.252.702-.252.41 0 .65.217a.74.74 0 0 1 .239.576q0 .437-.555 1.039l-.79.859h1.48zm1.859-2.959v.319h-.069q-.438.009-.697.26-.258.252-.299.708.232-.268.636-.268.383 0 .614.273.23.271.23.703 0 .456-.248.731-.249.273-.665.274a.84.84 0 0 1-.687-.326q-.263-.327-.263-.84v-.144q0-.818.348-1.247.345-.433 1.033-.443zm-.492 1.332a.6.6 0 0 0-.354.115.6.6 0 0 0-.225.292v.138q0 .365.164.589a.49.49 0 0 0 .409.223.47.47 0 0 0 .397-.187.77.77 0 0 0 .146-.49.8.8 0 0 0-.147-.492.46.46 0 0 0-.39-.187zm1.377 2.215-.213-.145a1 1 0 0 0 .199-.548v-.34h.366v.294a.9.9 0 0 1-.1.411.94.94 0 0 1-.252.328m2.635-1.849q0 .66-.224.981-.225.321-.703.321-.472 0-.698-.314-.228-.314-.235-.937v-.502q0-.651.225-.969.224-.317.704-.316.476 0 .7.305.226.307.231.943zm-.374-.514q0-.477-.134-.695-.133-.218-.423-.218-.287-.001-.419.217-.131.216-.136.667v.602q0 .478.139.708a.46.46 0 0 0 .42.228.45.45 0 0 0 .412-.216q.135-.215.141-.677zm-4.466-40.063h-1.932v-.269l1.02-1.138q.226-.259.313-.42a.7.7 0 0 0 .086-.334.53.53 0 0 0-.14-.379.5.5 0 0 0-.17-.115.5.5 0 0 0-.202-.033q-.28 0-.435.159t-.155.444h-.374q0-.409.262-.66.263-.251.702-.252.41 0 .649.216t.24.575q0 .438-.555 1.04l-.791.86h1.482zm.56-1.483.149-1.474h1.511v.347h-1.193l-.089.806c.15-.086.32-.13.492-.127q.403 0 .64.267.237.266.237.722 0 .458-.246.72-.246.263-.687.263-.391 0-.638-.217-.247-.219-.281-.602h.353q.036.254.181.383c.108.09.245.135.385.129a.51.51 0 0 0 .41-.179q.149-.178.149-.493a.7.7 0 0 0-.161-.476.54.54 0 0 0-.429-.18.6.6 0 0 0-.384.108l-.1.081zm2.183 2.072-.213-.146a.98.98 0 0 0 .198-.548v-.34h.367v.295a.94.94 0 0 1-.1.41.96.96 0 0 1-.252.329m2.257-3.547v.317h-.069q-.438.01-.696.261-.26.252-.3.709.233-.268.636-.268.384 0 .614.272t.23.702q0 .457-.248.732-.248.273-.665.274a.84.84 0 0 1-.687-.327q-.263-.325-.263-.839v-.144q0-.816.347-1.248.347-.431 1.034-.442zm-.492 1.331a.6.6 0 0 0-.355.116.6.6 0 0 0-.225.291v.138q0 .365.165.589a.49.49 0 0 0 .409.223.47.47 0 0 0 .397-.187q.145-.185.145-.489a.78.78 0 0 0-.147-.493.47.47 0 0 0-.389-.188M83.684 104.759h.41v.306h-.41v.687h-.376v-.687h-1.343v-.221l1.32-2.049h.4zm-1.293 0h.917v-1.451l-.044.082zm2.067 1.582-.212-.146a1 1 0 0 0 .198-.549v-.339h.366v.295a.9.9 0 0 1-.1.41 1 1 0 0 1-.252.329m2.019-.589H86.1v-2.504l-.756.278v-.341l1.073-.404h.059zm-3.962 24.913.15-1.474h1.51v.347h-1.193l-.089.806a.96.96 0 0 1 .491-.128q.404 0 .64.268.238.266.238.722 0 .457-.246.719-.247.263-.688.264-.39 0-.638-.217-.247-.218-.281-.602h.354q.034.254.18.383a.57.57 0 0 0 .385.129.52.52 0 0 0 .41-.179q.15-.178.15-.493a.68.68 0 0 0-.162-.476.54.54 0 0 0-.428-.18.6.6 0 0 0-.385.108l-.1.081-.299-.077zm2.183 2.072-.214-.146a1 1 0 0 0 .199-.549v-.339h.366v.295a.9.9 0 0 1-.1.41 1 1 0 0 1-.251.329m2.018-.589h-.377v-2.504l-.755.278v-.341l1.073-.404h.058zM83.591 241.69H84v.307h-.41v.687h-.375v-.687H81.87v-.221l1.32-2.049h.4zm-1.293 0h.917v-1.45l-.045.081zm2.067 1.582-.213-.147a1 1 0 0 0 .199-.547v-.34h.366v.295a.9.9 0 0 1-.1.41 1 1 0 0 1-.252.329m2.369-1.582h.408v.307h-.408v.687h-.377v-.687h-1.343v-.221l1.32-2.049h.4zm-1.294 0h.917v-1.45l-.044.081zm-.79 25.18h.41v.307h-.41v.686h-.376v-.686H82.93v-.221l1.32-2.05h.399zm-1.293 0h.917v-1.45l-.045.081zm2.067 1.581-.213-.146a.97.97 0 0 0 .198-.547v-.34h.367v.294a.9.9 0 0 1-.1.411 1 1 0 0 1-.252.328m2.257-3.547v.319h-.07q-.436.008-.695.26-.26.252-.3.708.233-.267.636-.268a.76.76 0 0 1 .614.273q.23.273.23.703 0 .457-.248.73-.248.274-.664.274a.84.84 0 0 1-.687-.326q-.264-.326-.264-.839v-.144q0-.817.348-1.248.347-.432 1.034-.442zm-.491 1.332a.6.6 0 0 0-.355.115.6.6 0 0 0-.225.292v.137q0 .366.165.59a.49.49 0 0 0 .409.223.47.47 0 0 0 .397-.187q.145-.186.145-.49a.77.77 0 0 0-.147-.492.477.477 0 0 0-.39-.188m-4.754 91.032.15-1.474h1.511v.346h-1.192l-.09.808a.93.93 0 0 1 .492-.129q.403 0 .64.267.237.266.237.722 0 .457-.245.72-.247.264-.688.263-.392 0-.638-.217-.248-.217-.282-.601h.355a.6.6 0 0 0 .18.383.56.56 0 0 0 .385.128.5.5 0 0 0 .41-.178q.149-.18.148-.494a.69.69 0 0 0-.16-.476.55.55 0 0 0-.429-.18.6.6 0 0 0-.385.108l-.1.081zm2.183 2.071-.212-.146a1 1 0 0 0 .199-.548v-.339h.366v.294a.9.9 0 0 1-.1.41 1 1 0 0 1-.253.329m2.019-.589h-.376v-2.503l-.756.277v-.34l1.074-.405h.058zm-3.164 22.856h.41v.307h-.41v.686h-.376v-.686h-1.343v-.221l1.32-2.05h.4zm-1.294 0h.917v-1.449l-.044.081zm2.068 1.583-.213-.146a1 1 0 0 0 .198-.549v-.339h.367v.294a.94.94 0 0 1-.1.41 1 1 0 0 1-.252.33m2.635-1.851q0 .66-.224.981t-.703.321q-.471 0-.698-.313-.227-.314-.235-.938v-.502q0-.651.225-.968t.704-.317q.477 0 .701.306.225.306.23.943zm-.373-.514q0-.477-.135-.695-.134-.218-.422-.218t-.42.217q-.13.218-.135.668v.601q0 .48.139.708a.46.46 0 0 0 .42.228.45.45 0 0 0 .412-.215q.134-.215.14-.677zm10.63 76.975.15-1.474h1.51v.346h-1.192l-.09.808a.94.94 0 0 1 .492-.129q.403 0 .64.267.238.266.238.722t-.246.719q-.247.265-.688.264-.39 0-.637-.218-.248-.216-.282-.6h.354a.6.6 0 0 0 .18.383.56.56 0 0 0 .385.128.5.5 0 0 0 .41-.178q.15-.18.15-.494a.69.69 0 0 0-.162-.476.54.54 0 0 0-.428-.18.6.6 0 0 0-.385.108l-.1.081zm2.183 2.071-.213-.146a.98.98 0 0 0 .198-.548v-.339h.367v.294a.9.9 0 0 1-.1.41 1 1 0 0 1-.252.329m2.636-1.85q0 .66-.225.98-.223.322-.703.322-.471 0-.698-.314-.226-.313-.235-.937v-.502q0-.652.225-.968.224-.317.705-.317.476 0 .7.305.225.306.231.943zm-.374-.514q0-.476-.135-.696-.134-.217-.422-.218-.288 0-.42.218-.13.217-.135.669v.6q0 .48.139.708a.46.46 0 0 0 .419.228.45.45 0 0 0 .413-.215q.133-.216.141-.678zm34.533 3.819h.409v.307h-.409v.686h-.376v-.686h-1.343v-.221l1.32-2.049h.399zm-1.293 0h.917v-1.449l-.044.081zm2.067 1.583-.213-.147a.98.98 0 0 0 .199-.548v-.339h.366v.294a.9.9 0 0 1-.1.411 1 1 0 0 1-.252.329m2.576-2.774a.7.7 0 0 1-.117.394.8.8 0 0 1-.315.269.85.85 0 0 1 .366.291.74.74 0 0 1 .134.433.78.78 0 0 1-.258.611q-.258.226-.679.226-.425 0-.682-.227a.78.78 0 0 1-.255-.61q0-.24.13-.433a.8.8 0 0 1 .361-.293.77.77 0 0 1-.309-.269.7.7 0 0 1-.114-.393q0-.374.239-.593t.629-.219.63.219.24.593zm-.306 1.378a.552.552 0 0 0-.157-.404.56.56 0 0 0-.41-.157.55.55 0 0 0-.407.156.55.55 0 0 0-.152.405q0 .252.149.397.148.143.414.143.263 0 .413-.145t.15-.395m-.563-1.882a.5.5 0 0 0-.358.136.52.52 0 0 0-.136.374.5.5 0 0 0 .135.364.48.48 0 0 0 .359.139q.224 0 .359-.139a.5.5 0 0 0 .135-.364.479.479 0 0 0-.494-.51m3.385-111.344.15-1.474h1.511v.346h-1.193l-.089.808a.94.94 0 0 1 .491-.129q.404 0 .64.268.237.266.237.722t-.245.719q-.246.263-.688.263-.392 0-.638-.217-.247-.216-.281-.601h.354q.034.255.181.383a.56.56 0 0 0 .384.129.52.52 0 0 0 .41-.179q.15-.179.149-.493a.69.69 0 0 0-.161-.476.54.54 0 0 0-.429-.18.62.62 0 0 0-.384.107l-.1.081zm2.183 2.073-.213-.147a1 1 0 0 0 .199-.549v-.338h.366v.293a.9.9 0 0 1-.1.41 1 1 0 0 1-.252.331m1.332-2.251h.282a.62.62 0 0 0 .416-.141.46.46 0 0 0 .152-.367q0-.52-.516-.52a.54.54 0 0 0-.388.139.5.5 0 0 0-.144.369h-.375q0-.351.256-.585a.94.94 0 0 1 .651-.232q.417 0 .654.222.237.221.237.615a.65.65 0 0 1-.124.373.76.76 0 0 1-.34.27c.15.043.281.133.376.257.091.127.137.28.132.436q.001.399-.259.632t-.674.233q-.415 0-.675-.226a.75.75 0 0 1-.26-.594h.376q0 .234.152.373a.58.58 0 0 0 .407.141q.271 0 .415-.143.144-.142.144-.408a.5.5 0 0 0-.158-.396q-.158-.138-.455-.141h-.282zm-4.139-105.113h.409v.308h-.409v.685h-.376v-.685h-1.344v-.221l1.321-2.05h.399zm-1.294 0h.917v-1.45l-.045.082zm2.067 1.582-.212-.146a.98.98 0 0 0 .198-.547v-.34h.367v.294a.94.94 0 0 1-.1.411 1 1 0 0 1-.253.328m2.369-1.582h.409v.308h-.409v.685h-.376v-.685h-1.343v-.221l1.32-2.05h.399zm-1.293 0h.916v-1.45l-.044.082zm-2.757-23.399h.41v.308h-.41v.685h-.376v-.685h-1.343v-.221l1.32-2.051h.399zm-1.293 0h.917v-1.45l-.045.082zm2.067 1.582-.212-.146a1 1 0 0 0 .198-.547v-.341h.366v.295a.94.94 0 0 1-.099.411 1 1 0 0 1-.253.328m2.37-1.582h.408v.308h-.408v.685h-.377v-.685h-1.344v-.221l1.321-2.051h.4zm-1.295 0h.918v-1.45l-.045.082zM141.2 154.78h.409v.307h-.409v.686h-.376v-.686h-1.343v-.221l1.32-2.049h.399zm-1.293 0h.917v-1.449l-.045.08zm2.067 1.582-.213-.146a.98.98 0 0 0 .199-.547v-.341h.366v.295a.9.9 0 0 1-.1.411 1 1 0 0 1-.252.328m2.368-1.582h.409v.307h-.408v.686h-.377v-.686h-1.342v-.221l1.32-2.049h.399zm-1.293 0h.917v-1.449l-.044.08zm-.746-25.456h.409v.307h-.409v.687h-.376v-.687h-1.343v-.221l1.32-2.049h.399zm-1.293 0h.917v-1.449l-.045.08zm2.067 1.582-.213-.146a1 1 0 0 0 .199-.547v-.341h.366v.295a.9.9 0 0 1-.1.41.96.96 0 0 1-.252.329m2.576-2.774a.7.7 0 0 1-.117.394.8.8 0 0 1-.315.271.85.85 0 0 1 .366.29.74.74 0 0 1 .135.432q0 .384-.259.611-.258.229-.679.228-.426.001-.682-.229-.255-.226-.255-.61-.001-.238.13-.432a.8.8 0 0 1 .361-.292.8.8 0 0 1-.31-.27.7.7 0 0 1-.112-.393q0-.373.238-.592.239-.22.629-.22t.629.22q.241.219.241.592m-.307 1.38a.55.55 0 0 0-.156-.405.558.558 0 0 0-.41-.156.546.546 0 0 0-.407.154.56.56 0 0 0-.152.407q0 .252.149.395t.414.145a.57.57 0 0 0 .413-.146.53.53 0 0 0 .149-.394m-.562-1.883a.49.49 0 0 0-.357.137.5.5 0 0 0-.138.373.5.5 0 0 0 .031.196.5.5 0 0 0 .104.168.48.48 0 0 0 .36.138.475.475 0 0 0 .359-.138.51.51 0 0 0 .135-.364.5.5 0 0 0-.302-.476.5.5 0 0 0-.192-.034"/><path stroke="#000" stroke-linecap="round" stroke-linejoin="round" stroke-width="1.5" d="m197.573 265.2-3.938-3.938-1.203 1.202c-1.23 1.232-1.846 1.847-2.508 1.702s-.963-.963-1.565-2.596l-2.007-5.45c-1.201-3.259-1.803-4.888-.963-5.728s2.47-.24 5.73.962l5.45 2.006c1.633.602 2.45.903 2.596 1.565s-.47 1.277-1.702 2.508l-1.202 1.203 3.938 3.938c.408.408.612.612.706.84.125.303.125.643 0 .947-.094.227-.298.431-.706.839s-.612.612-.84.706a1.24 1.24 0 0 1-.947 0c-.227-.094-.43-.298-.839-.706"/></g><defs><clipPath id="a"><path fill="#fff" d="M0 0h226v477H0z"/></clipPath></defs></svg>