<svg xmlns="http://www.w3.org/2000/svg" width="393" height="82" fill="none"><path fill="#fff" d="m9.362 32.524-4.185-.02L5.324.566l10.76.05q2.667.011 4.639.798 1.972.782 3.28 2.091a8.3 8.3 0 0 1 1.941 3.065 10.6 10.6 0 0 1 .626 3.677 9.9 9.9 0 0 1-.752 3.763 8.9 8.9 0 0 1-2.2 3.094c-.968.894-2.178 1.594-3.62 2.103q-2.166.768-4.971.754a20.4 20.4 0 0 1-3.035-.22 24 24 0 0 1-2.572-.538l-.062 13.325zm.07-15.195q.963.37 2.158.488 1.196.12 2.622.128 2.069.01 3.546-.67c.983-.453 1.8-1.04 2.445-1.769a6.9 6.9 0 0 0 1.413-2.436 8.6 8.6 0 0 0 .45-2.668 8.5 8.5 0 0 0-.47-2.763A7.7 7.7 0 0 0 20.16 5.12q-.96-1.123-2.43-1.812-1.47-.693-3.399-.7l-4.827-.023-.068 14.74zM55.68.796l-.012 2.51-16.603-.076-.053 11.453 14.258.066-.01 2.191-14.258-.065-.06 13.278 16.602.076-.011 2.51-20.788-.095L34.892.7zm12.528 2.11q-1.334.589-2.14 1.429a5 5 0 0 0-1.154 1.843q-.348 1.004-.398 1.824l-3.488-.016q.055-1.96.888-3.42a7.2 7.2 0 0 1 2.237-2.408q1.403-.95 3.333-1.4c1.287-.299 2.71-.441 4.269-.434q3.03.016 5.136.729 2.107.716 3.455 1.841 1.349 1.125 1.937 2.563c.392.959.59 1.927.585 2.9a7.8 7.8 0 0 1-.494 2.692 7.7 7.7 0 0 1-1.369 2.344 6.6 6.6 0 0 1-2.1 1.633 5.8 5.8 0 0 1-2.645.605l-.001.183.321.002a8.2 8.2 0 0 1 2.986.583c.972.381 1.859.942 2.618 1.654a8.7 8.7 0 0 1 1.872 2.563q.722 1.49.713 3.311-.007 1.643-.682 3.329-.675 1.685-2.25 3.046-1.572 1.363-4.181 2.216-2.608.855-6.432.84-5.851-.028-8.63-2.208-2.777-2.18-2.897-6.47l4.37.02q.042.78.288 1.895.246 1.12 1.026 2.173.776 1.051 2.245 1.811t3.952.771c1.655.008 3.082-.243 4.189-.757q1.659-.767 2.631-1.928.972-1.16 1.37-2.505.395-1.341.4-2.44.007-1.598-.674-2.877a6.44 6.44 0 0 0-1.898-2.176q-1.216-.896-2.917-1.36c-1.134-.308-2.388-.47-3.769-.476l-3.217-.015.009-2.008 3.22.015q2.668.012 4.213-.734t2.33-1.79q.786-1.046.998-2.14.21-1.093.213-1.78.011-2.602-1.792-4.32-1.804-1.719-5.289-1.734-2.066-.011-3.397.578zm48.177-1.831 4.185.019-.147 31.94-4.185-.02.131-28.516L97.153 32.93l-4.185-.02.147-31.942 4.185.02-.13 28.197zm42.355 29.99 4.507.02-.032 6.935-3.908-.018.022-4.79-28.098-.129-.022 4.79-3.908-.018.032-6.934 4.322.02 11.679-29.743 2.804.013zM143.769 6.174l-.184-.001-9.773 24.778 20.511.094-10.557-24.871zm47.299-4.757-.012 2.51-16.603-.075-.053 11.452 14.258.066-.01 2.191-14.258-.065-.061 13.278 16.603.076-.011 2.51-20.788-.095.147-31.943zm10.938 31.99-4.185-.018.146-31.94 4.185.02-.064 13.962 19.27.089.064-13.963 4.185.019-.147 31.94-4.185-.02.073-15.88-19.27-.088zm65.91-2.204-.033 7.3-3.908-.017.022-4.79-27.5-.127.147-31.942 4.185.019-.135 29.432 19.129.088.135-29.433 4.185.02-.135 29.432zm31.683-29.288 4.185.02-.147 31.939-4.185-.02.131-28.516-19.216 28.433-4.185-.02.147-31.942 4.185.019-.13 28.197zm38.492.177 4.185.02-.147 31.939-4.185-.02.131-28.516-19.216 28.432-4.185-.019.146-31.943 4.185.02-.129 28.197zM7.027 70.485l-4.091 9.382-2.117-.01L14.577 47.98l2.298.01L31.72 80l-4.462-.02-4.371-9.421-15.865-.073zm7.759-17.395h-.185L7.908 68.436l14.025.064-7.15-15.41zm28.023 26.96-4.185-.02.146-31.939 10.76.05q2.667.011 4.643.798 1.971.788 3.28 2.09a8.24 8.24 0 0 1 1.941 3.066q.634 1.759.626 3.677a9.9 9.9 0 0 1-.752 3.763 9 9 0 0 1-2.2 3.094q-1.451 1.34-3.62 2.107-2.166.765-4.97.754a21 21 0 0 1-3.036-.218q-1.38-.21-2.572-.537l-.061 13.322zm.07-15.195q.963.37 2.158.489 1.195.121 2.622.127 2.071.01 3.545-.67 1.477-.678 2.446-1.766a6.9 6.9 0 0 0 1.413-2.436 8.6 8.6 0 0 0 .45-2.667 8.5 8.5 0 0 0-.47-2.764 7.7 7.7 0 0 0-1.437-2.517q-.96-1.125-2.43-1.813-1.47-.693-3.399-.7l-4.828-.023-.067 14.74zm35.796-4.035h.229l9.76-12.503 2.439.01L80.045 62.56 93.9 80.281l-5.197-.024-11.156-14.333-.185-.001-11.057 14.231-2.483-.011 12.399-15.868L63.74 48.202l5.152.024zm45.079-12.339 4.185.02-.146 31.939-4.185-.02.131-28.52-19.216 28.433-4.185-.02.146-31.939 4.185.02-.129 28.197zm22.803 32.045.135-29.433-12.326-.056.012-2.51 28.832.132-.011 2.51-12.326-.056-.135 29.429-4.185-.02zm43.879-31.739-.011 2.51-16.603-.076-.053 11.453 14.258.065-.01 2.192-14.258-.066-.061 13.278 16.603.076-.011 2.51-20.788-.094.147-31.94 20.787.095zm6.9.032 4.185.019-.082 17.976 17.328-17.897 2.297.01-11.736 12.312 14.26 19.64-4.783-.022-12.157-16.8-5.222 5.495-.051 11.225-4.185-.019zm40.875 32.127.136-29.432-12.326-.057.011-2.51 28.837.132-.012 2.51-12.326-.056-.135 29.43-4.184-.02zm20.815-21.395q1.002-2.918 3.129-5.346 2.125-2.431 5.4-4.012 3.274-1.584 7.827-1.562c3.036.014 5.725.565 7.973 1.654q3.373 1.637 5.568 4.11c1.462 1.65 2.545 3.442 3.24 5.375q1.044 2.904 1.032 5.457-.007 1.69-.498 3.556a18 18 0 0 1-1.443 3.712 17 17 0 0 1-2.43 3.503 16.4 16.4 0 0 1-3.488 2.929c-1.337.845-2.841 1.517-4.515 2.008q-2.512.742-5.59.727-4.554-.02-7.812-1.654t-5.363-4.109c-1.405-1.648-2.429-3.44-3.08-5.374q-.976-2.9-.963-5.456c.008-1.703.344-3.574 1.013-5.519m4.454 11.405q.976 2.671 2.694 4.6a12.3 12.3 0 0 0 4.055 3.007q2.34 1.083 5.1 1.095c1.839.008 3.52-.34 5.133-1.049 1.6-.698 3.044-1.709 4.247-2.969q1.823-1.908 2.896-4.573 1.07-2.665 1.084-5.857c.009-2.127-.334-4.086-1.03-5.867q-1.046-2.676-2.854-4.6a13.1 13.1 0 0 0-4.219-3.008 12.5 12.5 0 0 0-5.124-1.096c-1.809-.008-3.544.34-5.11 1.049a12.3 12.3 0 0 0-4.082 2.97c-1.155 1.274-2.068 2.796-2.736 4.574q-1.001 2.666-1.015 5.858c-.01 2.126.31 4.085.961 5.866m41.643 10.297-4.185-.019.146-31.94 10.76.05q2.667.011 4.643.798 1.972.787 3.279 2.091a8.3 8.3 0 0 1 1.942 3.066q.637 1.758.626 3.677a9.9 9.9 0 0 1-.752 3.762 8.9 8.9 0 0 1-2.199 3.094q-1.453 1.34-3.621 2.107-2.167.766-4.971.754a21 21 0 0 1-3.035-.217q-1.379-.21-2.572-.538l-.061 13.322zm.069-15.194q.964.37 2.159.488 1.195.122 2.622.127 2.069.011 3.545-.669 1.476-.678 2.446-1.766a6.9 6.9 0 0 0 1.413-2.436 8.6 8.6 0 0 0 .45-2.668 8.6 8.6 0 0 0-.469-2.764 7.7 7.7 0 0 0-1.439-2.517q-.96-1.124-2.429-1.812-1.47-.693-3.399-.701l-4.828-.022-.067 14.74zm23.183-6.19q1.002-2.917 3.129-5.346 2.125-2.431 5.4-4.012 3.274-1.584 7.827-1.562c3.036.014 5.724.565 7.973 1.654q3.373 1.637 5.568 4.11c1.462 1.65 2.545 3.442 3.24 5.376q1.044 2.903 1.032 5.456-.008 1.69-.499 3.557a18 18 0 0 1-1.442 3.711 17 17 0 0 1-2.43 3.503 16.4 16.4 0 0 1-3.488 2.93c-1.337.845-2.845 1.516-4.515 2.007q-2.513.742-5.591.728-4.553-.022-7.812-1.654-3.258-1.636-5.362-4.11-2.103-2.472-3.08-5.374-.976-2.9-.963-5.456c.007-1.703.344-3.574 1.013-5.518m4.454 11.405c.652 1.78 1.547 3.315 2.694 4.6a12.3 12.3 0 0 0 4.058 3.007q2.34 1.084 5.1 1.095c1.839.008 3.52-.34 5.134-1.048a13.1 13.1 0 0 0 4.246-2.97q1.824-1.908 2.896-4.573c.713-1.774 1.074-3.73 1.084-5.857s-.334-4.086-1.03-5.867q-1.043-2.674-2.854-4.6a13.1 13.1 0 0 0-4.219-3.008 12.5 12.5 0 0 0-5.124-1.095c-1.809-.009-3.544.34-5.109 1.048a12.3 12.3 0 0 0-4.083 2.97q-1.734 1.909-2.732 4.574-1.001 2.667-1.015 5.858c-.01 2.127.309 4.086.961 5.866zm37.604-21.661 11.522.053q2.396.01 4.168.728 1.771.715 2.895 1.815 1.123 1.099 1.671 2.426t.542 2.605a6.14 6.14 0 0 1-.656 2.758 7.7 7.7 0 0 1-1.733 2.275 9 9 0 0 1-2.514 1.587 7.6 7.6 0 0 1-3.039.603l-.001.183q1.01.05 2.666.331c1.103.189 2.175.556 3.215 1.11 1.041.552 1.94 1.35 2.704 2.385q1.142 1.557 1.13 4.157a9.6 9.6 0 0 1-.593 3.261 7.7 7.7 0 0 1-1.883 2.889q-1.299 1.27-3.425 2.06-2.128.788-5.222.773l-11.59-.053.146-31.94zm9.639 14.004a7.3 7.3 0 0 0 2.601-.446 7 7 0 0 0 2.167-1.269 5.795 5.795 0 0 0 2.02-4.415 6.3 6.3 0 0 0-.36-2.101 5 5 0 0 0-1.164-1.875q-.802-.822-2.062-1.332-1.264-.508-3.055-.516l-5.61-.026-.055 11.955zm1.1 15.977a8.8 8.8 0 0 0 2.795-.421 6.4 6.4 0 0 0 2.29-1.29 6.4 6.4 0 0 0 1.555-2.092q.582-1.229.591-2.827a7.4 7.4 0 0 0-.517-2.784 6.4 6.4 0 0 0-1.603-2.335q-1.08-1.007-2.739-1.61c-1.106-.398-2.411-.605-3.919-.612l-5.073-.023-.065 13.963 6.692.031z"/></svg>