<svg width="22" height="23" viewBox="0 0 22 23" fill="none" xmlns="http://www.w3.org/2000/svg">
<path d="M4.8125 15.167V7.764C4.8125 7.148 5.02883 6.62366 5.4615 6.191C5.89417 5.75833 6.4185 5.542 7.0345 5.542H19.3504L15.1223 1.31387L16.104 0.333496L22 6.2295L16.104 12.153L15.1223 11.1795L19.3504 6.917H7.03312C6.78654 6.917 6.58396 6.99629 6.42538 7.15487C6.26679 7.31346 6.1875 7.5165 6.1875 7.764V15.167H4.8125ZM2.222 22.7295C1.606 22.7295 1.08167 22.5132 0.649 22.0805C0.216334 21.6478 0 21.124 0 20.5089V1.57512H1.375V20.5089C1.375 20.7555 1.45429 20.958 1.61287 21.1166C1.77146 21.2752 1.9745 21.3545 2.222 21.3545H17.0294C17.276 21.3545 17.4785 21.2752 17.6371 21.1166C17.7957 20.958 17.875 20.7555 17.875 20.5089V15.167H19.25V20.5089C19.25 21.123 19.0337 21.6469 18.601 22.0805C18.1683 22.5132 17.6445 22.7295 17.0294 22.7295H2.222Z" fill="white"/>
</svg>
