<svg width="170" height="36" viewBox="0 0 170 36" fill="none" xmlns="http://www.w3.org/2000/svg">
<path d="M3.69763 14.0733L1.88678 14.0649L1.9502 0.244554L6.60602 0.265916C7.37533 0.269446 8.04501 0.384082 8.61357 0.611286C9.18213 0.837022 9.65566 1.13865 10.0327 1.51618C10.4097 1.8937 10.6888 2.33536 10.8729 2.84265C11.0555 3.34993 11.1462 3.88027 11.1437 4.43367C11.1412 4.98708 11.032 5.55614 10.8181 6.0616C10.6043 6.56706 10.2871 7.01332 9.86661 7.4004C9.44762 7.78748 8.92397 8.09041 8.3001 8.31068C7.67474 8.5324 6.95818 8.64068 6.14892 8.63697C5.67106 8.63477 5.23327 8.6034 4.83558 8.5414C4.43788 8.47938 4.06689 8.40282 3.7226 8.30876L3.69614 14.0747L3.69763 14.0733ZM3.7278 7.49848C4.00545 7.60544 4.31729 7.67587 4.66186 7.70974C5.00642 7.74362 5.38508 7.76297 5.79636 7.76486C6.39258 7.76759 6.90492 7.67159 7.33043 7.47537C7.75594 7.27915 8.10923 7.02535 8.38882 6.70956C8.6684 6.39523 8.8727 6.04386 9.00024 5.65544C9.12777 5.26849 9.19316 4.88272 9.19491 4.50107C9.19666 4.11941 9.12901 3.70807 8.99179 3.30523C8.85603 2.90679 8.64468 2.53737 8.36949 2.2161C8.09283 1.89188 7.74192 1.63044 7.31822 1.43179C6.89452 1.23168 6.4038 1.13107 5.84753 1.12852L3.75855 1.11894L3.72928 7.49702L3.7278 7.49848ZM23.7395 0.344528L23.7345 1.43078L16.5503 1.39782L16.5276 6.35349L22.6969 6.3818L22.6925 7.33007L16.5232 7.30176L16.4969 13.0472L23.6811 13.0801L23.6761 14.1664L14.681 14.1251L14.7445 0.303257L23.7395 0.344528ZM29.1606 1.25751C28.7766 1.42749 28.4664 1.63305 28.2345 1.87566C28.0011 2.11827 27.8357 2.38468 27.7353 2.6734C27.6348 2.96213 27.5774 3.22609 27.563 3.46237L26.0539 3.45544C26.0698 2.89036 26.1979 2.39625 26.438 1.97605C26.6751 1.55877 27.0067 1.20212 27.4059 0.933847C27.8111 0.659733 28.2913 0.457893 28.8482 0.328333C29.4051 0.198773 30.0208 0.137009 30.6955 0.140104C31.5698 0.144116 32.3106 0.25027 32.9177 0.455632C33.5263 0.662468 34.0236 0.927512 34.4127 1.25224C34.8018 1.57698 35.0812 1.94671 35.251 2.36145C35.4207 2.77619 35.506 3.19495 35.5041 3.61624C35.5023 4.0111 35.431 4.39978 35.2902 4.7808C35.1493 5.16182 34.951 5.50001 34.6981 5.79537C34.4468 6.08927 34.1365 6.33006 33.7895 6.50169C33.4365 6.67769 33.0544 6.76548 32.6446 6.7636L32.6443 6.84286L32.7833 6.8435C33.2213 6.84551 33.6514 6.92969 34.0752 7.09604C34.4961 7.26092 34.8797 7.50342 35.2082 7.81173C35.5397 8.12298 35.8102 8.49268 36.0183 8.92081C36.2264 9.3504 36.3293 9.82795 36.3269 10.3535C36.3247 10.8276 36.2263 11.3072 36.0317 11.7936C35.8372 12.2801 35.5126 12.719 35.0581 13.1118C34.6051 13.5046 34.0015 13.8248 33.2488 14.0709C32.4961 14.317 31.5693 14.4389 30.4657 14.4339C28.7776 14.4261 27.5334 14.1078 26.7314 13.4787C25.9309 12.8497 25.5121 11.9171 25.4778 10.6795L27.3686 10.6882C27.3808 10.9128 27.4225 11.186 27.4935 11.5078C27.5645 11.8311 27.7125 12.1445 27.9375 12.4479C28.161 12.7513 28.4853 13.0126 28.9089 13.2318C29.3325 13.451 29.903 13.5623 30.6191 13.5656C31.3351 13.5688 31.9526 13.4601 32.4315 13.2377C32.9104 13.0168 33.2889 12.7381 33.5701 12.4033C33.8497 12.0684 34.0482 11.7082 34.1624 11.3197C34.2766 10.9327 34.3344 10.5807 34.3359 10.2636C34.338 9.80267 34.2408 9.38826 34.0442 9.01891C33.8477 8.64955 33.5739 8.33562 33.223 8.07712C32.8721 7.81862 32.4513 7.62293 31.9607 7.48856C31.4702 7.35566 30.9275 7.28565 30.3298 7.2829L28.9377 7.27652L28.9416 6.40751L30.3353 6.41391C31.1046 6.41744 31.7117 6.31159 32.158 6.09639C32.6028 5.88117 32.9398 5.62289 33.1661 5.32153C33.3924 5.02018 33.5373 4.71111 33.5979 4.39578C33.6585 4.08045 33.6893 3.8237 33.6902 3.62553C33.6937 2.87543 33.4347 2.25183 32.9147 1.75622C32.3947 1.2606 31.631 1.01048 30.6264 1.00587C30.0302 1.00314 29.5401 1.08603 29.1561 1.25602L29.1606 1.25751ZM50.0071 0.465048L51.818 0.473357L51.7545 14.2937L49.9437 14.2854L50.0003 1.94617L41.6854 14.249L39.8746 14.2407L39.938 0.418849L41.7488 0.427158L41.6928 12.6284L50.0071 0.465048ZM68.3345 13.4421L70.2844 13.451L70.2707 16.4514L68.5797 16.4437L68.5892 14.371L56.4311 14.3152L56.4216 16.3879L54.7306 16.3801L54.7443 13.3797L56.6143 13.3883L61.6681 0.518551L62.8813 0.524117L68.3345 13.4421ZM61.8565 2.67142L61.7766 2.67105L57.5479 13.3926L66.4231 13.4333L61.855 2.67141L61.8565 2.67142ZM82.3227 0.613318L82.3177 1.69957L75.1335 1.66661L75.1108 6.62228L81.2801 6.65059L81.2757 7.59886L75.1064 7.57055L75.0801 13.316L82.2643 13.3489L82.2593 14.4352L73.2642 14.3939L73.3276 0.572047L82.3227 0.613318ZM87.0557 14.4557L85.2448 14.4474L85.3082 0.627016L87.1191 0.635325L87.0913 6.67725L95.4295 6.71551L95.4572 0.673582L97.2681 0.68189L97.2047 14.5023L95.3938 14.494L95.4254 7.62268L87.0872 7.58442L87.0557 14.4557ZM115.576 13.5018L115.561 16.6607L113.87 16.6529L113.88 14.5803L101.98 14.5257L102.044 0.703802L103.855 0.71211L103.796 13.4477L112.074 13.4857L112.132 0.750089L113.943 0.758397L113.885 13.494L115.576 13.5018ZM129.285 0.828789L131.096 0.837097L131.032 14.6575L129.221 14.6492L129.278 2.30991L120.963 14.6128L119.152 14.6044L119.216 0.78259L121.027 0.790898L120.971 12.9922L129.285 0.828789ZM145.94 0.905208L147.751 0.913516L147.688 14.7339L145.877 14.7256L145.934 2.38633L137.619 14.6892L135.808 14.6809L135.871 0.859009L137.682 0.867317L137.626 13.0686L145.94 0.905208ZM2.68723 30.4993L0.916903 34.5588L0.00112494 34.5546L5.95422 20.7613L6.94841 20.7658L13.3724 34.616L11.4417 34.6071L9.55039 30.5308L2.68575 30.4993L2.68723 30.4993ZM6.04468 22.9724L5.96479 22.9721L3.06857 29.613L9.13726 29.6408L6.0432 22.9724L6.04468 22.9724ZM18.1702 34.638L16.3594 34.6297L16.4228 20.8093L21.0786 20.8307C21.8479 20.8342 22.5176 20.9488 23.0876 21.1761C23.6562 21.4033 24.1297 21.7049 24.5068 22.0809C24.8838 22.457 25.1628 22.9001 25.3469 23.4074C25.5295 23.9147 25.6203 24.445 25.6178 24.9984C25.6152 25.5518 25.5061 26.1209 25.2922 26.6264C25.0768 27.1318 24.7597 27.5781 24.3407 27.9652C23.9217 28.3522 23.3995 28.6552 22.7742 28.8769C22.1488 29.0972 21.4322 29.2069 20.623 29.2032C20.1451 29.201 19.7073 29.1696 19.3096 29.1091C18.9119 29.0486 18.5409 28.9705 18.1967 28.8765L18.1702 34.641L18.1702 34.638ZM18.2004 28.0632C18.478 28.1702 18.7899 28.2406 19.1345 28.2745C19.479 28.3098 19.8577 28.3277 20.269 28.3296C20.8667 28.3324 21.3775 28.2363 21.803 28.0401C22.2285 27.8439 22.5818 27.5901 22.8614 27.2758C23.141 26.9615 23.3453 26.6101 23.4728 26.2217C23.6004 25.8347 23.6657 25.4489 23.6675 25.0673C23.6693 24.6856 23.6016 24.2743 23.4644 23.8715C23.3286 23.473 23.1173 23.1036 22.8421 22.7823C22.5654 22.4581 22.2145 22.1967 21.7908 21.998C21.3671 21.7979 20.8764 21.6973 20.3201 21.6947L18.2311 21.6852L18.2019 28.0632L18.2004 28.0632ZM33.6897 26.317L33.7888 26.3174L38.0124 20.9069L39.0672 20.9117L34.2825 27.0698L40.2776 34.738L38.0289 34.7277L33.2017 28.5255L33.1218 28.5251L28.337 34.6832L27.2629 34.6783L32.6279 27.8124L27.2272 20.8574L29.4567 20.8676L33.6897 26.317ZM53.196 20.978L55.0068 20.9863L54.9434 34.8067L53.1325 34.7984L53.1892 22.4577L44.8743 34.7605L43.0634 34.7522L43.1268 20.9318L44.9377 20.9401L44.8817 33.1414L53.196 20.978ZM63.0626 34.844L63.121 22.1084L57.7876 22.0839L57.7926 20.9977L70.2688 21.0549L70.2638 22.1412L64.9304 22.1167L64.872 34.8508L63.0611 34.8425L63.0626 34.844ZM82.0496 21.1104L82.0447 22.1967L74.8605 22.1637L74.8377 27.1194L81.007 27.1477L81.0027 28.096L74.8334 28.0677L74.807 33.8131L81.9912 33.846L81.9862 34.9323L72.9912 34.891L73.0546 21.0706L82.0496 21.1119L82.0496 21.1104ZM85.0352 21.1241L86.846 21.1324L86.8103 28.9109L94.3083 21.1667L95.3025 21.1712L90.2242 26.4986L96.3946 34.9969L94.3248 34.9874L89.0646 27.7175L86.8049 30.0955L86.7826 34.9528L84.9718 34.9445L85.0352 21.1241ZM102.722 35.026L102.781 22.2903L97.4472 22.2659L97.4522 21.1796L109.93 21.2369L109.925 22.3231L104.591 22.2987L104.533 35.0328L102.722 35.0245L102.722 35.026ZM111.729 25.7679C112.018 24.9266 112.469 24.155 113.083 23.4547C113.696 22.7529 114.475 22.1752 115.419 21.7186C116.364 21.262 117.492 21.0367 118.806 21.0427C120.12 21.0488 121.283 21.2875 122.256 21.7588C123.229 22.23 124.032 22.8238 124.665 23.5372C125.298 24.2506 125.767 25.0264 126.067 25.863C126.368 26.7011 126.517 27.4871 126.514 28.224C126.512 28.7114 126.44 29.2248 126.298 29.7629C126.157 30.3025 125.949 30.8373 125.674 31.3689C125.399 31.9005 125.049 32.4068 124.622 32.8849C124.196 33.3629 123.692 33.7863 123.113 34.1521C122.535 34.5179 121.884 34.8085 121.159 35.021C120.435 35.2349 119.628 35.3399 118.741 35.3358C117.427 35.3298 116.301 35.0912 115.36 34.6201C114.42 34.1489 113.647 33.5553 113.04 32.842C112.432 32.1287 111.989 31.3531 111.707 30.5166C111.425 29.68 111.287 28.8925 111.29 28.1557C111.294 27.4188 111.439 26.6091 111.729 25.7679ZM113.656 30.7031C113.938 31.4736 114.326 32.1374 114.822 32.6931C115.309 33.2429 115.908 33.686 116.576 33.9944C117.251 34.3073 117.987 34.4648 118.783 34.4684C119.579 34.4721 120.306 34.3213 121.004 34.0148C121.697 33.7126 122.321 33.2751 122.842 32.7299C123.368 32.1789 123.785 31.5203 124.095 30.751C124.403 29.9832 124.56 29.1369 124.564 28.2166C124.568 27.2962 124.42 26.4485 124.118 25.6779C123.817 24.9059 123.404 24.2434 122.883 23.6876C122.368 23.1377 121.749 22.6945 121.058 22.3859C120.362 22.073 119.623 21.9155 118.841 21.9119C118.058 21.9083 117.307 22.059 116.63 22.3656C115.957 22.6679 115.355 23.1055 114.863 23.6508C114.364 24.2019 113.968 24.8607 113.679 25.63C113.39 26.3994 113.244 27.2442 113.24 28.1646C113.236 29.085 113.374 29.9326 113.656 30.7031ZM131.675 35.1588L129.864 35.1505L129.928 21.3301L134.583 21.3515C135.353 21.355 136.022 21.4696 136.592 21.6968C137.161 21.924 137.634 22.2257 138.011 22.6017C138.387 22.9792 138.668 23.4209 138.852 23.9282C139.036 24.4355 139.125 24.9658 139.123 25.5192C139.12 26.0726 139.011 26.6417 138.797 27.1471C138.583 27.6526 138.266 28.0989 137.845 28.4859C137.426 28.873 136.904 29.176 136.279 29.3977C135.654 29.6179 134.937 29.7277 134.128 29.724C133.65 29.7218 133.212 29.6904 132.814 29.6299C132.417 29.5693 132.046 29.4913 131.701 29.3972L131.675 35.1617L131.675 35.1588ZM131.705 28.584C131.983 28.691 132.295 28.7614 132.639 28.7953C132.984 28.8306 133.362 28.8485 133.774 28.8504C134.37 28.8531 134.882 28.7571 135.308 28.5609C135.733 28.3647 136.087 28.1109 136.366 27.7966C136.646 27.4822 136.85 27.1309 136.978 26.7424C137.105 26.3555 137.17 25.9697 137.172 25.5881C137.174 25.2064 137.106 24.7951 136.969 24.3922C136.833 23.9938 136.622 23.6244 136.347 23.3031C136.07 22.9789 135.719 22.7174 135.296 22.5188C134.872 22.3187 134.381 22.2181 133.825 22.2155L131.736 22.2059L131.707 28.584L131.705 28.584ZM141.736 25.9055C142.026 25.0643 142.476 24.2927 143.09 23.5924C143.703 22.8906 144.483 22.3129 145.427 21.8563C146.372 21.3997 147.5 21.1744 148.814 21.1804C150.128 21.1864 151.291 21.4252 152.264 21.8964C153.236 22.3677 154.04 22.9615 154.673 23.6749C155.306 24.3883 155.774 25.164 156.075 26.0007C156.376 26.8388 156.525 27.6248 156.521 28.3617C156.519 28.8491 156.447 29.3625 156.306 29.9006C156.164 30.4402 155.956 30.975 155.681 31.5066C155.407 32.0382 155.057 32.5445 154.63 33.0226C154.203 33.5006 153.7 33.924 153.121 34.2898C152.542 34.6556 151.89 34.9462 151.167 35.1587C150.443 35.3726 149.636 35.4775 148.748 35.4735C147.434 35.4674 146.308 35.2289 145.368 34.7577C144.428 34.2866 143.655 33.693 143.047 32.9797C142.441 32.2664 141.996 31.4908 141.715 30.6542C141.433 29.8177 141.295 29.0302 141.298 28.2933C141.301 27.5564 141.447 26.7468 141.736 25.9055ZM143.664 30.8408C143.946 31.6113 144.333 32.2751 144.829 32.8308C145.317 33.3806 145.915 33.8237 146.585 34.1321C147.26 34.445 147.996 34.6025 148.792 34.6061C149.588 34.6098 150.315 34.459 151.013 34.1524C151.706 33.8503 152.331 33.4128 152.851 32.8676C153.377 32.3166 153.794 31.6579 154.104 30.8887C154.413 30.1209 154.569 29.2746 154.573 28.3542C154.577 27.4339 154.429 26.5862 154.128 25.8156C153.826 25.0435 153.415 24.3811 152.892 23.8253C152.377 23.2754 151.758 22.8321 151.067 22.5236C150.371 22.2107 149.632 22.0532 148.85 22.0496C148.067 22.046 147.316 22.1967 146.639 22.5033C145.966 22.8056 145.365 23.2432 144.872 23.7885C144.373 24.3396 143.978 24.9984 143.69 25.7677C143.401 26.537 143.255 27.3819 143.251 28.3023C143.247 29.2227 143.385 30.0703 143.667 30.8408L143.664 30.8408ZM159.935 21.4678L164.921 21.4906C165.612 21.4938 166.213 21.5993 166.724 21.8057C167.235 22.0121 167.653 22.2739 167.977 22.5909C168.301 22.908 168.542 23.2585 168.7 23.6409C168.858 24.0233 168.936 24.3995 168.935 24.7679C168.934 25.1819 168.838 25.591 168.651 25.9615C168.466 26.3335 168.21 26.667 167.901 26.946C167.587 27.2279 167.225 27.4567 166.813 27.6324C166.401 27.8081 165.963 27.8957 165.498 27.8935L165.498 27.9728C165.789 27.9873 166.174 28.0346 166.651 28.1161C167.129 28.1975 167.592 28.3567 168.043 28.5966C168.493 28.835 168.882 29.1803 169.213 29.6281C169.542 30.0773 169.705 30.677 169.701 31.4271C169.699 31.9012 169.614 32.372 169.445 32.8381C169.276 33.3041 169.004 33.7212 168.63 34.0879C168.255 34.4547 167.761 34.7519 167.148 34.9795C166.534 35.2072 165.781 35.3182 164.889 35.3141L159.873 35.2911L159.937 21.4707L159.935 21.4678ZM164.106 27.5275C164.504 27.5293 164.879 27.465 165.231 27.3345C165.584 27.204 165.896 27.0219 166.169 26.7854C166.441 26.5518 166.658 26.2636 166.809 25.9398C166.963 25.6117 167.041 25.2568 167.043 24.8752C167.045 24.5728 166.993 24.2702 166.888 23.9658C166.782 23.6629 166.615 23.3921 166.384 23.1547C166.153 22.9173 165.855 22.7251 165.491 22.5781C165.127 22.4311 164.686 22.3571 164.17 22.3548L161.742 22.3436L161.718 27.5165L164.106 27.5275ZM164.582 34.4408C165.008 34.4427 165.411 34.3829 165.791 34.2584C166.171 34.1354 166.502 33.949 166.782 33.7007C167.063 33.4525 167.288 33.1496 167.455 32.7952C167.623 32.4407 167.709 32.033 167.711 31.5721C167.713 31.1508 167.638 30.7497 167.487 30.3673C167.336 29.985 167.104 29.6477 166.793 29.3571C166.483 29.0665 166.087 28.8342 165.609 28.6603C165.13 28.4878 164.565 28.3986 163.913 28.3956L161.717 28.3856L161.69 34.4275L164.585 34.4408L164.582 34.4408Z" fill="white"/>
</svg>
