<svg xmlns="http://www.w3.org/2000/svg" width="170" height="37" fill="none"><path fill="#fff" d="m3.698 14.803-1.811-.009L1.95.974l4.656.021q1.155.006 2.008.346t1.419.905q.565.566.84 1.326a4.6 4.6 0 0 1 .27 1.591 4.3 4.3 0 0 1-.325 1.628 3.8 3.8 0 0 1-.951 1.339q-.63.58-1.567.91-.938.332-2.151.326a9 9 0 0 1-1.313-.095 10 10 0 0 1-1.113-.233l-.027 5.766zm.03-6.575q.417.16.934.211.517.052 1.134.055.896.005 1.534-.29A3.15 3.15 0 0 0 8.39 7.44q.42-.472.611-1.054.192-.582.195-1.154a3.7 3.7 0 0 0-.203-1.196 3.3 3.3 0 0 0-.623-1.09 3.1 3.1 0 0 0-1.05-.784q-.637-.3-1.471-.303l-2.09-.01-.029 6.379zM23.74 1.074l-.005 1.086-7.185-.033-.022 4.956 6.169.028-.005.949-6.169-.029-.026 5.746 7.184.033-.005 1.086-8.995-.041.064-13.822zm5.42.913q-.576.255-.925.618a2.2 2.2 0 0 0-.5.798q-.15.434-.172.789l-1.51-.007q.025-.849.385-1.48c.237-.417.569-.773.968-1.042a4.3 4.3 0 0 1 1.442-.605A8 8 0 0 1 30.696.87q1.311.007 2.222.315.912.31 1.495.797.583.486.838 1.109a3.25 3.25 0 0 1 .04 2.42q-.213.57-.593 1.014a2.9 2.9 0 0 1-.909.706 2.5 2.5 0 0 1-1.144.262v.08h.138q.657.003 1.292.253c.421.164.805.407 1.133.715q.498.466.81 1.11.312.643.309 1.432-.003.711-.295 1.44-.293.73-.974 1.318-.68.59-1.81.96-1.128.369-2.782.362-2.532-.011-3.735-.955-1.201-.943-1.253-2.799l1.89.009q.02.337.126.82.105.484.444.94.335.455.97.783.637.329 1.711.334c.716.003 1.334-.105 1.813-.328q.717-.332 1.138-.834t.592-1.084q.172-.58.174-1.056a2.6 2.6 0 0 0-.292-1.245 2.8 2.8 0 0 0-.821-.941 3.8 3.8 0 0 0-1.262-.589 6.3 6.3 0 0 0-1.631-.206l-1.392-.006.004-.869 1.393.006q1.154.006 1.823-.317.668-.323 1.008-.775t.432-.926a4.4 4.4 0 0 0 .092-.77q.005-1.125-.775-1.87-.78-.743-2.289-.75-.894-.004-1.47.25zm20.847-.792 1.811.008-.063 13.82-1.811-.008L50 2.675 41.685 14.98l-1.81-.009.063-13.822 1.81.009-.055 12.2zm18.328 12.977 1.95.008-.014 3-1.691-.007.01-2.072-12.159-.056-.01 2.072-1.69-.007.013-3 1.87.008 5.054-12.87 1.213.006zM61.857 3.4h-.08l-4.23 10.721 8.876.04-4.568-10.761zm20.466-2.058-.005 1.086-7.184-.033-.023 4.956 6.17.028-.005.948-6.17-.028-.026 5.746 7.184.032-.005 1.087-8.995-.042.064-13.821zm4.733 13.842-1.811-.008.063-13.82 1.811.008-.028 6.042 8.339.038.027-6.042 1.811.008-.063 13.82-1.811-.008.031-6.87-8.338-.04zm28.52-.954-.015 3.16-1.691-.009.01-2.072-11.9-.055.064-13.822 1.811.009-.059 12.735 8.278.038.058-12.735 1.811.008-.058 12.736zm13.709-12.673 1.811.009-.064 13.82-1.811-.008.057-12.34-8.315 12.303-1.811-.008.064-13.822 1.811.008-.056 12.202zm16.655.077 1.811.008-.063 13.82-1.811-.008.057-12.34-8.315 12.304-1.811-.009.063-13.821 1.811.008-.056 12.201zM2.687 31.229l-1.77 4.06L0 35.283l5.953-13.793.994.004 6.424 13.85-1.93-.008L9.55 31.26l-6.864-.031zm3.358-7.527h-.08l-2.896 6.64 6.068.028-3.094-6.668zM18.17 35.367l-1.81-.008.063-13.82 4.656.021q1.154.005 2.009.346.853.34 1.419.904.565.566.84 1.327a4.6 4.6 0 0 1 .27 1.59 4.3 4.3 0 0 1-.325 1.629 3.9 3.9 0 0 1-.951 1.339q-.63.58-1.567.911-.937.33-2.151.327a9 9 0 0 1-2.426-.327l-.027 5.764zm.03-6.574q.418.16.934.211.518.052 1.135.055.897.005 1.534-.29.639-.294 1.058-.764t.612-1.054q.191-.582.195-1.154a3.7 3.7 0 0 0-.204-1.196 3.3 3.3 0 0 0-.622-1.09 3.1 3.1 0 0 0-1.051-.784q-.637-.3-1.47-.303l-2.09-.01-.03 6.379m15.49-1.746h.099l4.223-5.41 1.055.004-4.785 6.158 5.996 7.669-2.25-.01-4.826-6.203h-.08l-4.785 6.158-1.074-.005 5.365-6.866-5.4-6.955 2.229.01zm19.506-5.34 1.81.009-.063 13.82-1.81-.008.056-12.34-8.315 12.302-1.81-.008.063-13.82 1.81.008-.055 12.2zm9.867 13.867.058-12.736-5.333-.025.005-1.086 12.476.057-.005 1.087-5.334-.025-.058 12.734-1.81-.008zM82.05 21.84l-.005 1.086-7.184-.033-.023 4.956 6.169.028-.004.949-6.17-.029-.026 5.746 7.184.032-.005 1.087-8.995-.041.064-13.82 8.995.04zm2.985.014 1.811.008-.036 7.778 7.498-7.744.994.005-5.078 5.327 6.17 8.498-2.07-.01-5.26-7.269-2.26 2.378-.021 4.857-1.811-.008zm17.687 13.901.059-12.735-5.334-.025.005-1.086 12.478.057-.005 1.087-5.334-.025-.058 12.734-1.811-.008zm9.007-9.258a6.9 6.9 0 0 1 1.354-2.313q.92-1.053 2.336-1.736 1.417-.685 3.387-.676c1.314.006 2.477.245 3.45.716q1.46.707 2.409 1.779a7.1 7.1 0 0 1 1.402 2.326q.451 1.257.447 2.36-.003.732-.216 1.54a7.8 7.8 0 0 1-.624 1.605 7.3 7.3 0 0 1-1.052 1.516q-.64.718-1.509 1.268a7.7 7.7 0 0 1-1.954.869q-1.087.32-2.418.314-1.97-.009-3.381-.715-1.41-.708-2.32-1.779a7 7 0 0 1-1.333-2.325q-.422-1.255-.417-2.36c.004-.738.149-1.547.439-2.389m1.927 4.936q.422 1.155 1.166 1.99a5.241 5.241 0 0 0 3.961 1.775 5.35 5.35 0 0 0 2.221-.454 5.7 5.7 0 0 0 1.838-1.285 6.2 6.2 0 0 0 1.253-1.979q.463-1.152.469-2.534.007-1.381-.446-2.539a6.1 6.1 0 0 0-1.235-1.99 5.7 5.7 0 0 0-1.825-1.302 5.4 5.4 0 0 0-2.217-.474 5.3 5.3 0 0 0-2.211.454 5.3 5.3 0 0 0-1.767 1.285 6.1 6.1 0 0 0-1.184 1.98q-.433 1.154-.439 2.534-.007 1.381.416 2.539m18.019 4.455-1.811-.008.064-13.82 4.655.02q1.155.007 2.009.346.853.342 1.419.905.565.567.841 1.327.275.76.271 1.59a4.3 4.3 0 0 1-.326 1.629 3.8 3.8 0 0 1-.952 1.338q-.629.58-1.566.912-.937.331-2.151.326a9 9 0 0 1-2.427-.326l-.026 5.764zm.03-6.574q.417.16.934.21.517.053 1.135.056.894.005 1.534-.29.639-.294 1.058-.764t.612-1.054q.19-.582.194-1.154a3.7 3.7 0 0 0-.203-1.196 3.3 3.3 0 0 0-.622-1.09 3.1 3.1 0 0 0-1.051-.784q-.636-.3-1.471-.303l-2.089-.01-.029 6.379zm10.031-2.679q.434-1.262 1.354-2.313t2.337-1.736 3.387-.676c1.314.006 2.477.245 3.45.716q1.459.708 2.409 1.778a7.1 7.1 0 0 1 1.402 2.326q.452 1.256.446 2.361-.003.732-.215 1.54a7.8 7.8 0 0 1-.625 1.605 7.3 7.3 0 0 1-1.051 1.516 7 7 0 0 1-1.509 1.267 7.7 7.7 0 0 1-1.954.87q-1.086.32-2.419.314-1.97-.01-3.38-.716-1.41-.707-2.321-1.778a7 7 0 0 1-1.332-2.325q-.422-1.256-.417-2.361c.003-.737.149-1.547.438-2.388m1.928 4.935q.422 1.156 1.165 1.99a5.243 5.243 0 0 0 3.963 1.775 5.35 5.35 0 0 0 2.221-.453 5.7 5.7 0 0 0 1.838-1.285 6.2 6.2 0 0 0 1.253-1.979q.463-1.153.469-2.534t-.445-2.539a6.1 6.1 0 0 0-1.236-1.99 5.7 5.7 0 0 0-1.825-1.302 5.4 5.4 0 0 0-2.217-.474 5.3 5.3 0 0 0-2.211.454 5.3 5.3 0 0 0-1.767 1.285 6.1 6.1 0 0 0-1.182 1.98q-.433 1.152-.439 2.534t.416 2.538zm16.271-9.373 4.986.023q1.037.005 1.803.315.767.31 1.253.785t.723 1.05.235 1.127a2.66 2.66 0 0 1-.284 1.194 3.3 3.3 0 0 1-.75.985q-.47.422-1.088.686t-1.315.261v.08q.437.02 1.153.143.716.12 1.392.48.674.359 1.17 1.032.494.674.488 1.799a4.2 4.2 0 0 1-.256 1.41 3.3 3.3 0 0 1-.815 1.25q-.562.55-1.482.892-.921.341-2.259.335l-5.016-.023.064-13.82zm4.171 6.06q.597.003 1.125-.193a3 3 0 0 0 .938-.55 2.51 2.51 0 0 0 .874-1.91 2.7 2.7 0 0 0-.155-.909 2.2 2.2 0 0 0-.504-.81 2.6 2.6 0 0 0-.893-.577q-.547-.22-1.321-.224l-2.428-.01-.024 5.172zm.476 6.913a3.8 3.8 0 0 0 1.209-.182q.57-.185.991-.558.422-.372.673-.905.252-.532.256-1.223a3.2 3.2 0 0 0-.224-1.205 2.76 2.76 0 0 0-.694-1.01q-.466-.436-1.184-.697t-1.696-.265l-2.196-.01-.027 6.042 2.895.013z"/></svg>