<svg xmlns="http://www.w3.org/2000/svg" width="50" height="92" fill="none"><path fill="#560300" d="m31.592 16.42.6.54q-.26.3-.76.7a6.4 6.4 0 0 1-1.26.76q-.74.34-1.76.58-1 .24-2.28.24-2.02 0-3.48-.62-1.46-.64-2.4-1.66a6.8 6.8 0 0 1-1.4-2.36 8.7 8.7 0 0 1-.44-2.74q0-1.62.56-2.92a6.3 6.3 0 0 1 1.58-2.24q1.02-.94 2.44-1.44 1.44-.5 3.18-.5 1.2 0 2.14.24a6.1 6.1 0 0 1 1.64.66q.7.42 1.16 1 .48.58.78 1.26h-1.48a2.35 2.35 0 0 0-.5-.82 3.2 3.2 0 0 0-.9-.74 5.2 5.2 0 0 0-1.26-.52 5.7 5.7 0 0 0-1.56-.2q-1.26 0-2.34.46a5.6 5.6 0 0 0-1.84 1.28q-.78.82-1.22 1.96-.42 1.12-.42 2.48 0 1.28.4 2.46.42 1.18 1.22 2.08t2 1.44 2.76.54q2.8 0 4.84-1.92M25 27l5.196 9H19.804z"/><circle cx="25" cy="67" r="22.5" stroke="#560300" stroke-width="5"/></svg>