<svg xmlns="http://www.w3.org/2000/svg" width="57" height="65" fill="none"><path fill="#3A3838" d="M6.832 28.167V26H4.665v2.167zm17.333 0V26H22v2.167zm0 17.333H22v2.167h2.166zM54.5 15.167h2.166v-.897l-.632-.637zm-13-13L43.033.633 42.396 0h-.897zM6.832 30.333h4.333V26H6.832zm2.167 17.334V36.833H4.665v10.834zm0-10.834v-8.666H4.665v8.666zm2.166-2.166H6.832V39h4.333zm2.167-2.167a2.167 2.167 0 0 1-2.167 2.167V39a6.5 6.5 0 0 0 6.5-6.5zm-2.167-2.167a2.167 2.167 0 0 1 2.167 2.167h4.333a6.5 6.5 0 0 0-6.5-6.5zM22 28.167V45.5h4.333V28.167zm2.166 19.5H28.5v-4.334h-4.334zM35 41.167V32.5h-4.334v8.667zM28.499 26h-4.334v4.333H28.5zm6.5 6.5a6.5 6.5 0 0 0-6.5-6.5v4.333a2.167 2.167 0 0 1 2.166 2.167zm-6.5 15.167a6.5 6.5 0 0 0 6.5-6.5h-4.334a2.167 2.167 0 0 1-2.166 2.166zM39.332 26v21.667h4.333V26zm2.167 4.333h10.833V26H41.499zm0 8.667h6.5v-4.333h-6.5zM4.665 21.667V6.5H.332v15.167zm47.667-6.5v6.5h4.333v-6.5zM6.832 4.333h34.667V0H6.832zm33.133-.632 13 13 3.068-3.068-13-13zM4.665 6.5a2.167 2.167 0 0 1 2.167-2.167V0a6.5 6.5 0 0 0-6.5 6.5zM.332 52v6.5h4.333V52zm6.5 13h43.333v-4.333H6.832zm49.833-6.5V52h-4.333v6.5zm-6.5 6.5a6.5 6.5 0 0 0 6.5-6.5h-4.333a2.167 2.167 0 0 1-2.167 2.167zM.332 58.5a6.5 6.5 0 0 0 6.5 6.5v-4.333A2.167 2.167 0 0 1 4.665 58.5z"/></svg>