<svg xmlns="http://www.w3.org/2000/svg" width="43" height="50" fill="none"><path fill="#3A3838" d="M5.167 21.547v-1.633H3.533v1.633zm13.066 0v-1.633H16.6v1.633zm0 13.067H16.6v1.633h1.633zM41.1 11.747h1.633v-.676l-.477-.48zm-9.8-9.8L32.456.791l-.48-.477H31.3zM5.167 23.18h3.266v-3.266H5.167zM6.8 36.247V28.08H3.533v8.167zm0-8.167v-6.533H3.533v6.533zm1.633-1.633H5.167v3.267h3.266zm1.634-1.633a1.633 1.633 0 0 1-1.634 1.633v3.267a4.9 4.9 0 0 0 4.9-4.9zM8.433 23.18a1.633 1.633 0 0 1 1.634 1.634h3.266a4.9 4.9 0 0 0-4.9-4.9zm8.167-1.633v13.067h3.267V21.547zm1.633 14.7H21.5V32.98h-3.267zm8.167-4.9v-6.533h-3.267v6.533zm-4.9-11.433h-3.267v3.266H21.5zm4.9 4.9a4.9 4.9 0 0 0-4.9-4.9v3.266a1.633 1.633 0 0 1 1.633 1.634zm-4.9 11.433a4.9 4.9 0 0 0 4.9-4.9h-3.267A1.633 1.633 0 0 1 21.5 32.98zm8.167-16.333v16.333h3.266V19.914zM31.3 23.18h8.167v-3.266H31.3zm0 6.534h4.9v-3.267h-4.9zM3.533 16.647V5.214H.267v11.433zm35.934-4.9v4.9h3.266v-4.9zM5.167 3.58H31.3V.314H5.167zm24.977-.477 9.8 9.8 2.312-2.312-9.8-9.8zm-26.61 2.11A1.633 1.633 0 0 1 5.166 3.58V.314a4.9 4.9 0 0 0-4.9 4.9zm-3.267 34.3v4.9h3.266v-4.9zm4.9 9.8h32.666v-3.266H5.167zm37.566-4.9v-4.9h-3.266v4.9zm-4.9 4.9a4.9 4.9 0 0 0 4.9-4.9h-3.266a1.633 1.633 0 0 1-1.634 1.634zm-37.566-4.9a4.9 4.9 0 0 0 4.9 4.9v-3.266a1.633 1.633 0 0 1-1.634-1.633z"/></svg>