<svg width="339" height="242" viewBox="0 0 339 242" fill="none" xmlns="http://www.w3.org/2000/svg">
<path d="M58.4878 61.231H75.1719V51.3609V48.9848V41.6736V35.0935V32.7174H60.1379H58.4878L58.1211 35.2763L58.6711 37.8352L58.1211 41.308L58.6711 44.0497L58.1211 46.7914L58.4878 49.8987L58.1211 52.8231L58.4878 55.3821L58.1211 58.6721L58.4878 61.231Z" stroke="black" stroke-width="0.75" stroke-miterlimit="10"/>
<path d="M187.193 81.7024H190.494H195.077H197.827V82.6163H203.511V81.7024H217.078V98.5181H202.411H187.193V81.7024Z" stroke="black" stroke-width="0.75" stroke-miterlimit="10"/>
<path d="M158.225 81.8852H168.675H170.692V82.6163H177.476V81.7024H179.676H184.259H187.193V98.5181H183.343H180.409H173.075H170.142H158.225V95.7764V81.8852Z" stroke="black" stroke-width="0.75" stroke-miterlimit="10"/>
<path d="M110.188 98.5181H121.005H127.605H137.139H139.889V95.4109V81.7024H128.338H125.772V82.2507H119.721V81.7024H117.338H112.754H110.188V98.5181Z" stroke="black" stroke-width="0.75" stroke-miterlimit="10"/>
<path d="M99.5547 144.396H102.488H116.606V141.106V133.977V132.149V125.204V123.011V115.151H99.5547V118.807V123.193V125.752V130.504H99.9214V135.988H99.5547V144.396Z" stroke="black" stroke-width="0.75" stroke-miterlimit="10"/>
<path d="M58.4863 81.7024H68.2035V82.2507H72.237H74.0704V81.7024H81.0374H85.8043H88.7378V98.5181H77.5539H71.3203H58.4863V95.4109V81.7024Z" stroke="black" stroke-width="0.75" stroke-miterlimit="10"/>
<path d="M44.7363 115.151H55.1868H58.3037V115.517H63.8039V115.151H66.7374H71.5043H74.8045V128.311V131.784H62.1539H56.4702H44.7363V128.311V115.151Z" stroke="black" stroke-width="0.75" stroke-miterlimit="10"/>
<path d="M58.4858 61.2311H75.17V51.361V48.9849V41.6737V35.0937V32.7175H60.1359H58.4858L58.1191 35.2764L58.6692 37.8354L58.1191 41.3082L58.6692 44.0499L58.1191 46.7915L58.4858 49.8988L58.1191 52.8233L58.4858 55.3822L58.1191 58.6722L58.4858 61.2311Z" stroke="black" stroke-width="0.75" stroke-miterlimit="10"/>
<path d="M57.752 27.5997V32.7175H75.1695V23.3958V21.568V13.5257V11.1496V8.77344H57.752V18.0952V23.213V27.5997Z" stroke="black" stroke-width="0.75" stroke-miterlimit="10"/>
<path d="M90.7539 44.5981H94.0541H101.754V45.512H108.171V44.5981H110.005H118.805V48.2537V58.3066V61.2311H112.755H110.372H101.388H98.821H90.7539V58.3066V44.5981Z" stroke="black" stroke-width="0.75" stroke-miterlimit="10"/>
<path d="M178.758 144.396H182.058H196.359V141.106V133.977V132.149V125.204V123.011V115.151H178.758V125.752V130.87H179.124V135.988H178.758V144.396Z" stroke="black" stroke-width="0.75" stroke-miterlimit="10"/>
<path d="M257.963 137.45H226.611V154.266H257.963V137.45Z" stroke="black" stroke-width="0.75" stroke-miterlimit="10"/>
<path d="M257.962 106.56H247.512V120.634H257.962V106.56Z" stroke="black" stroke-width="0.75" stroke-miterlimit="10"/>
<path d="M255.396 1.2795C255.396 1.2795 288.214 29.4275 303.432 80.7886C318.649 132.15 328.183 172.909 328.183 172.909C328.183 172.909 337.533 195.391 338.083 240.903L318.466 240.172C317.182 194.843 307.465 172.361 307.465 172.361C307.465 172.361 297.015 131.601 281.064 80.6058C265.113 29.6103 227.895 0.91394 227.895 0.91394L255.396 1.2795Z" fill="#D2F9FF"/>
<path d="M295.73 78.2296C295.913 78.778 296.28 79.5091 296.647 80.423C297.013 81.7024 297.013 82.6163 296.647 83.3474C296.28 83.8958 295.73 84.4441 294.997 84.8097C294.08 84.9924 293.346 84.9924 292.796 84.6269C291.88 84.2613 291.33 83.1647 290.963 82.068C290.78 81.7024 290.78 81.3369 290.78 81.1541L287.113 82.2508L286.746 80.9713L295.73 78.2296ZM291.696 80.7885C291.696 81.1541 291.696 81.3369 291.88 81.8852C292.246 83.3474 293.163 84.0786 294.63 83.713C295.913 83.3474 296.28 82.2508 295.913 80.9713C295.73 80.423 295.547 80.0574 295.547 79.8746L291.696 80.7885Z" fill="#007AA0"/>
<path d="M294.812 93.2176L293.712 89.562L290.412 90.4759L291.512 94.497L290.412 94.8626L288.945 89.562L298.296 87.0031L299.763 92.1209L298.662 92.4864L297.562 88.6481L294.629 89.562L295.729 93.2176H294.812Z" fill="#007AA0"/>
<path d="M301.047 96.3248L296.83 97.4215L297.014 97.787L302.147 99.7976L302.514 101.26L297.197 98.8837C297.38 100.529 296.647 101.26 295.547 102.174C294.63 102.722 293.897 103.27 293.164 104.002L292.797 102.722C293.347 102.174 294.08 101.625 294.814 101.26C295.914 100.529 296.647 99.6148 296.097 98.1526L295.914 97.787L291.697 99.0665L291.33 97.9698L300.681 95.4109L301.047 96.3248Z" fill="#007AA0"/>
<path d="M297.38 107.474L294.08 107.292L293.713 106.012L303.98 106.56L304.347 108.023L295.913 113.872L295.546 112.592L298.113 110.764L297.38 107.474ZM299.213 110.216L301.597 108.571C302.147 108.205 302.697 107.84 303.247 107.657C302.697 107.657 301.963 107.657 301.413 107.657L298.48 107.474L299.213 110.216Z" fill="#007AA0"/>
<path d="M300.131 129.225C300.498 129.225 300.681 129.408 301.048 129.408C302.148 129.591 303.614 129.408 304.531 129.956C304.898 130.139 305.081 130.322 305.264 130.687C305.081 129.408 305.631 128.311 306.914 127.946C307.648 127.763 308.565 127.946 309.115 128.311C309.848 128.677 310.215 129.591 310.581 130.87C310.765 131.601 310.948 132.515 310.948 133.246L301.781 135.805L301.414 134.526L305.448 133.429L305.264 132.515C305.081 131.967 304.898 131.601 304.348 131.236C303.431 130.87 302.148 130.87 301.048 130.87C300.864 130.87 300.497 130.87 300.314 130.687L300.131 129.225ZM309.848 131.967C309.848 131.784 309.848 131.418 309.665 130.87C309.298 129.591 308.565 128.86 307.281 129.225C306.181 129.591 305.814 130.687 306.181 131.967C306.364 132.332 306.364 132.698 306.548 133.063L309.848 131.967Z" fill="#007AA0"/>
<path d="M312.782 137.633L309.298 140.557C308.748 140.923 308.381 141.288 307.831 141.654C308.381 141.654 308.931 141.654 309.665 141.837L314.065 142.202L314.432 143.482L309.115 142.933C307.648 142.751 306.181 142.568 305.081 142.202C304.165 141.837 303.614 141.288 303.248 140.375C303.248 140.009 303.064 139.826 303.064 139.643L304.165 139.461C304.165 139.643 304.165 139.643 304.165 139.826C304.531 140.74 305.631 141.106 306.365 141.288C306.548 141.288 306.731 141.288 306.915 141.106L312.415 136.171L312.782 137.633Z" fill="#007AA0"/>
<path d="M314.798 146.589C315.348 147.137 315.898 147.869 316.265 148.782C316.815 150.427 316.265 151.707 314.798 152.255C313.698 152.621 312.598 152.072 312.048 150.976C312.232 152.255 311.681 153.535 310.398 153.9C308.381 154.449 307.281 152.986 306.731 151.341C306.548 150.427 306.365 149.514 306.731 148.782H307.831C307.648 149.331 307.648 150.245 307.831 150.976C308.198 152.438 309.115 152.986 310.215 152.621C311.682 152.255 311.682 150.793 311.315 149.514L311.131 148.965L312.048 148.782L312.232 149.331C312.598 150.61 313.698 151.341 314.615 150.976C315.532 150.793 315.898 149.879 315.532 148.965C315.348 148.234 314.798 147.686 314.432 147.137L314.798 146.589Z" fill="#007AA0"/>
<path d="M311.866 158.287L308.566 158.104L308.199 156.825L318.466 157.373L318.833 158.835L310.399 164.684L310.033 163.405L312.783 161.577L311.866 158.287ZM313.699 161.212L316.083 159.567C316.633 159.201 317.183 158.835 317.733 158.653C317.183 158.653 316.45 158.653 315.9 158.653L312.966 158.47L313.699 161.212Z" fill="#007AA0"/>
<path d="M136.039 144.761H144.106V144.396H150.706V144.761H158.774V130.87H136.039V144.761Z" stroke="black" stroke-width="0.75" stroke-miterlimit="10"/>
<path d="M158.225 46.426V60.6828V61.2311H134.207V44.4154H145.208V45.6949H151.991V46.426H158.225Z" stroke="black" stroke-width="0.75" stroke-miterlimit="10"/>
<path d="M182.792 44.5981V61.2311H164.275H158.225V46.4259H165.008V45.6948H168.308H171.792V44.5981H182.792Z" stroke="black" stroke-width="0.75" stroke-miterlimit="10"/>
<path d="M90.9374 44.5981H75.1699V61.4139H90.9374V44.5981Z" stroke="black" stroke-width="0.75" stroke-miterlimit="10"/>
<path d="M110.189 81.7024H88.7383V98.5181H110.189V81.7024Z" stroke="black" stroke-width="0.75" stroke-miterlimit="10"/>
<path d="M136.04 130.87H116.605V144.396H136.04V130.87Z" stroke="black" stroke-width="0.75" stroke-miterlimit="10"/>
<path d="M158.775 144.396H178.76V135.988H179.31V130.87H158.775V144.396Z" stroke="black" stroke-width="0.75" stroke-miterlimit="10"/>
<path d="M63.8027 115.151H74.8033V127.58H83.237V98.5182H63.8027V115.151Z" stroke="black" stroke-width="0.75" stroke-miterlimit="10"/>
<path d="M44.7356 115.151H32.8184V127.58H44.7356V115.151Z" stroke="black" stroke-width="0.75" stroke-miterlimit="10"/>
<path d="M217.812 178.576H200.027V215.68H217.812V178.576Z" stroke="black" stroke-width="0.75" stroke-miterlimit="10"/>
<path d="M259.827 208.021H226.275V225.75H259.827V208.021Z" fill="#560300"/>
<path d="M91.4883 20.654L117.34 26.6857H144.108V8.04224H91.4883V20.654Z" stroke="black" stroke-width="0.75" stroke-miterlimit="10"/>
<path d="M31.7185 1.27942H31.5352V1.4622" stroke="black" stroke-width="0.438" stroke-miterlimit="10" stroke-linecap="round"/>
<path d="M31.5352 4.20398V90.6587" stroke="black" stroke-width="0.438" stroke-miterlimit="10" stroke-linecap="round" stroke-dasharray="0.15 1.46"/>
<path d="M31.5349 91.9381V92.1209H31.3516" stroke="black" stroke-width="0.438" stroke-miterlimit="10" stroke-linecap="round"/>
<path d="M28.7834 92.1208H1.83203" stroke="black" stroke-width="0.438" stroke-miterlimit="10" stroke-linecap="round" stroke-dasharray="0.14 1.4"/>
<path d="M0.55053 92.1208H0.367188V92.3036" stroke="black" stroke-width="0.438" stroke-miterlimit="10" stroke-linecap="round"/>
<path d="M0.367188 94.8625V148.051" stroke="black" stroke-width="0.438" stroke-miterlimit="10" stroke-linecap="round" stroke-dasharray="0.14 1.43"/>
<path d="M0.367188 149.331V149.514H0.55053" stroke="black" stroke-width="0.438" stroke-miterlimit="10" stroke-linecap="round"/>
<path d="M3.11719 149.696L278.131 176.931" stroke="black" stroke-width="0.438" stroke-miterlimit="10" stroke-linecap="round" stroke-dasharray="0.15 1.47"/>
<path d="M279.414 177.113C279.597 177.113 279.597 177.113 279.414 177.113Z" stroke="black" stroke-width="0.438" stroke-miterlimit="10" stroke-linecap="round"/>
<path d="M279.231 174.372C277.031 155.363 278.314 32.7175 192.876 1.27942H33.002" stroke="black" stroke-width="0.438" stroke-miterlimit="10" stroke-linecap="round" stroke-dasharray="0.15 1.46"/>
<ellipse cx="180.409" cy="169.802" rx="0.40152" ry="0.400287" fill="black"/>
<path d="M180.41 172.544V238.71" stroke="black" stroke-width="0.438" stroke-miterlimit="10" stroke-linecap="round" stroke-dasharray="0.15 1.46"/>
<path d="M183.158 240.172H278.313" stroke="black" stroke-width="0.438" stroke-miterlimit="10" stroke-linecap="round" stroke-dasharray="0.14 1.45"/>
<path d="M279.598 240.172H279.781" stroke="black" stroke-width="0.438" stroke-miterlimit="10" stroke-linecap="round"/>
<path d="M279.781 237.431V180.952" stroke="black" stroke-width="0.438" stroke-miterlimit="10" stroke-linecap="round" stroke-dasharray="0.14 1.44"/>
<path d="M279.781 179.672V179.489" stroke="black" stroke-width="0.438" stroke-miterlimit="10" stroke-linecap="round"/>
<path d="M151.99 64.5211H151.807" stroke="black" stroke-width="0.438" stroke-miterlimit="10" stroke-linecap="round"/>
<path d="M149.241 64.5211H34.6523" stroke="black" stroke-width="0.438" stroke-miterlimit="10" stroke-linecap="round" stroke-dasharray="0.15 1.47"/>
<path d="M33.3669 64.5211H33.1836" stroke="black" stroke-width="0.438" stroke-miterlimit="10" stroke-linecap="round"/>
<ellipse cx="149.058" cy="3.8384" rx="0.40152" ry="0.400287" fill="black"/>
<path d="M149.059 6.58008V38.0181" stroke="black" stroke-width="0.438" stroke-miterlimit="10" stroke-linecap="round" stroke-dasharray="0.15 1.49"/>
<path d="M149.059 39.4803V39.6631" stroke="black" stroke-width="0.438" stroke-miterlimit="10" stroke-linecap="round"/>
<path d="M151.807 39.6631H184.808" stroke="black" stroke-width="0.438" stroke-miterlimit="10" stroke-linecap="round" stroke-dasharray="0.14 1.42"/>
<path d="M186.094 39.6631H186.277" stroke="black" stroke-width="0.438" stroke-miterlimit="10" stroke-linecap="round"/>
<path d="M186.275 42.5876V62.8762" stroke="black" stroke-width="0.438" stroke-miterlimit="10" stroke-linecap="round" stroke-dasharray="0.16 1.55"/>
<path d="M186.277 64.3384V64.5212H186.094" stroke="black" stroke-width="0.438" stroke-miterlimit="10" stroke-linecap="round"/>
<path d="M183.525 64.5211H153.457" stroke="black" stroke-width="0.438" stroke-miterlimit="10" stroke-linecap="round" stroke-dasharray="0.14 1.41"/>
<path d="M152.541 65.2523L152.357 66.7146V103.819L152.541 106.743H152.357V106.56C153.274 107.109 154.558 107.84 155.658 109.119C157.674 111.313 158.591 113.506 158.958 114.786L159.141 164.502" stroke="black" stroke-width="0.438" stroke-miterlimit="10" stroke-linecap="round" stroke-dasharray="0.15 1.47"/>
<path d="M238.162 77.864V88.648H236.695V77.864H238.162Z" fill="#1C1C1C"/>
<path d="M14.1171 114.054V124.838H12.6504V114.054H14.1171Z" fill="#1C1C1C"/>
<path d="M17.9667 114.054V124.838H16.5V114.054H17.9667Z" fill="#1C1C1C"/>
<path d="M41.0683 26.1375V36.9214H39.6016V26.1375L41.0683 26.1375Z" fill="#1C1C1C"/>
<path d="M44.9199 26.1375V36.9214H43.4531V26.1375L44.9199 26.1375Z" fill="#1C1C1C"/>
<path d="M48.7695 26.1375V36.9214H47.3027V26.1375L48.7695 26.1375Z" fill="#1C1C1C"/>
<path d="M237.978 38.2009L206.81 9.50456V9.32178H198.742V12.9774H156.207V22.6647H159.324V31.9864H191.775V37.8354H201.676V47.1571H222.944V53.3716H228.994V47.1571H237.978V38.2009Z" stroke="black" stroke-width="0.75" stroke-miterlimit="10"/>
<path d="M241.279 129.773H226.611V137.45H241.279V129.773Z" stroke="black" stroke-width="0.75" stroke-miterlimit="10"/>
<path d="M66.7363 18.0951H67.2863V24.4924H66.5529V19.1918L65.6362 19.9229L65.2695 19.3745L66.7363 18.0951Z" fill="black"/>
<path d="M102.672 55.3821C103.772 54.2855 105.605 52.6405 105.605 51.1782C105.605 50.6299 105.239 50.0815 104.505 50.0815C103.955 50.0815 103.405 50.4471 103.405 51.1782L102.672 50.9954C102.855 50.0815 103.589 49.5332 104.505 49.5332C105.789 49.5332 106.339 50.4471 106.339 51.1782C106.339 53.006 104.139 54.8338 103.589 55.3821H106.522V56.1133H102.672V55.3821Z" fill="black"/>
<path d="M121.557 18.2779C121.557 17.5468 122.107 16.8157 122.84 16.6329C122.29 16.4501 121.74 15.9018 121.74 15.1707C121.74 14.074 122.657 13.5256 123.757 13.5256C124.857 13.5256 125.774 14.2568 125.774 15.1707C125.774 15.719 125.407 16.4501 124.673 16.6329C125.407 16.8157 125.957 17.364 125.957 18.2779C125.957 19.3746 125.04 20.1057 123.757 20.1057C122.657 19.9229 121.557 19.3746 121.557 18.2779ZM123.573 16.9984C122.84 16.9984 122.29 17.5468 122.29 18.0951C122.29 18.6435 122.84 19.1918 123.573 19.1918C124.49 19.1918 124.857 18.6435 124.857 18.0951C124.857 17.364 124.307 16.9984 123.573 16.9984ZM123.94 16.2673C124.49 16.2673 125.04 15.719 125.04 15.1706C125.04 14.4395 124.49 14.074 123.94 14.074C123.39 14.074 122.84 14.4395 122.84 15.1706C122.84 15.719 123.39 16.2673 123.94 16.2673Z" fill="black"/>
<path d="M169.225 56.6616L169.042 56.1133C170.509 55.7477 171.425 54.8338 171.609 53.3716C171.425 53.9199 170.875 54.1027 170.142 54.1027C169.042 54.1027 168.309 53.1888 168.309 52.0921C168.309 50.8127 169.409 50.0815 170.325 50.0815C171.792 50.0815 172.525 51.1782 172.525 52.4577C172.342 54.8338 171.059 56.296 169.225 56.6616ZM170.325 50.8127C169.592 50.8127 169.042 51.361 169.042 52.0921C169.042 52.8232 169.592 53.3716 170.325 53.3716C171.059 53.3716 171.609 52.8232 171.609 52.4577C171.609 51.5438 171.242 50.8127 170.325 50.8127Z" fill="black"/>
<path d="M203.51 23.0302H204.06V29.4274H203.326V24.1268L202.41 24.8579L202.043 24.3096L203.51 23.0302Z" fill="black"/>
<path d="M205.344 28.5136L205.71 27.9652C206.077 28.5136 206.627 28.8791 207.177 28.8791C207.911 28.8791 208.461 28.3308 208.461 27.7825C208.461 27.0513 207.911 26.6858 207.177 26.6858H206.627V25.9547H207.177C207.727 25.9547 208.277 25.5891 208.277 24.858C208.277 24.3096 207.911 23.7613 207.177 23.7613C206.627 23.7613 206.077 24.1269 205.894 24.4924L205.527 23.9441C205.894 23.213 206.444 22.8474 207.361 22.8474C208.461 22.8474 209.194 23.3958 209.194 24.4924C209.194 25.2235 208.827 25.7719 208.277 25.9547C209.011 26.1374 209.561 26.6858 209.561 27.4169C209.561 28.5136 208.644 29.2447 207.544 29.2447C206.444 29.6103 205.71 29.2447 205.344 28.5136Z" fill="black"/>
<path d="M71.1367 92.8519L71.5034 92.3036C71.8701 92.8519 72.4201 93.2175 72.9701 93.2175C73.7035 93.2175 74.2535 92.6692 74.2535 92.1208C74.2535 91.3897 73.7035 91.0242 72.9701 91.0242H72.4201V90.293H72.9701C73.5202 90.293 74.0702 89.9275 74.0702 89.1964C74.0702 88.648 73.7035 88.0997 72.9701 88.0997C72.4201 88.0997 71.8701 88.4652 71.6867 88.8308L71.3201 88.2825C71.6867 87.5513 72.2368 87.1858 73.1535 87.1858C74.2535 87.1858 74.9869 87.7341 74.9869 88.8308C74.9869 89.5619 74.6202 90.1103 74.0702 90.293C74.8036 90.4758 75.3536 91.0242 75.3536 91.7553C75.3536 92.852 74.4369 93.5831 73.3368 93.5831C72.2368 93.9486 71.5034 93.5831 71.1367 92.8519Z" fill="black"/>
<path d="M125.773 92.3035H122.84V91.7552L125.59 87.5513H126.507L123.94 91.5724H125.957V89.7446H126.507V91.5724H127.423V92.3035H126.507V93.9486H125.773V92.3035Z" fill="black"/>
<path d="M198.928 87.5513H199.478V93.9486H198.744V88.6479L197.828 89.3791L197.461 88.8307L198.928 87.5513Z" fill="black"/>
<path d="M203.144 87.3685C204.61 87.3685 205.16 88.648 205.16 90.6586C205.16 92.6691 204.61 93.9486 203.144 93.9486C201.677 93.9486 201.127 92.6691 201.127 90.6586C201.127 88.8308 201.677 87.3685 203.144 87.3685ZM203.144 93.2175C204.06 93.2175 204.427 92.3036 204.427 90.6586C204.427 89.0135 204.06 88.0996 203.144 88.0996C202.227 88.0996 201.86 89.0135 201.86 90.6586C201.86 92.3036 202.227 93.2175 203.144 93.2175Z" fill="black"/>
<path d="M250.996 110.947H251.363V116.065H250.813V111.678L250.08 112.226L249.713 111.678L250.996 110.947Z" fill="black"/>
<path d="M255.03 110.764L255.213 111.13C254.296 111.313 253.38 112.227 253.196 113.323C253.38 112.958 253.746 112.592 254.48 112.592C255.396 112.592 255.946 113.323 255.946 114.237C255.946 115.334 255.213 115.882 254.296 115.882C253.196 115.882 252.463 114.968 252.463 114.054C252.646 112.409 253.93 111.13 255.03 110.764ZM254.296 115.517C254.846 115.517 255.213 114.968 255.213 114.42C255.213 113.872 254.846 113.323 254.113 113.323C253.563 113.323 253.196 113.689 253.013 114.054C253.196 114.968 253.563 115.517 254.296 115.517Z" fill="black"/>
<path d="M59.0361 120.086H61.9696V120.817H59.7695L59.5861 122.462C59.7695 122.462 59.9528 122.462 60.1362 122.462C61.2362 122.462 62.1529 123.193 62.1529 124.473C62.1529 125.752 61.2362 126.666 60.1362 126.666C59.4028 126.666 58.6694 126.301 58.3027 125.752L58.6694 125.204C59.0361 125.752 59.5861 125.935 60.1362 125.935C60.8695 125.935 61.4196 125.387 61.4196 124.656C61.4196 123.924 60.8695 123.376 59.7695 123.376C59.4028 123.376 59.0361 123.376 58.6694 123.559L59.0361 120.086Z" fill="black"/>
<path d="M109.821 126.483L110.188 127.032C109.088 127.397 107.988 128.311 107.621 129.956C107.804 129.408 108.354 129.042 109.088 129.042C110.188 129.042 110.921 129.773 110.921 131.053C110.921 132.332 110.004 133.063 108.904 133.063C107.438 133.063 106.704 131.967 106.704 130.687C106.521 128.494 108.354 126.849 109.821 126.483ZM108.904 132.332C109.638 132.332 110.188 131.784 110.188 131.053C110.188 130.322 109.821 129.773 108.904 129.773C108.171 129.773 107.621 130.322 107.621 130.687C107.438 131.601 107.804 132.332 108.904 132.332Z" fill="black"/>
<path d="M145.574 134.343H149.424V134.891L147.041 140.74H146.308L148.508 135.074H145.574L145.574 134.343Z" fill="black"/>
<path d="M186.826 125.569H187.376V131.967H186.643V126.666L185.726 127.397L185.359 126.849L186.826 125.569Z" fill="black"/>
<path d="M190.31 125.569H190.861V131.967H190.127V126.666L189.21 127.397L188.844 126.849L190.31 125.569Z" fill="black"/>
<path d="M241.461 143.299H242.011V149.696H241.278V144.396L240.361 145.127L239.994 144.579L241.461 143.299Z" fill="black"/>
<path d="M243.479 149.148C244.579 148.051 246.412 146.406 246.412 144.944C246.412 144.396 246.045 143.847 245.312 143.847C244.762 143.847 244.212 144.213 244.212 144.944L243.662 144.761C243.845 143.847 244.579 143.299 245.495 143.299C246.779 143.299 247.329 144.213 247.329 144.944C247.329 146.772 245.129 148.6 244.579 149.148H247.512V149.879H243.662L243.479 149.148Z" fill="black"/>
<path d="M9.16671 131.601H10.8168C10.6335 130.87 10.0834 130.687 9.35005 130.687C8.98337 130.687 8.80003 130.87 8.43334 131.053L8.25 130.504C8.43334 130.322 8.98337 130.139 9.5334 130.139C10.6335 130.139 11.5502 130.87 11.5502 132.149C11.5502 133.429 10.8168 134.16 9.5334 134.16C8.98337 134.16 8.43334 133.977 8.25 133.795L8.61668 133.246C8.80003 133.429 9.16671 133.612 9.5334 133.612C10.2668 133.612 10.8168 133.246 10.8168 132.515H9.16671V131.601Z" fill="black"/>
<path d="M11.7344 129.956H14.8512V130.505H13.5678V133.795H13.0178V130.505H11.7344V129.956Z" fill="black"/>
<path d="M16.3161 129.956H16.8661L18.5162 133.795H17.7828L17.4162 132.881H15.7661L15.3994 133.795H14.666L16.3161 129.956ZM15.9494 132.332H17.0495L16.4994 130.87L15.9494 132.332Z" fill="black"/>
<path d="M21.4499 130.687H19.7998V133.977H19.0664V130.139H22.1832V133.977H21.4499L21.4499 130.687Z" fill="black"/>
<path d="M230.829 95.2281H232.479C232.296 94.497 231.746 94.3142 231.012 94.3142C230.645 94.3142 230.462 94.497 230.095 94.6798L229.912 94.1314C230.095 93.9487 230.645 93.7659 231.196 93.7659C232.296 93.7659 233.212 94.497 233.212 95.7764C233.212 97.0559 232.479 97.787 231.196 97.787C230.645 97.787 230.095 97.6042 229.912 97.4215L230.279 96.8731C230.462 97.0559 230.829 97.2387 231.196 97.2387C231.929 97.2387 232.479 96.8731 232.479 96.142H230.829L230.829 95.2281Z" fill="black"/>
<path d="M233.394 93.5831H236.511V94.1315H235.228V97.4215H234.494V94.1315H233.211L233.394 93.5831Z" fill="black"/>
<path d="M237.795 93.5831H238.345L239.995 97.4215H239.261L238.895 96.5076H237.245L236.878 97.4215H236.145L237.795 93.5831ZM237.611 95.7765H238.711L238.161 94.497L237.611 95.7765Z" fill="black"/>
<path d="M243.112 94.1315H241.462V97.4215H240.729V93.5831H243.845V97.4215H243.112L243.112 94.1315Z" fill="black"/>
<path d="M37.7683 43.3187H39.4184C39.235 42.5876 38.685 42.4048 37.9516 42.4048C37.5849 42.4048 37.4016 42.5876 37.0349 42.7704L36.8516 42.0393C37.0349 41.8565 37.5849 41.6737 38.135 41.6737C39.235 41.6737 40.1517 42.4048 40.1517 43.6843C40.1517 44.9637 39.4184 45.6949 38.135 45.6949C37.5849 45.6949 37.0349 45.5121 36.8516 45.3293L37.2182 44.781C37.4016 44.9637 37.7683 45.1465 38.135 45.1465C38.8683 45.1465 39.4184 44.781 39.4184 44.0498H37.7683V43.3187Z" fill="black"/>
<path d="M40.3359 41.6737H43.4528V42.222H42.1694V45.5121H41.436V42.222H40.3359V41.6737Z" fill="black"/>
<path d="M44.9177 41.6737H45.4677L47.1178 45.5121H46.3844L46.0177 44.5982H44.3676L44.0009 45.5121H43.2676L44.9177 41.6737ZM44.551 43.8671H45.651L45.101 42.5876L44.551 43.8671Z" fill="black"/>
<path d="M50.0514 42.4048H48.4013V45.6948H47.668V41.8564H50.7848V45.6948H50.0514L50.0514 42.4048Z" fill="black"/>
<path d="M226.611 196.624H217.811V211.907H226.611V196.624Z" stroke="black" stroke-width="0.75" stroke-miterlimit="10"/>
<path d="M241.244 214.309H241.794V220.706H241.061V215.406L240.144 216.137L239.777 215.588L241.244 214.309Z" fill="white"/>
<path d="M210.935 197.447H208.002V196.898L210.752 192.694H211.669L209.102 196.715H211.119V194.888H211.669V196.715H212.586V197.447H211.669V199.092H210.935V197.447Z" fill="black"/>
<path d="M243.954 214.218H246.888V214.949H244.687L244.504 216.594C244.687 216.594 244.871 216.594 245.054 216.594C246.154 216.594 247.071 217.325 247.071 218.604C247.071 219.884 246.154 220.798 245.054 220.798C244.321 220.798 243.587 220.432 243.221 219.884L243.587 219.335C243.954 219.884 244.504 220.066 245.054 220.066C245.787 220.066 246.338 219.518 246.338 218.787C246.338 218.056 245.787 217.508 244.687 217.508C244.321 217.508 243.954 217.508 243.587 217.69L243.954 214.218Z" fill="white"/>
<path d="M206.504 192.694H207.054V199.092H206.321V193.791L205.404 194.522L205.037 193.974L206.504 192.694Z" fill="black"/>
</svg>
