<svg width="13" height="19" viewBox="0 0 13 19" fill="none" xmlns="http://www.w3.org/2000/svg">
<path d="M5.57206 4.53898L2.92138 6.46479L2.90735 6.45459L0.962891 9.13094L2.30105 10.1031L4.06015 7.68199L4.61991 7.27525L4.19929 9.66073C4.09101 10.2748 4.33649 10.8694 4.78933 11.2355L7.59315 13.5882L9.2802 18.2232L10.8345 17.6575L8.99587 12.606L7.29129 11.1757L7.86822 7.90404C8.93004 9.19065 10.537 10.0108 12.3355 10.0108V8.35676C10.9835 8.35676 9.78312 7.70795 9.02862 6.70477C8.90159 6.53594 8.76108 6.21005 8.607 5.72711C8.32623 4.84742 7.51905 4.24489 6.59989 4.22228C6.22252 4.20957 5.86301 4.32694 5.57206 4.53898Z" fill="white"/>
<path d="M6.13279 2.15405C6.13279 3.06756 6.87331 3.80811 7.78684 3.80811C8.70029 3.80811 9.44089 3.06756 9.44089 2.15405C9.44089 1.24054 8.70029 0.5 7.78684 0.5C6.87331 0.5 6.13279 1.24054 6.13279 2.15405Z" fill="white"/>
<path d="M2.67122 17.8772L5.32925 14.7094L5.96341 13.3189L4.48209 12.0784L3.8647 13.8815L1.40415 16.8139L2.67122 17.8772Z" fill="white"/>
</svg>
